{
.appVersion = "1225";
classes = (
{
automatic = 1;

glyphs = (
{
glyphname = A;
lastChange = "2019-04-04 04:15:32 +0000";
layers = (
{
anchors = (
{
name = bottom;
position = "{338, 0}";
},
{
name = mark0;
position = "{332, -83}";
},
{
name = ogonek;
position = "{618, 10}";
},
{
name = top;
position = "{347, 743}";
}
);
layerId = UUID0;
paths = (
{
closed = 1;
nodes = (
"-8 43 LINE",
"-8 0 LINE",
"217 0 LINE",
"217 43 LINE",
"128 53 LINE",
"181 211 LINE",
"493 211 LINE",
"546 52 LINE",
"458 43 LINE",
"458 0 LINE",
"702 0 LINE",
"702 43 LINE",
"637 52 LINE",
"389 750 LINE",
"307 750 LINE",
"56 52 LINE"
);
},
{
closed = 1;
nodes = (
"198 263 LINE",
"310 593 LINE",
"338 691 LINE",
"365 596 LINE",
"475 263 LINE"
);
}
);
width = 694;
},
{
anchors = (
{
name = bottom;
position = "{342.433, 0}";
},
{
name = mark0;
position = "{293.584, -83}";
},
{
name = ogonek;
position = "{640.902, 10}";
},
{
name = top;
position = "{352.91, 743}";
}
);
layerId = "DEBB1CE4-A72D-4960-969E-E04A036D2FA1";
paths = (
{
closed = 1;
nodes = (
"-18.343 65.902 LINE",
"-17.604 0 LINE",
"248.767 0 LINE",
"248.767 65.902 LINE",
"170.849 75.163 LINE",
"204.641 196.224 LINE",
"443.502 196.224 LINE",
"478.033 76.38 LINE",
"407.024 65.902 LINE",
"407.024 0 LINE",
"721.947 0 LINE",
"721.947 65.902 LINE",
"666.551 76.38 LINE",
"443.669 746.306 LINE",
"263.412 746.306 LINE",
"39.747 77.118 LINE"
);
},
{
closed = 1;
nodes = (
"224.596 272.604 LINE",
"307.045 570.837 LINE",
"322.486 642.241 LINE",
"337.665 571.62 LINE",
"422.547 272.604 LINE"
);
}
);
width = 709.51429;
}
);
leftKerningGroup = A;
rightKerningGroup = A;
unicode = 0041;
},
{
glyphname = Aogonek;
lastChange = "2019-02-15 20:53:54 +0000";
layers = (
{
layerId = UUID0;
paths = (
{
closed = 1;
nodes = (
"-11 43 LINE",
"-11 0 LINE",
"214 0 LINE",
"214 43 LINE",
"125 53 LINE",
"178 211 LINE",
"490 211 LINE",
"543 52 LINE",
"455 43 LINE",
"455 0 LINE",
"579 0 LINE",
"509 -30 OFFCURVE",
"452 -101 OFFCURVE",
"452 -155 CURVE SMOOTH",
"452 -226 OFFCURVE",
"512 -249 OFFCURVE",
"573 -249 CURVE SMOOTH",
"614 -249 OFFCURVE",
"658 -236 OFFCURVE",
"686 -215 CURVE",
"686 -173 LINE",
"663 -185 OFFCURVE",
"634 -193 OFFCURVE",
"608 -193 CURVE SMOOTH",
"567 -193 OFFCURVE",
"530 -176 OFFCURVE",
"530 -129 CURVE SMOOTH",
"530 -87 OFFCURVE",
"577 -28 OFFCURVE",
"642 0 CURVE",
"699 0 LINE",
"699 43 LINE",
"634 52 LINE",
"384 750 LINE",
"302 750 LINE",
"53 52 LINE"
);
},
{
closed = 1;
nodes = (
"195 263 LINE",
"305 593 LINE",
"332 691 LINE",
"360 596 LINE",
"472 263 LINE"
);
}
);
width = 678;
},
{
layerId = "DEBB1CE4-A72D-4960-969E-E04A036D2FA1";
paths = (
{
closed = 1;
nodes = (
"-19.127 65.902 LINE",
"-18.388 0 LINE",
"247.984 0 LINE",
"247.984 65.902 LINE",
"170.065 75.163 LINE",
"203.857 196.224 LINE",
"442.718 196.224 LINE",
"477.249 76.38 LINE",
"406.241 65.902 LINE",
"406.241 0 LINE",
"590.82 0 LINE",
"506.784 -26.306 OFFCURVE",
"434.269 -92.135 OFFCURVE",
"434.269 -150.567 CURVE SMOOTH",
"434.269 -213.441 OFFCURVE",
"504.612 -250.478 OFFCURVE",
"586.298 -250.478 CURVE SMOOTH",
"627.298 -250.478 OFFCURVE",
"683.118 -238.955 OFFCURVE",
"711.118 -217.955 CURVE",
"711.118 -147.882 LINE",
"688.857 -157.665 OFFCURVE",
"672.416 -161.233 OFFCURVE",
"649.371 -161.233 CURVE SMOOTH",
"606.155 -161.233 OFFCURVE",
"576.543 -143.494 OFFCURVE",
"576.543 -110.531 CURVE SMOOTH",
"576.543 -71.486 OFFCURVE",
"617.633 -23.567 OFFCURVE",
"682.633 0 CURVE",
"721.163 0 LINE",
"721.163 65.902 LINE",
"665.767 76.38 LINE",
"442.363 746.306 LINE",
"262.106 746.306 LINE",
"38.963 77.118 LINE"
);
},
{
closed = 1;
nodes = (
"223.812 272.604 LINE",
"305.739 570.837 LINE",
"320.918 642.241 LINE",
"336.359 571.62 LINE",
"421.763 272.604 LINE"
);
}
);
width = 705.33469;
}
);
leftKerningGroup = A;
rightKerningGroup = A;
unicode = 0104;
},
{
glyphname = AE;
lastChange = "2019-04-04 20:01:47 +0000";
layers = (
{
anchors = (
{
name = bottom;
position = "{516, 0}";
},
{
name = mark0;
position = "{494, -83}";
},
{
name = top;
position = "{516, 743}";
}
);
layerId = UUID0;
paths = (
{
closed = 1;
nodes = (
"373 42 LINE",
"373 0 LINE",
"917 0 LINE",
"955 171 LINE",
"907 184 LINE",
"849 59 LINE",
"543 49 LINE",
"543 359 LINE",
"724 357 LINE",
"736 271 LINE",
"787 271 LINE",
"787 492 LINE",
"736 492 LINE",
"724 409 LINE",
"543 406 LINE",
"543 698 LINE",
"808 694 LINE",
"838 593 LINE",
"886 593 LINE",
"869 743 LINE",
"195 743 LINE",
"195 702 LINE",
"331 691 LINE",
"43 52 LINE",
"-30 42 LINE",
"-30 0 LINE",
"199 0 LINE",
"199 42 LINE",
"121 52 LINE",
"191 220 LINE",
"461 220 LINE",
"461 52 LINE"
);
},
{
closed = 1;
nodes = (
"213 272 LINE",
"336 567 LINE",
"392 695 LINE",
"461 695 LINE",
"461 272 LINE"
);
}
);
width = 971;
},
{
anchors = (
{
name = bottom;
position = "{504, 0}";
},
{
name = mark0;
position = "{485, -83}";
},
{
name = top;
position = "{504, 743}";
}
);
layerId = "DEBB1CE4-A72D-4960-969E-E04A036D2FA1";
paths = (
{
closed = 1;
nodes = (
"352 65 LINE",
"352 0 LINE",
"945 0 LINE",
"978 186 LINE",
"884 212 LINE",
"820 83 LINE",
"600 69 LINE",
"600 341 LINE",
"723 338 LINE",
"739 251 LINE",
"808 251 LINE",
"808 502 LINE",
"739 502 LINE",
"722 421 LINE",
"600 417 LINE",
"600 678 LINE",
"799 667 LINE",
"834 566 LINE",
"913 566 LINE",
"898 743 LINE",
"135 743 LINE",
"135 674 LINE",
"263 660 LINE",
"20 76 LINE",
"-51 65 LINE",
"-51 0 LINE",
"228 0 LINE",
"228 65 LINE",
"154 76 LINE",
"202 205 LINE",
"430 205 LINE",
"430 76 LINE"
);
},
{
closed = 1;
nodes = (
"230 284 LINE",
"322 531 LINE",
"372 671 LINE",
"430 671 LINE",
"430 284 LINE"
);
}
);
width = 976;
}
);
leftKerningGroup = A;
rightKerningGroup = E;
unicode = 00C6;
},
{
glyphname = B;
lastChange = "2019-04-03 17:00:31 +0000";
layers = (
{
anchors = (
{
name = bottom;
position = "{336, 0}";
},
{
name = mark0;
position = "{360, -83}";
},
{
name = top;
position = "{336, 743}";
}
);
layerId = UUID0;
paths = (
{
closed = 1;
nodes = (
"50 43 LINE",
"50 0 LINE",
"173 0 LINE SMOOTH",
"250 0 OFFCURVE",
"283 -6 OFFCURVE",
"332 -6 CURVE SMOOTH",
"563 -6 OFFCURVE",
"633 105 OFFCURVE",
"633 222 CURVE SMOOTH",
"633 328 OFFCURVE",
"559 400 OFFCURVE",
"432 396 CURVE",
"529 415 OFFCURVE",
"580 493 OFFCURVE",
"580 583 CURVE SMOOTH",
"580 688 OFFCURVE",
"512 751 OFFCURVE",
"333 751 CURVE SMOOTH",
"283 751 OFFCURVE",
"237 743 OFFCURVE",
"177 743 CURVE SMOOTH",
"52 743 LINE",
"52 700 LINE",
"136 689 LINE",
"136 52 LINE"
);
},
{
closed = 1;
nodes = (
"218 699 LINE",
"238 699 OFFCURVE",
"273 705 OFFCURVE",
"322 705 CURVE SMOOTH",
"455 705 OFFCURVE",
"497 657 OFFCURVE",
"497 564 CURVE SMOOTH",
"497 466 OFFCURVE",
"442 412 OFFCURVE",
"341 412 CURVE SMOOTH",
"315 412 OFFCURVE",
"249 411 OFFCURVE",
"218 413 CURVE"
);
},
{
closed = 1;
nodes = (
"218 359 LINE",
"248 361 OFFCURVE",
"325 360 OFFCURVE",
"361 360 CURVE SMOOTH",
"490 360 OFFCURVE",
"543 313 OFFCURVE",
"543 207 CURVE SMOOTH",
"543 105 OFFCURVE",
"486 42 OFFCURVE",
"331 42 CURVE SMOOTH",
"297 42 OFFCURVE",
"244 42 OFFCURVE",
"218 50 CURVE"
);
}
);
width = 668;
},
{
anchors = (
{
name = bottom;
position = "{365, 0}";
},
{
name = mark0;
position = "{373, -83}";
},
{
name = top;
position = "{365, 743}";
}
);
layerId = "DEBB1CE4-A72D-4960-969E-E04A036D2FA1";
paths = (
{
closed = 1;
nodes = (
"40 66 LINE",
"40 0 LINE",
"202 0 LINE SMOOTH",
"267 0 OFFCURVE",
"296 -6 OFFCURVE",
"371 -6 CURVE SMOOTH",
"622 -6 OFFCURVE",
"694 96 OFFCURVE",
"694 225 CURVE SMOOTH",
"694 336 OFFCURVE",
"610 397 OFFCURVE",
"479 397 CURVE",
"572 410 OFFCURVE",
"644 477 OFFCURVE",
"644 580 CURVE SMOOTH",
"644 684 OFFCURVE",
"587 750 OFFCURVE",
"362 750 CURVE SMOOTH",
"311 750 OFFCURVE",
"263 743 OFFCURVE",
"200 743 CURVE SMOOTH",
"42 743 LINE",
"42 673 LINE",
"117 659 LINE",
"117 77 LINE"
);
},
{
closed = 1;
nodes = (
"286 679 LINE",
"299 681 OFFCURVE",
"340 684 OFFCURVE",
"355 684 CURVE SMOOTH",
"440 684 OFFCURVE",
"474 646 OFFCURVE",
"474 563 CURVE SMOOTH",
"474 476 OFFCURVE",
"443 420 OFFCURVE",
"367 420 CURVE SMOOTH",
"343 420 OFFCURVE",
"304 420 OFFCURVE",
"286 422 CURVE"
);
},
{
closed = 1;
nodes = (
"286 343 LINE",
"304 344 OFFCURVE",
"347 345 OFFCURVE",
"377 345 CURVE SMOOTH",
"464 345 OFFCURVE",
"506 311 OFFCURVE",
"506 215 CURVE SMOOTH",
"506 121 OFFCURVE",
"468 63 OFFCURVE",
"365 63 CURVE SMOOTH",
"338 63 OFFCURVE",
"301 65 OFFCURVE",
"286 71 CURVE"
);
}
);
width = 722;
}
);
leftKerningGroup = H;
leftMetricsKey = H;
rightKerningGroup = B;
unicode = 0042;
},
{
glyphname = C;
lastChange = "2019-02-15 20:53:54 +0000";
layers = (
{
anchors = (
{
name = bottom;
position = "{365, 0}";
},
{
name = mark0;
position = "{374, -83}";
},
{
name = top;
position = "{365, 743}";
}
);
layerId = UUID0;
paths = (
{
closed = 1;
nodes = (
"497 -11 OFFCURVE",
"534 25 OFFCURVE",
"586 27 CURVE",
"611 161 LINE",
"562 168 LINE",
"522 74 LINE",
"496 53 OFFCURVE",
"462 37 OFFCURVE",
"379 37 CURVE SMOOTH",
"208 37 OFFCURVE",
"130 199 OFFCURVE",
"130 384 CURVE SMOOTH",
"130 589 OFFCURVE",
"236 703 OFFCURVE",
"372 703 CURVE SMOOTH",
"451 703 OFFCURVE",
"503 688 OFFCURVE",
"521 672 CURVE",
"543 556 LINE",
"595 556 LINE",
"603 719 LINE",
"568 727 OFFCURVE",
"481 751 OFFCURVE",
"392 751 CURVE SMOOTH",
"191 751 OFFCURVE",
"36 591 OFFCURVE",
"36 368 CURVE SMOOTH",
"36 136 OFFCURVE",
"159 -11 OFFCURVE",
"377 -11 CURVE SMOOTH"
);
}
);
width = 649;
},
{
anchors = (
{
name = bottom;
position = "{363.522, 0}";
},
{
name = mark0;
position = "{365.135, -83}";
},
{
name = top;
position = "{378.298, 743}";
}
);
layerId = "DEBB1CE4-A72D-4960-969E-E04A036D2FA1";
paths = (
{
closed = 1;
nodes = (
"504.388 -11 OFFCURVE",
"545.082 21.306 OFFCURVE",
"612.596 27 CURVE",
"632.424 202.371 LINE",
"536.882 211.588 LINE",
"490.233 91.731 LINE",
"473.098 75.163 OFFCURVE",
"448.702 60.641 OFFCURVE",
"389.343 60.641 CURVE SMOOTH",
"274.49 60.641 OFFCURVE",
"218.653 193.09 OFFCURVE",
"218.653 378.829 CURVE SMOOTH",
"218.653 581.612 OFFCURVE",
"286.237 680.098 OFFCURVE",
"385.298 680.098 CURVE SMOOTH",
"436.224 680.098 OFFCURVE",
"466.061 668.053 OFFCURVE",
"477.412 656.486 CURVE",
"511.233 502.808 LINE",
"612.731 502.808 LINE",
"625.163 730.82 LINE",
"553.963 732.91 OFFCURVE",
"495.037 751 OFFCURVE",
"396.433 751 CURVE SMOOTH",
"183.612 751 OFFCURVE",
"25.657 605.037 OFFCURVE",
"25.657 362.829 CURVE SMOOTH",
"25.657 136 OFFCURVE",
"142.747 -11 OFFCURVE",
"379.216 -11 CURVE SMOOTH"
);
}
);
width = 663.03673;
}
);
leftKerningGroup = O;
rightKerningGroup = C;
unicode = 0043;
},
{
glyphname = D;
lastChange = "2019-02-15 20:53:54 +0000";
layers = (
{
anchors = (
{
name = bottom;
position = "{378, 0}";
},
{
name = center;
position = "{378, 372}";
},
{
name = mark0;
position = "{393, -83}";
},
{
name = top;
position = "{378, 743}";
}
);
layerId = UUID0;
paths = (
{
closed = 1;
nodes = (
"50 43 LINE",
"50 0 LINE",
"178 0 LINE SMOOTH",
"236 0 OFFCURVE",
"293 -7 OFFCURVE",
"341 -8 CURVE SMOOTH",
"563 -13 OFFCURVE",
"720 149 OFFCURVE",
"720 394 CURVE SMOOTH",
"720 608 OFFCURVE",
"613 751 OFFCURVE",
"354 751 CURVE SMOOTH",
"294 751 OFFCURVE",
"238 743 OFFCURVE",
"177 743 CURVE SMOOTH",
"56 743 LINE",
"56 700 LINE",
"136 689 LINE",
"136 52 LINE"
);
},
{
closed = 1;
nodes = (
"218 697 LINE",
"246 698 OFFCURVE",
"283 703 OFFCURVE",
"328 703 CURVE SMOOTH",
"531 703 OFFCURVE",
"632 594 OFFCURVE",
"632 376 CURVE SMOOTH",
"632 159 OFFCURVE",
"514 43 OFFCURVE",
"353 41 CURVE SMOOTH",
"307 40 OFFCURVE",
"266 40 OFFCURVE",
"218 49 CURVE"
);
}
);
width = 756;
},
{
anchors = (
{
name = bottom;
position = "{381.694, 0}";
},
{
name = center;
position = "{381.694, 372}";
},
{
name = mark0;
position = "{398.171, -83}";
},
{
name = top;
position = "{381.694, 743}";
}
);
layerId = "DEBB1CE4-A72D-4960-969E-E04A036D2FA1";
paths = (
{
closed = 1;
nodes = (
"34.486 65.902 LINE",
"34.486 0 LINE",
"195.731 0 LINE SMOOTH",
"234.522 0 OFFCURVE",
"301.865 -6.261 OFFCURVE",
"354.298 -8 CURVE SMOOTH",
"592.551 -13 OFFCURVE",
"736.253 161.559 OFFCURVE",
"736.253 397.694 CURVE SMOOTH",
"736.253 620.559 OFFCURVE",
"617.433 749.522 OFFCURVE",
"369.514 749.522 CURVE SMOOTH",
"306.559 749.522 OFFCURVE",
"258.686 743 OFFCURVE",
"193.992 743 CURVE SMOOTH",
"37.531 743 LINE",
"37.531 673.404 LINE",
"110.882 659.449 LINE",
"110.882 77.118 LINE"
);
},
{
closed = 1;
nodes = (
"280.057 672.62 LINE",
"291.804 673.62 OFFCURVE",
"314.029 680.098 OFFCURVE",
"347.947 680.098 CURVE SMOOTH",
"493.322 680.098 OFFCURVE",
"549.257 554.845 OFFCURVE",
"549.257 373.045 CURVE SMOOTH",
"549.257 157.522 OFFCURVE",
"475.584 65.902 OFFCURVE",
"360.388 64.641 CURVE SMOOTH",
"330.641 64.38 OFFCURVE",
"302.939 66.596 OFFCURVE",
"280.057 74.118 CURVE"
);
}
);
width = 763.38776;
}
);
leftKerningGroup = H;
rightKerningGroup = D;
unicode = 0044;
},
{
glyphname = Eth;
lastChange = "2019-02-15 20:53:54 +0000";
layers = (
{
layerId = UUID0;
paths = (
{
closed = 1;
nodes = (
"59 411 LINE",
"59 365 LINE",
"136 365 LINE",
"136 52 LINE",
"50 43 LINE",
"50 0 LINE",
"178 0 LINE SMOOTH",
"236 0 OFFCURVE",
"293 -7 OFFCURVE",
"341 -8 CURVE SMOOTH",
"563 -13 OFFCURVE",
"720 149 OFFCURVE",
"720 394 CURVE SMOOTH",
"720 608 OFFCURVE",
"613 751 OFFCURVE",
"354 751 CURVE SMOOTH",
"294 751 OFFCURVE",
"238 743 OFFCURVE",
"177 743 CURVE SMOOTH",
"56 743 LINE",
"56 700 LINE",
"136 689 LINE",
"136 411 LINE"
);
},
{
closed = 1;
nodes = (
"218 411 LINE",
"218 697 LINE",
"246 698 OFFCURVE",
"283 703 OFFCURVE",
"328 703 CURVE SMOOTH",
"531 703 OFFCURVE",
"632 594 OFFCURVE",
"632 376 CURVE SMOOTH",
"632 159 OFFCURVE",
"514 43 OFFCURVE",
"353 41 CURVE SMOOTH",
"307 40 OFFCURVE",
"266 40 OFFCURVE",
"218 49 CURVE",
"218 365 LINE",
"406 365 LINE",
"406 411 LINE"
);
}
);
width = 756;
},
{
layerId = "DEBB1CE4-A72D-4960-969E-E04A036D2FA1";
paths = (
{
closed = 1;
nodes = (
"42.008 419.127 LINE",
"42.008 350.224 LINE",
"110.882 350.224 LINE",
"110.882 77.118 LINE",
"34.486 65.902 LINE",
"34.486 0 LINE",
"195.731 0 LINE SMOOTH",
"234.522 0 OFFCURVE",
"301.865 -6.261 OFFCURVE",
"354.298 -8 CURVE SMOOTH",
"592.551 -13 OFFCURVE",
"736.253 161.559 OFFCURVE",
"736.253 397.694 CURVE SMOOTH",
"736.253 620.559 OFFCURVE",
"617.433 749.522 OFFCURVE",
"369.514 749.522 CURVE SMOOTH",
"306.559 749.522 OFFCURVE",
"258.686 743 OFFCURVE",
"193.992 743 CURVE SMOOTH",
"37.531 743 LINE",
"37.531 673.404 LINE",
"110.882 659.449 LINE",
"110.882 419.127 LINE"
);
},
{
closed = 1;
nodes = (
"280.057 419.127 LINE",
"280.057 672.62 LINE",
"291.804 673.62 OFFCURVE",
"314.029 680.098 OFFCURVE",
"347.947 680.098 CURVE SMOOTH",
"493.322 680.098 OFFCURVE",
"549.257 554.845 OFFCURVE",
"549.257 373.045 CURVE SMOOTH",
"549.257 157.522 OFFCURVE",
"475.584 65.902 OFFCURVE",
"360.388 64.641 CURVE SMOOTH",
"330.641 64.38 OFFCURVE",
"302.939 66.596 OFFCURVE",
"280.057 74.118 CURVE",
"280.057 350.224 LINE",
"419.298 350.224 LINE",
"419.298 419.127 LINE"
);
}
);
width = 763.38776;
}
);
leftKerningGroup = H;
rightKerningGroup = D;
unicode = 00D0;
},
{
glyphname = E;
lastChange = "2019-03-15 03:37:20 +0000";
layers = (
{
anchors = (
{
name = bottom;
position = "{325, 0}";
},
{
name = mark0;
position = "{341, -83}";
},
{
name = ogonek;
position = "{584, 10}";
},
{
name = top;
position = "{341, 743}";
},
{
name = topleft;
position = "{20, 743}";
}
);
layerId = UUID0;
paths = (
{
closed = 1;
nodes = (
"50 43 LINE",
"50 0 LINE",
"592 0 LINE",
"623 169 LINE",
"575 184 LINE",
"524 59 LINE",
"218 51 LINE",
"218 359 LINE",
"402 356 LINE",
"415 271 LINE",
"465 271 LINE",
"465 492 LINE",
"415 492 LINE",
"402 409 LINE",
"218 406 LINE",
"218 697 LINE",
"486 692 LINE",
"513 596 LINE",
"561 596 LINE",
"547 743 LINE",
"52 743 LINE",
"52 700 LINE",
"136 689 LINE",
"136 52 LINE"
);
}
);
width = 649;
},
{
anchors = (
{
name = bottom;
position = "{328.694, 0}";
},
{
name = mark0;
position = "{348.388, -83}";
},
{
name = ogonek;
position = "{591.388, 10}";
},
{
name = top;
position = "{341, 743}";
},
{
name = topleft;
position = "{20, 743}";
}
);
layerId = "DEBB1CE4-A72D-4960-969E-E04A036D2FA1";
paths = (
{
closed = 1;
nodes = (
"34.486 65.902 LINE",
"34.486 0 LINE",
"623.029 0 LINE",
"646.641 188.208 LINE",
"561.702 212.073 LINE",
"501.098 82.641 LINE",
"284 69 LINE",
"284 341 LINE",
"404.955 338.269 LINE",
"421.649 251.053 LINE",
"490.857 251.053 LINE",
"490.857 501.604 LINE",
"421.649 501.604 LINE",
"404.216 420.082 LINE",
"284 417 LINE",
"284 677 LINE",
"479.351 666.882 LINE",
"513.739 566.449 LINE",
"592.767 566.449 LINE",
"579.506 743 LINE",
"32.792 743 LINE",
"32.792 673.404 LINE",
"110.882 659.449 LINE",
"110.882 76.38 LINE"
);
}
);
width = 657.12653;
}
);
leftKerningGroup = H;
rightKerningGroup = E;
unicode = 0045;
},
{
glyphname = Ecedilla;
lastChange = "2019-02-15 20:53:54 +0000";
layers = (
{
anchors = (
{
name = _bottom;
position = "{325, 0}";
},
{
name = bottom;
position = "{325, 0}";
},
{
name = mark0;
position = "{341, -83}";
},
{
name = ogonek;
position = "{584, 10}";
},
{
name = top;
position = "{331, 743}";
},
{
name = topleft;
position = "{20, 743}";
}
);
layerId = UUID0;
paths = (
{
closed = 1;
nodes = (
"361 -235 OFFCURVE",
"405 -211 OFFCURVE",
"408 -143 CURVE SMOOTH",
"411 -80 OFFCURVE",
"366 -19 OFFCURVE",
"345 0 CURVE",
"592 0 LINE",
"623 169 LINE",
"575 184 LINE",
"524 59 LINE",
"218 51 LINE",
"218 359 LINE",
"402 356 LINE",
"415 271 LINE",
"465 271 LINE",
"465 492 LINE",
"415 492 LINE",
"402 409 LINE",
"218 406 LINE",
"218 697 LINE",
"486 692 LINE",
"513 596 LINE",
"561 596 LINE",
"547 743 LINE",
"52 743 LINE",
"52 700 LINE",
"136 689 LINE",
"136 52 LINE",
"50 43 LINE",
"50 0 LINE",
"304 0 LINE",
"313 -13 OFFCURVE",
"338 -58 OFFCURVE",
"338 -100 CURVE SMOOTH",
"338 -161 OFFCURVE",
"311 -171 OFFCURVE",
"262 -171 CURVE SMOOTH",
"252 -171 OFFCURVE",
"230 -168 OFFCURVE",
"216 -163 CURVE",
"215 -222 LINE",
"233 -229 OFFCURVE",
"263 -235 OFFCURVE",
"286 -235 CURVE SMOOTH"
);
}
);
width = 649;
},
{
anchors = (
{
name = _bottom;
position = "{328.694, 0}";
},
{
name = bottom;
position = "{328.694, 0}";
},
{
name = mark0;
position = "{348.388, -83}";
},
{
name = ogonek;
position = "{591.388, 10}";
},
{
name = top;
position = "{332.478, 743}";
},
{
name = topleft;
position = "{20, 743}";
}
);
layerId = "DEBB1CE4-A72D-4960-969E-E04A036D2FA1";
paths = (
{
closed = 1;
nodes = (
"377.992 -256.424 OFFCURVE",
"430.857 -230.208 OFFCURVE",
"435.335 -144.478 CURVE SMOOTH",
"438.89 -79.513 OFFCURVE",
"392.207 -21.57 OFFCURVE",
"368.966 0 CURVE",
"623.029 0 LINE",
"646.641 188.208 LINE",
"561.702 212.073 LINE",
"501.098 82.641 LINE",
"282.273 69.469 LINE",
"282.273 340.531 LINE",
"404.955 338.269 LINE",
"421.649 251.053 LINE",
"490.857 251.053 LINE",
"490.857 501.604 LINE",
"421.649 501.604 LINE",
"404.216 420.082 LINE",
"282.273 417.082 LINE",
"282.273 677.053 LINE",
"479.351 666.882 LINE",
"513.739 566.449 LINE",
"592.767 566.449 LINE",
"579.506 743 LINE",
"32.792 743 LINE",
"32.792 673.404 LINE",
"110.882 659.449 LINE",
"110.882 76.38 LINE",
"34.486 65.902 LINE",
"34.486 0 LINE",
"295.828 0 LINE",
"306.611 -15.556 OFFCURVE",
"326.18 -53.442 OFFCURVE",
"326.18 -87.441 CURVE SMOOTH",
"326.18 -149.18 OFFCURVE",
"302.135 -156.224 OFFCURVE",
"256.829 -156.224 CURVE SMOOTH",
"249.045 -156.224 OFFCURVE",
"229.261 -153.963 OFFCURVE",
"215.261 -149.702 CURVE",
"215 -241.947 LINE",
"232.261 -249.686 OFFCURVE",
"263 -256.424 OFFCURVE",
"286 -256.424 CURVE SMOOTH"
);
}
);
width = 657.12653;
}
);
leftKerningGroup = H;
rightKerningGroup = E;
unicode = 0228;
},
{
glyphname = Eogonek;
lastChange = "2019-02-15 20:53:54 +0000";
layers = (
{
layerId = UUID0;
paths = (
{
closed = 1;
nodes = (
"50 43 LINE",
"50 0 LINE",
"499 0 LINE",
"423 -30 OFFCURVE",
"357 -100 OFFCURVE",
"357 -155 CURVE SMOOTH",
"357 -226 OFFCURVE",
"418 -249 OFFCURVE",
"479 -249 CURVE SMOOTH",
"520 -249 OFFCURVE",
"564 -236 OFFCURVE",
"592 -215 CURVE",
"592 -173 LINE",
"569 -185 OFFCURVE",
"540 -193 OFFCURVE",
"514 -193 CURVE SMOOTH",
"473 -193 OFFCURVE",
"437 -176 OFFCURVE",
"437 -129 CURVE SMOOTH",
"437 -83 OFFCURVE",
"512 -13 OFFCURVE",
"579 0 CURVE",
"592 0 LINE",
"623 169 LINE",
"575 184 LINE",
"524 59 LINE",
"218 51 LINE",
"218 359 LINE",
"402 356 LINE",
"415 271 LINE",
"465 271 LINE",
"465 492 LINE",
"415 492 LINE",
"402 409 LINE",
"218 406 LINE",
"218 697 LINE",
"486 692 LINE",
"513 596 LINE",
"561 596 LINE",
"547 743 LINE",
"52 743 LINE",
"52 700 LINE",
"136 689 LINE",
"136 52 LINE"
);
}
);
width = 650;
},
{
layerId = "DEBB1CE4-A72D-4960-969E-E04A036D2FA1";
paths = (
{
closed = 1;
nodes = (
"34.486 65.902 LINE",
"34.486 0 LINE",
"505.649 0 LINE",
"413.396 -32.216 OFFCURVE",
"359.955 -91.873 OFFCURVE",
"359.955 -150.567 CURVE SMOOTH",
"359.955 -213.441 OFFCURVE",
"412.09 -250.478 OFFCURVE",
"493.776 -250.478 CURVE SMOOTH",
"534.776 -250.478 OFFCURVE",
"588.38 -238.955 OFFCURVE",
"616.38 -217.955 CURVE",
"616.38 -147.882 LINE",
"594.118 -157.665 OFFCURVE",
"579.894 -161.233 OFFCURVE",
"556.11 -161.233 CURVE SMOOTH",
"515.849 -161.233 OFFCURVE",
"491.669 -141.278 OFFCURVE",
"491.669 -107.576 CURVE SMOOTH",
"491.669 -71.918 OFFCURVE",
"547.461 -15.955 OFFCURVE",
"614.461 0 CURVE",
"623.029 0 LINE",
"646.641 188.208 LINE",
"561.702 212.073 LINE",
"501.098 82.641 LINE",
"282.273 69.469 LINE",
"282.273 340.531 LINE",
"404.955 338.269 LINE",
"421.649 251.053 LINE",
"490.857 251.053 LINE",
"490.857 501.604 LINE",
"421.649 501.604 LINE",
"404.216 420.082 LINE",
"282.273 417.082 LINE",
"282.273 677.053 LINE",
"479.351 666.882 LINE",
"513.739 566.449 LINE",
"592.767 566.449 LINE",
"579.506 743 LINE",
"32.792 743 LINE",
"32.792 673.404 LINE",
"110.882 659.449 LINE",
"110.882 76.38 LINE"
);
}
);
width = 657.38776;
}
);
leftKerningGroup = H;
rightKerningGroup = Eogonek;
unicode = 0118;
},
{
glyphname = Ezh;
lastChange = "2019-02-15 20:53:54 +0000";
layers = (
{
anchors = (
{
name = top;
position = "{278, 743}";
}
);
layerId = UUID0;
paths = (
{
closed = 1;
nodes = (
"512 701 LINE",
"512 743 LINE",
"55 743 LINE",
"66 576 LINE",
"117 576 LINE",
"132 679 LINE",
"414 682 LINE",
"414 682 OFFCURVE",
"193 428 OFFCURVE",
"186 419 CURVE",
"198 384 LINE",
"212 384 OFFCURVE",
"226 384 OFFCURVE",
"240 384 CURVE",
"396 378 OFFCURVE",
"447 323 OFFCURVE",
"447 220 CURVE SMOOTH",
"447 130 OFFCURVE",
"381 48 OFFCURVE",
"242 48 CURVE SMOOTH",
"161 48 OFFCURVE",
"133 66 OFFCURVE",
"123 70 CURVE",
"102 188 LINE",
"55 188 LINE",
"36 28 LINE",
"62 22 OFFCURVE",
"121 -6 OFFCURVE",
"231 -6 CURVE SMOOTH",
"410 -6 OFFCURVE",
"542 86 OFFCURVE",
"542 233 CURVE SMOOTH",
"542 362 OFFCURVE",
"463 425 OFFCURVE",
"327 425 CURVE SMOOTH",
"307 425 OFFCURVE",
"287 424 OFFCURVE",
"265 421 CURVE"
);
}
);
width = 584;
},
{
anchors = (
{
name = top;
position = "{308.29, 743}";
}
);
layerId = "DEBB1CE4-A72D-4960-969E-E04A036D2FA1";
paths = (
{
closed = 1;
nodes = (
"574.796 670.71 LINE",
"574.796 743 LINE",
"41.702 743 LINE",
"53.441 538.322 LINE",
"153.939 538.322 LINE",
"177.065 652.404 LINE",
"399.224 656.143 LINE",
"357.853 597.78 OFFCURVE",
"258.012 473.804 OFFCURVE",
"214.812 413.09 CURVE",
"237.155 364.792 LINE",
"251.894 367.008 OFFCURVE",
"265.894 367.008 OFFCURVE",
"278.416 367.008 CURVE",
"397.478 364.702 OFFCURVE",
"415.233 297.882 OFFCURVE",
"415.233 218.522 CURVE SMOOTH",
"415.233 121.873 OFFCURVE",
"355.143 58.343 OFFCURVE",
"266.38 58.343 CURVE SMOOTH",
"211.976 58.343 OFFCURVE",
"186.192 77.082 OFFCURVE",
"181.363 84.037 CURVE",
"147.065 220.506 LINE",
"53.522 220.506 LINE",
"30.09 36.865 LINE",
"62.739 22 OFFCURVE",
"163.849 -9.694 OFFCURVE",
"270.155 -9.694 CURVE SMOOTH",
"520.078 -9.694 OFFCURVE",
"602.58 105.947 OFFCURVE",
"602.58 246.298 CURVE SMOOTH",
"602.58 357.567 OFFCURVE",
"540.571 436.82 OFFCURVE",
"397.922 436.82 CURVE SMOOTH",
"386.049 436.82 OFFCURVE",
"371.959 435.82 OFFCURVE",
"358.086 434.298 CURVE"
);
}
);
width = 641.62449;
}
);
leftKerningGroup = Ezh;
rightKerningGroup = Ezh;
unicode = 01B7;
},
{
glyphname = F;
lastChange = "2019-02-15 20:53:54 +0000";
layers = (
{
anchors = (
{
name = bottom;
position = "{309, 0}";
},
{
name = mark0;
position = "{314, -83}";
},
{
name = top;
position = "{339, 743}";
}
);
layerId = UUID0;
paths = (
{
closed = 1;
nodes = (
"54 43 LINE",
"54 0 LINE",
"375 0 LINE",
"375 43 LINE",
"218 52 LINE",
"218 353 LINE",
"418 349 LINE",
"435 264 LINE",
"481 264 LINE",
"481 485 LINE",
"435 485 LINE",
"418 404 LINE",
"218 401 LINE",
"218 697 LINE",
"500 692 LINE",
"527 579 LINE",
"582 579 LINE",
"572 743 LINE",
"48 743 LINE",
"48 700 LINE",
"136 689 LINE",
"136 52 LINE"
);
}
);
width = 617;
},
{
anchors = (
{
name = bottom;
position = "{311.955, 0}";
},
{
name = mark0;
position = "{321.388, -83}";
},
{
name = top;
position = "{334.567, 743}";
}
);
layerId = "DEBB1CE4-A72D-4960-969E-E04A036D2FA1";
paths = (
{
closed = 1;
nodes = (
"35.531 65.902 LINE",
"35.531 0 LINE",
"434.841 0 LINE",
"434.841 65.902 LINE",
"282.273 77.118 LINE",
"282.273 322.71 LINE",
"412.829 318.71 LINE",
"433.522 226.322 LINE",
"503.163 226.322 LINE",
"503.163 493.127 LINE",
"432.784 493.127 LINE",
"412.829 403.261 LINE",
"282.273 400.261 LINE",
"282.273 677.053 LINE",
"474.143 664.665 LINE",
"514.441 556.098 LINE",
"604.163 556.098 LINE",
"593.424 743 LINE",
"31.008 743 LINE",
"31.008 673.404 LINE",
"110.882 659.449 LINE",
"110.882 77.118 LINE"
);
}
);
width = 623.64898;
}
);
leftKerningGroup = H;
rightKerningGroup = F;
unicode = 0046;
},
{
glyphname = G;
lastChange = "2019-03-14 17:20:41 +0000";
layers = (
{
anchors = (
{
name = bottom;
position = "{369, 0}";
},
{
name = mark0;
position = "{383, -83}";
},
{
name = top;
position = "{399, 743}";
}
);
layerId = UUID0;
paths = (
{
closed = 1;
nodes = (
"526 -11 OFFCURVE",
"604 38 OFFCURVE",
"657 40 CURVE",
"657 311 LINE",
"718 321 LINE",
"718 374 LINE",
"434 374 LINE",
"434 321 LINE",
"573 311 LINE",
"573 83 LINE",
"537 55 OFFCURVE",
"469 37 OFFCURVE",
"398 37 CURVE SMOOTH",
"224 37 OFFCURVE",
"142 209 OFFCURVE",
"142 385 CURVE SMOOTH",
"142 596 OFFCURVE",
"259 703 OFFCURVE",
"414 703 CURVE SMOOTH",
"508 703 OFFCURVE",
"552 681 OFFCURVE",
"567 669 CURVE",
"589 554 LINE",
"641 554 LINE",
"649 720 LINE",
"615 728 OFFCURVE",
"526 751 OFFCURVE",
"423 751 CURVE SMOOTH",
"214 751 OFFCURVE",
"48 610 OFFCURVE",
"48 359 CURVE SMOOTH",
"48 148 OFFCURVE",
"175 -11 OFFCURVE",
"392 -11 CURVE SMOOTH"
);
}
);
width = 742;
},
{
anchors = (
{
name = bottom;
position = "{373.433, 0}";
},
{
name = mark0;
position = "{378.567, -83}";
},
{
name = top;
position = "{403.433, 743}";
}
);
layerId = "DEBB1CE4-A72D-4960-969E-E04A036D2FA1";
paths = (
{
closed = 1;
nodes = (
"519.351 -11 OFFCURVE",
"624.686 38 OFFCURVE",
"677.686 40 CURVE",
"677.686 302.873 LINE",
"727.604 311.396 LINE",
"727.604 383.604 LINE",
"416.269 383.604 LINE",
"416.269 311.396 LINE",
"509.465 300.657 LINE",
"509.465 91.865 LINE",
"489.718 72.731 OFFCURVE",
"447.576 58.424 OFFCURVE",
"399.478 58.424 CURVE SMOOTH",
"276.453 58.424 OFFCURVE",
"228.437 192.747 OFFCURVE",
"228.437 379.09 CURVE SMOOTH",
"228.437 579.747 OFFCURVE",
"296.678 685.269 OFFCURVE",
"414.739 685.269 CURVE SMOOTH",
"474.016 685.269 OFFCURVE",
"501.763 669.918 OFFCURVE",
"510.853 660.135 CURVE",
"538.763 528.143 LINE",
"659.469 528.143 LINE",
"671.163 721.478 LINE",
"635.686 729.478 OFFCURVE",
"524.522 752.478 OFFCURVE",
"418.567 752.478 CURVE SMOOTH",
"178.539 752.478 OFFCURVE",
"29.531 615.91 OFFCURVE",
"29.531 364.91 CURVE SMOOTH",
"29.531 152.433 OFFCURVE",
"154.314 -11 OFFCURVE",
"383.873 -11 CURVE SMOOTH"
);
}
);
width = 751.60408;
}
);
leftKerningGroup = O;
rightKerningGroup = G;
unicode = 0047;
},
{
glyphname = Gstroke;
lastChange = "2019-02-15 20:53:54 +0000";
layers = (
{
anchors = (
{
name = bottom;
position = "{369, 0}";
},
{
name = mark0;
position = "{383, -83}";
},
{
name = top;
position = "{399, 743}";
}
);
layerId = UUID0;
paths = (
{
closed = 1;
nodes = (
"526 -11 OFFCURVE",
"604 38 OFFCURVE",
"657 40 CURVE",
"657 311 LINE",
"718 321 LINE",
"718 374 LINE",
"434 374 LINE",
"434 321 LINE",
"573 311 LINE",
"573 83 LINE",
"537 55 OFFCURVE",
"469 37 OFFCURVE",
"398 37 CURVE SMOOTH",
"224 37 OFFCURVE",
"142 209 OFFCURVE",
"142 385 CURVE SMOOTH",
"142 596 OFFCURVE",
"259 703 OFFCURVE",
"414 703 CURVE SMOOTH",
"508 703 OFFCURVE",
"552 681 OFFCURVE",
"567 669 CURVE",
"589 554 LINE",
"641 554 LINE",
"649 720 LINE",
"615 728 OFFCURVE",
"526 751 OFFCURVE",
"423 751 CURVE SMOOTH",
"214 751 OFFCURVE",
"48 610 OFFCURVE",
"48 359 CURVE SMOOTH",
"48 148 OFFCURVE",
"175 -11 OFFCURVE",
"392 -11 CURVE SMOOTH"
);
},
{
closed = 1;
nodes = (
"402 227 LINE",
"402 167 LINE",
"750 167 LINE",
"750 227 LINE"
);
}
);
width = 758;
},
{
anchors = (
{
name = bottom;
position = "{373.433, 0}";
},
{
name = mark0;
position = "{378.567, -83}";
},
{
name = top;
position = "{403.433, 743}";
}
);
layerId = "DEBB1CE4-A72D-4960-969E-E04A036D2FA1";
paths = (
{
closed = 1;
nodes = (
"519.351 -11 OFFCURVE",
"619.514 38 OFFCURVE",
"672.514 40 CURVE",
"672.514 302.873 LINE",
"727.604 311.396 LINE",
"727.604 383.604 LINE",
"416.269 383.604 LINE",
"416.269 311.396 LINE",
"514.637 300.657 LINE",
"514.637 91.865 LINE",
"494.89 72.731 OFFCURVE",
"447.576 58.424 OFFCURVE",
"399.478 58.424 CURVE SMOOTH",
"276.453 58.424 OFFCURVE",
"228.437 192.747 OFFCURVE",
"228.437 379.09 CURVE SMOOTH",
"228.437 579.747 OFFCURVE",
"296.678 685.269 OFFCURVE",
"414.739 685.269 CURVE SMOOTH",
"474.016 685.269 OFFCURVE",
"501.763 669.918 OFFCURVE",
"510.853 660.135 CURVE",
"538.763 528.143 LINE",
"659.469 528.143 LINE",
"671.163 721.478 LINE",
"635.686 729.478 OFFCURVE",
"524.522 752.478 OFFCURVE",
"418.567 752.478 CURVE SMOOTH",
"178.539 752.478 OFFCURVE",
"29.531 615.91 OFFCURVE",
"29.531 364.91 CURVE SMOOTH",
"29.531 152.433 OFFCURVE",
"154.314 -11 OFFCURVE",
"383.873 -11 CURVE SMOOTH"
);
},
{
closed = 1;
nodes = (
"388.702 233.649 LINE",
"388.702 150.008 LINE",
"764.776 150.008 LINE",
"764.776 233.649 LINE"
);
}
);
width = 781.64082;
}
);
leftKerningGroup = G;
leftMetricsKey = G;
rightKerningGroup = Gstroke;
unicode = 01E4;
},
{
glyphname = H;
lastChange = "2019-04-02 19:22:51 +0000";
layers = (
{
anchors = (
{
name = bottom;
position = "{406, 0}";
},
{
name = top;
position = "{414, 743}";
}
);
layerId = UUID0;
paths = (
{
closed = 1;
nodes = (
"50 43 LINE",
"50 0 LINE",
"303 0 LINE",
"303 43 LINE",
"215 52 LINE",
"215 355 LINE",
"597 355 LINE",
"597 52 LINE",
"512 43 LINE",
"512 0 LINE",
"762 0 LINE",
"762 43 LINE",
"679 52 LINE",
"679 689 LINE",
"758 700 LINE",
"758 743 LINE",
"513 743 LINE",
"513 700 LINE",
"597 689 LINE",
"597 408 LINE",
"215 408 LINE",
"215 689 LINE",
"302 700 LINE",
"302 743 LINE",
"51 743 LINE",
"51 700 LINE",
"133 689 LINE",
"133 52 LINE"
);
}
);
width = 812;
},
{
anchors = (
{
name = bottom;
position = "{423.082, 0}";
},
{
name = top;
position = "{425.171, 743}";
}
);
layerId = "DEBB1CE4-A72D-4960-969E-E04A036D2FA1";
paths = (
{
closed = 1;
nodes = (
"39.747 65.902 LINE",
"39.747 0 LINE",
"364.408 0 LINE",
"364.408 65.902 LINE",
"282.318 76.38 LINE",
"282.318 335.792 LINE",
"556.457 335.792 LINE",
"556.457 77.118 LINE",
"480.322 65.902 LINE",
"480.322 0 LINE",
"799.029 0 LINE",
"799.029 65.902 LINE",
"727.11 76.38 LINE",
"727.11 660.188 LINE",
"797.984 673.404 LINE",
"797.984 743 LINE",
"480.584 743 LINE",
"480.584 673.404 LINE",
"556.457 659.449 LINE",
"556.457 420.559 LINE",
"282.318 420.559 LINE",
"282.318 660.188 LINE",
"364.147 673.404 LINE",
"364.147 743 LINE",
"40.008 743 LINE",
"40.008 673.404 LINE",
"111.665 660.188 LINE",
"111.665 76.38 LINE"
);
}
);
width = 838.77551;
}
);
leftKerningGroup = H;
rightKerningGroup = H;
unicode = 0048;
},
{
glyphname = Hbar;
lastChange = "2019-02-15 20:53:54 +0000";
layers = (
{
layerId = UUID0;
paths = (
{
closed = 1;
nodes = (
"24 555 LINE",
"24 509 LINE",
"139 509 LINE",
"139 52 LINE",
"54 43 LINE",
"54 0 LINE",
"308 0 LINE",
"308 43 LINE",
"220 52 LINE",
"220 309 LINE",
"604 309 LINE",
"604 53 LINE",
"521 42 LINE",
"521 0 LINE",
"768 0 LINE",
"768 42 LINE",
"686 53 LINE",
"686 509 LINE",
"800 509 LINE",
"800 555 LINE",
"686 555 LINE",
"686 689 LINE",
"768 700 LINE",
"768 744 LINE",
"521 744 LINE",
"521 700 LINE",
"604 689 LINE",
"604 555 LINE",
"220 555 LINE",
"220 689 LINE",
"307 700 LINE",
"307 744 LINE",
"57 744 LINE",
"57 700 LINE",
"139 689 LINE",
"139 555 LINE"
);
},
{
closed = 1;
nodes = (
"604 360 LINE",
"220 360 LINE",
"220 509 LINE",
"604 509 LINE"
);
}
);
width = 824;
},
{
layerId = "DEBB1CE4-A72D-4960-969E-E04A036D2FA1";
paths = (
{
closed = 1;
nodes = (
"26.216 554.261 LINE",
"26.216 489.792 LINE",
"111.665 489.792 LINE",
"111.665 76.38 LINE",
"38.486 65.902 LINE",
"38.486 0 LINE",
"364.147 0 LINE",
"364.147 65.902 LINE",
"281.318 77.118 LINE",
"282.057 286.837 LINE",
"556.718 286.837 LINE",
"555.98 77.38 LINE",
"480.367 65.641 LINE",
"480.367 0 LINE",
"801.245 0 LINE",
"801.245 65.641 LINE",
"727.371 76.641 LINE",
"727.371 489.792 LINE",
"823.641 489.792 LINE",
"823.641 554.261 LINE",
"727.371 554.261 LINE",
"727.371 660.188 LINE",
"801.245 673.404 LINE",
"801.245 743.261 LINE",
"481.106 743.261 LINE",
"481.106 673.404 LINE",
"556.718 659.449 LINE",
"556.718 554.261 LINE",
"282.057 554.261 LINE",
"282.057 660.188 LINE",
"363.886 673.404 LINE",
"363.886 743.261 LINE",
"40.008 743.261 LINE",
"40.008 673.404 LINE",
"111.665 660.188 LINE",
"111.665 554.261 LINE"
);
},
{
closed = 1;
nodes = (
"556.718 371.082 LINE",
"282.057 371.082 LINE",
"282.057 489.792 LINE",
"556.718 489.792 LINE"
);
}
);
width = 838.77551;
}
);
leftKerningGroup = H;
rightKerningGroup = H;
unicode = 0126;
},
{
glyphname = I;
lastChange = "2019-03-14 17:33:19 +0000";
layers = (
{
anchors = (
{
name = bottom;
position = "{197, 0}";
},
{
name = mark0;
position = "{198, -83}";
},
{
name = ogonek;
position = "{297, 10}";
},
{
name = top;
position = "{197, 743}";
},
{
name = topleft;
position = "{18, 743}";
}
);
layerId = UUID0;
paths = (
{
closed = 1;
nodes = (
"58 43 LINE",
"58 0 LINE",
"335 0 LINE",
"335 42 LINE",
"238 52 LINE",
"238 689 LINE",
"335 700 LINE",
"335 743 LINE",
"58 743 LINE",
"58 700 LINE",
"155 689 LINE",
"155 52 LINE"
);
}
);
width = 393;
},
{
anchors = (
{
name = bottom;
position = "{208.082, 0}";
},
{
name = mark0;
position = "{209.082, -83}";
},
{
name = ogonek;
position = "{359.057, 10}";
},
{
name = top;
position = "{208.082, 743}";
},
{
name = topleft;
position = "{18.739, 743}";
}
);
layerId = "DEBB1CE4-A72D-4960-969E-E04A036D2FA1";
paths = (
{
closed = 1;
nodes = (
"40.269 65.902 LINE",
"40.269 0 LINE",
"376.371 0 LINE",
"376.371 64.902 LINE",
"292.669 76.38 LINE",
"292.669 659.449 LINE",
"376.371 673.404 LINE",
"376.371 743 LINE",
"39.531 743 LINE",
"39.531 673.404 LINE",
"121.016 659.449 LINE",
"121.016 77.118 LINE"
);
}
);
width = 415.90204;
}
);
leftKerningGroup = I;
rightKerningGroup = I;
unicode = 0049;
},
{
glyphname = IJ_acutecomb;
lastChange = "2019-02-15 20:53:54 +0000";
layers = (
{
anchors = (
{
name = _top;
position = "{199, 743}";
},
{
name = mark0;
position = "{200, -83}";
},
{
name = ogonek;
position = "{299, 10}";
},
{
name = top;
position = "{199, 980}";
},
{
name = topleft;
position = "{20, 743}";
}
);
layerId = UUID0;
paths = (
{
closed = 1;
nodes = (
"189 823 OFFCURVE",
"284 885 OFFCURVE",
"317 929 CURVE",
"261 980 LINE",
"116 830 LINE",
"143 804 LINE"
);
},
{
closed = 1;
nodes = (
"580 823 OFFCURVE",
"675 885 OFFCURVE",
"708 929 CURVE",
"652 980 LINE",
"507 830 LINE",
"534 804 LINE"
);
},
{
closed = 1;
nodes = (
"60 43 LINE",
"60 0 LINE",
"337 0 LINE",
"337 42 LINE",
"240 52 LINE",
"240 689 LINE",
"337 700 LINE",
"337 743 LINE",
"60 743 LINE",
"60 700 LINE",
"157 689 LINE",
"157 52 LINE"
);
},
{
closed = 1;
nodes = (
"418 -173 LINE",
"504 -157 OFFCURVE",
"599 -94 OFFCURVE",
"622 21 CURVE SMOOTH",
"634 83 OFFCURVE",
"632 164 OFFCURVE",
"632 275 CURVE SMOOTH",
"632 688 LINE",
"728 700 LINE",
"728 743 LINE",
"449 743 LINE",
"449 700 LINE",
"549 688 LINE",
"549 253 LINE SMOOTH",
"549 104 OFFCURVE",
"547 48 OFFCURVE",
"529 -9 CURVE SMOOTH",
"508 -76 OFFCURVE",
"455 -121 OFFCURVE",
"396 -137 CURVE"
);
}
);
width = 772;
},
{
anchors = (
{
name = _top;
position = "{208.604, 743}";
},
{
name = mark0;
position = "{209.604, -83}";
},
{
name = ogonek;
position = "{359.58, 10}";
},
{
name = top;
position = "{208.604, 982.216}";
},
{
name = topleft;
position = "{19.261, 743}";
}
);
layerId = "DEBB1CE4-A72D-4960-969E-E04A036D2FA1";
paths = (
{
closed = 1;
nodes = (
"217.812 796.404 OFFCURVE",
"306.163 851.755 OFFCURVE",
"360.588 911.269 CURVE",
"251.396 982.216 LINE",
"113.784 828.522 LINE",
"180.678 784.792 LINE"
);
},
{
closed = 1;
nodes = (
"620.633 796.404 OFFCURVE",
"708.984 851.755 OFFCURVE",
"763.408 911.269 CURVE",
"654.216 982.216 LINE",
"516.604 828.522 LINE",
"583.498 784.792 LINE"
);
},
{
closed = 1;
nodes = (
"40.792 65.902 LINE",
"40.792 0 LINE",
"376.894 0 LINE",
"376.894 64.902 LINE",
"293.192 76.38 LINE",
"293.192 659.449 LINE",
"376.894 673.404 LINE",
"376.894 743 LINE",
"40.053 743 LINE",
"40.053 673.404 LINE",
"121.539 659.449 LINE",
"121.539 77.118 LINE"
);
},
{
closed = 1;
nodes = (
"437.208 -193.686 LINE",
"578.616 -171.037 OFFCURVE",
"668.445 -91.784 OFFCURVE",
"698.094 14.351 CURVE SMOOTH",
"710.094 60.837 OFFCURVE",
"712.527 149.224 OFFCURVE",
"712.527 275 CURVE SMOOTH",
"712.527 659.927 LINE",
"792.273 673.404 LINE",
"792.273 743 LINE",
"457.127 743 LINE",
"457.127 673.404 LINE",
"542.351 659.188 LINE",
"542.351 190.943 LINE SMOOTH",
"542.351 85.531 OFFCURVE",
"535.18 33.963 OFFCURVE",
"521.612 -6.045 CURVE SMOOTH",
"497.657 -77.478 OFFCURVE",
"445.396 -119.522 OFFCURVE",
"398.955 -135.522 CURVE"
);
}
);
width = 814.1102;
}
);
leftKerningGroup = I;
rightKerningGroup = J;
},
{
glyphname = Iogonek;
lastChange = "2019-02-15 20:53:54 +0000";
layers = (
{
layerId = UUID0;
paths = (
{
closed = 1;
nodes = (
"60 43 LINE",
"60 0 LINE",
"224 0 LINE",
"158 -30 OFFCURVE",
"92 -101 OFFCURVE",
"92 -155 CURVE SMOOTH",
"92 -226 OFFCURVE",
"153 -249 OFFCURVE",
"214 -249 CURVE SMOOTH",
"255 -249 OFFCURVE",
"299 -236 OFFCURVE",
"327 -215 CURVE",
"327 -173 LINE",
"304 -185 OFFCURVE",
"275 -193 OFFCURVE",
"249 -193 CURVE SMOOTH",
"207 -193 OFFCURVE",
"171 -176 OFFCURVE",
"171 -129 CURVE SMOOTH",
"171 -87 OFFCURVE",
"224 -28 OFFCURVE",
"286 0 CURVE",
"337 0 LINE",
"337 42 LINE",
"240 52 LINE",
"240 689 LINE",
"337 700 LINE",
"337 743 LINE",
"60 743 LINE",
"60 700 LINE",
"157 689 LINE",
"157 52 LINE"
);
}
);
width = 397;
},
{
layerId = "DEBB1CE4-A72D-4960-969E-E04A036D2FA1";
paths = (
{
closed = 1;
nodes = (
"42.269 65.902 LINE",
"42.269 0 LINE",
"240.253 0 LINE",
"160.216 -32.216 OFFCURVE",
"100.127 -92.135 OFFCURVE",
"100.127 -150.567 CURVE SMOOTH",
"100.127 -213.441 OFFCURVE",
"157.433 -250.478 OFFCURVE",
"239.118 -250.478 CURVE SMOOTH",
"280.118 -250.478 OFFCURVE",
"335.939 -238.955 OFFCURVE",
"363.939 -217.955 CURVE",
"363.939 -147.882 LINE",
"341.678 -157.665 OFFCURVE",
"328.192 -161.233 OFFCURVE",
"304.408 -161.233 CURVE SMOOTH",
"257.237 -161.233 OFFCURVE",
"231.58 -141.278 OFFCURVE",
"231.58 -107.576 CURVE SMOOTH",
"231.58 -73.702 OFFCURVE",
"273.498 -23.567 OFFCURVE",
"336.237 0 CURVE",
"378.371 0 LINE",
"378.371 64.902 LINE",
"294.669 76.38 LINE",
"294.669 659.449 LINE",
"378.371 673.404 LINE",
"378.371 743 LINE",
"41.531 743 LINE",
"41.531 673.404 LINE",
"123.016 659.449 LINE",
"123.016 77.118 LINE"
);
}
);
width = 417.68571;
}
);
leftKerningGroup = I;
rightKerningGroup = I;
unicode = 012E;
},
{
glyphname = J;
lastChange = "2019-04-03 17:00:49 +0000";
layers = (
{
anchors = (
{
name = mark0;
position = "{144, -83}";
},
{
name = top;
position = "{191, 743}";
}
);
layerId = UUID0;
paths = (
{
closed = 1;
nodes = (
"21 -173 LINE",
"107 -157 OFFCURVE",
"202 -94 OFFCURVE",
"225 21 CURVE SMOOTH",
"237 83 OFFCURVE",
"235 164 OFFCURVE",
"235 275 CURVE SMOOTH",
"235 688 LINE",
"331 700 LINE",
"331 743 LINE",
"52 743 LINE",
"52 700 LINE",
"152 688 LINE",
"152 253 LINE SMOOTH",
"152 104 OFFCURVE",
"150 48 OFFCURVE",
"132 -9 CURVE SMOOTH",
"111 -76 OFFCURVE",
"58 -121 OFFCURVE",
"-1 -137 CURVE"
);
}
);
width = 375;
},
{
anchors = (
{
name = mark0;
position = "{162.469, -83}";
},
{
name = top;
position = "{206.514, 743}";
}
);
layerId = "DEBB1CE4-A72D-4960-969E-E04A036D2FA1";
paths = (
{
closed = 1;
nodes = (
"20.261 -193.686 LINE",
"161.669 -171.037 OFFCURVE",
"251.498 -91.784 OFFCURVE",
"281.147 14.351 CURVE SMOOTH",
"293.147 60.837 OFFCURVE",
"295.58 149.224 OFFCURVE",
"295.58 275 CURVE SMOOTH",
"295.58 659.927 LINE",
"375.327 673.404 LINE",
"375.327 743 LINE",
"40.18 743 LINE",
"40.18 673.404 LINE",
"125.404 659.188 LINE",
"125.404 190.943 LINE SMOOTH",
"125.404 85.531 OFFCURVE",
"118.233 33.963 OFFCURVE",
"104.665 -6.045 CURVE SMOOTH",
"80.71 -77.478 OFFCURVE",
"28.449 -119.522 OFFCURVE",
"-17.992 -135.522 CURVE"
);
}
);
width = 397.16327;
}
);
leftKerningGroup = J;
rightKerningGroup = J;
unicode = 004A;
},
{
glyphname = K;
lastChange = "2019-02-15 20:53:54 +0000";
layers = (
{
anchors = (
{
name = bottom;
position = "{389, 0}";
},
{
name = mark0;
position = "{385, -83}";
},
{
name = top;
position = "{378, 743}";
}
);
layerId = UUID0;
paths = (
{
closed = 1;
nodes = (
"713 0 LINE",
"713 42 LINE",
"666 53 LINE",
"625 58 OFFCURVE",
"479 345 OFFCURVE",
"378 432 CURVE",
"608 689 LINE",
"681 700 LINE",
"681 743 LINE",
"449 743 LINE",
"449 700 LINE",
"534 689 LINE",
"221 325 LINE",
"221 689 LINE",
"307 700 LINE",
"307 743 LINE",
"55 743 LINE",
"55 700 LINE",
"139 689 LINE",
"139 52 LINE",
"53 43 LINE",
"53 0 LINE",
"315 0 LINE",
"315 42 LINE",
"221 52 LINE",
"221 254 LINE",
"330 377 LINE",
"423 282 OFFCURVE",
"541 0 OFFCURVE",
"593 0 CURVE"
);
}
);
width = 714;
},
{
anchors = (
{
name = bottom;
position = "{415.596, 0}";
},
{
name = mark0;
position = "{390.171, -79.306}";
},
{
name = top;
position = "{406.073, 741.522}";
}
);
layerId = "DEBB1CE4-A72D-4960-969E-E04A036D2FA1";
paths = (
{
closed = 1;
nodes = (
"763.237 0 LINE",
"763.237 65.641 LINE",
"715.498 76.641 LINE",
"677.453 98.633 OFFCURVE",
"555.833 371.596 OFFCURVE",
"462.22 456.38 CURVE",
"641.984 660.188 LINE",
"729.759 674.143 LINE",
"729.759 743 LINE",
"444.567 743 LINE",
"444.567 673.404 LINE",
"525.873 659.449 LINE",
"282.318 347.902 LINE",
"282.318 659.449 LINE",
"355.759 673.404 LINE",
"355.759 743 LINE",
"35.053 743 LINE",
"35.053 673.404 LINE",
"111.665 659.449 LINE",
"111.665 77.118 LINE",
"34.531 65.902 LINE",
"34.531 0 LINE",
"365.237 0 LINE",
"365.237 65.641 LINE",
"282.318 76.38 LINE",
"282.318 245.873 LINE",
"362.506 339.322 LINE",
"434.82 242.845 OFFCURVE",
"522.531 0 OFFCURVE",
"561.233 0 CURVE"
);
}
);
width = 758.32653;
}
);
leftKerningGroup = H;
rightKerningGroup = K;
unicode = 004B;
},
{
glyphname = L;
lastChange = "2019-02-15 20:53:54 +0000";
layers = (
{
anchors = (
{
name = bottom;
position = "{316, 0}";
},
{
name = center;
position = "{316, 372}";
},
{
name = mark0;
position = "{339, -83}";
},
{
name = top;
position = "{181, 743}";
},
{
name = topright;
position = "{454, 555}";
}
);
layerId = UUID0;
paths = (
{
closed = 1;
nodes = (
"53 43 LINE",
"53 0 LINE",
"573 0 LINE",
"610 208 LINE",
"562 216 LINE",
"506 60 LINE",
"221 52 LINE",
"221 689 LINE",
"321 700 LINE",
"321 743 LINE",
"55 743 LINE",
"55 700 LINE",
"139 689 LINE",
"139 52 LINE"
);
}
);
width = 631;
},
{
anchors = (
{
name = bottom;
position = "{335.208, 0}";
},
{
name = center;
position = "{320.433, 372}";
},
{
name = mark0;
position = "{344.171, -83}";
},
{
name = top;
position = "{203.902, 743}";
},
{
name = topright;
position = "{494.633, 555.739}";
}
);
layerId = "DEBB1CE4-A72D-4960-969E-E04A036D2FA1";
paths = (
{
closed = 1;
nodes = (
"35.269 65.902 LINE",
"35.269 0 LINE",
"601.073 0 LINE",
"629.947 273.751 LINE",
"536.143 286.184 LINE",
"470.539 88.073 LINE",
"283.057 77.857 LINE",
"283.057 659.449 LINE",
"377.886 673.404 LINE",
"377.886 743 LINE",
"36.531 743 LINE",
"36.531 673.404 LINE",
"111.665 659.449 LINE",
"111.665 76.38 LINE"
);
}
);
width = 640.60408;
}
);
leftKerningGroup = H;
rightKerningGroup = L;
unicode = 004C;
},
{
glyphname = Ldot;
lastChange = "2019-02-15 20:53:54 +0000";
layers = (
{
anchors = (
{
name = mark0;
position = "{339, -83}";
}
);
layerId = UUID0;
paths = (
{
closed = 1;
nodes = (
"53 43 LINE",
"53 0 LINE",
"573 0 LINE",
"610 208 LINE",
"562 216 LINE",
"506 60 LINE",
"221 52 LINE",
"221 689 LINE",
"321 700 LINE",
"321 743 LINE",
"55 743 LINE",
"55 700 LINE",
"139 689 LINE",
"139 52 LINE"
);
},
{
closed = 1;
nodes = (
"632 328 OFFCURVE",
"663 355 OFFCURVE",
"663 394 CURVE SMOOTH",
"663 423 OFFCURVE",
"647 450 OFFCURVE",
"609 450 CURVE SMOOTH",
"576 450 OFFCURVE",
"544 422 OFFCURVE",
"544 384 CURVE SMOOTH",
"544 350 OFFCURVE",
"569 328 OFFCURVE",
"599 328 CURVE SMOOTH"
);
}
);
width = 693;
},
{
anchors = (
{
name = mark0;
position = "{344.171, -83}";
}
);
layerId = "DEBB1CE4-A72D-4960-969E-E04A036D2FA1";
paths = (
{
closed = 1;
nodes = (
"35.269 65.902 LINE",
"35.269 0 LINE",
"601.073 0 LINE",
"629.947 273.751 LINE",
"536.143 286.184 LINE",
"470.539 88.073 LINE",
"283.057 77.857 LINE",
"283.057 659.449 LINE",
"377.886 673.404 LINE",
"377.886 743 LINE",
"36.531 743 LINE",
"36.531 673.404 LINE",
"111.665 659.449 LINE",
"111.665 76.38 LINE"
);
},
{
closed = 1;
nodes = (
"719.914 346.469 OFFCURVE",
"762.735 379.38 OFFCURVE",
"762.735 436.849 CURVE SMOOTH",
"762.735 479.886 OFFCURVE",
"730.482 520.922 OFFCURVE",
"674.751 520.922 CURVE SMOOTH",
"619.588 520.922 OFFCURVE",
"574.29 484.057 OFFCURVE",
"574.29 429.804 CURVE SMOOTH",
"574.29 381.029 OFFCURVE",
"615.543 346.469 OFFCURVE",
"659.58 346.469 CURVE SMOOTH"
);
}
);
width = 780.17551;
}
);
leftKerningGroup = H;
rightKerningGroup = anoteleia;
unicode = 013F;
},
{
glyphname = Lslash;
lastChange = "2019-02-15 20:53:54 +0000";
layers = (
{
layerId = UUID0;
paths = (
{
closed = 1;
nodes = (
"25 378 LINE",
"25 317 LINE",
"172 380 LINE",
"139 412 LINE",
"139 52 LINE",
"53 43 LINE",
"53 0 LINE",
"573 0 LINE",
"610 208 LINE",
"562 216 LINE",
"506 60 LINE",
"221 52 LINE",
"221 446 LINE",
"188 386 LINE",
"430 492 LINE",
"430 556 LINE",
"189 449 LINE",
"221 427 LINE",
"221 689 LINE",
"321 700 LINE",
"321 743 LINE",
"55 743 LINE",
"55 700 LINE",
"139 689 LINE",
"139 392 LINE",
"172 442 LINE"
);
}
);
width = 633;
},
{
layerId = "DEBB1CE4-A72D-4960-969E-E04A036D2FA1";
paths = (
{
closed = 1;
nodes = (
"22.045 381.694 LINE",
"22.045 306.657 LINE",
"183.082 369.657 LINE",
"111.665 421.604 LINE",
"111.665 76.38 LINE",
"35.269 65.902 LINE",
"35.269 0 LINE",
"601.073 0 LINE",
"629.947 273.751 LINE",
"536.143 286.184 LINE",
"470.539 88.073 LINE",
"283.057 77.857 LINE",
"283.057 486.633 LINE",
"211.641 379.351 LINE",
"452.902 476.486 LINE",
"452.902 556.739 LINE",
"212.641 457.127 LINE",
"283.057 409.269 LINE",
"283.057 659.449 LINE",
"377.886 673.404 LINE",
"377.886 743 LINE",
"36.531 743 LINE",
"36.531 673.404 LINE",
"111.665 659.449 LINE",
"111.665 341.024 LINE",
"183.082 444.955 LINE"
);
}
);
width = 638.17143;
}
);
leftKerningGroup = H;
rightKerningGroup = L;
unicode = 0141;
},
{
glyphname = M;
lastChange = "2019-04-04 20:35:00 +0000";
layers = (
{
anchors = (
{
name = bottom;
position = "{494, 0}";
},
{
name = mark0;
position = "{486, -83}";
},
{
name = top;
position = "{494, 743}";
}
);
layerId = UUID0;
paths = (
{
closed = 1;
nodes = (
"8 43 LINE",
"8 0 LINE",
"258 0 LINE",
"258 43 LINE",
"160 52 LINE",
"201 508 LINE",
"229 708 LINE",
"288 514 LINE",
"455 36 LINE",
"497 36 LINE",
"677 570 LINE",
"721 708 LINE",
"743 508 LINE",
"789 52 LINE",
"696 43 LINE",
"696 0 LINE",
"965 0 LINE",
"965 43 LINE",
"874 53 LINE",
"795 689 LINE",
"910 700 LINE",
"910 743 LINE",
"671 743 LINE",
"519 281 LINE",
"485 147 LINE",
"448 281 LINE",
"296 743 LINE",
"56 743 LINE",
"56 700 LINE",
"173 689 LINE",
"93 52 LINE"
);
}
);
width = 973;
},
{
anchors = (
{
name = bottom;
position = "{513.947, 0}";
},
{
name = mark0;
position = "{452.016, -83}";
},
{
name = top;
position = "{513.947, 743}";
}
);
layerId = "DEBB1CE4-A72D-4960-969E-E04A036D2FA1";
paths = (
{
closed = 1;
nodes = (
"2.09 65.902 LINE",
"2.09 0 LINE",
"284.596 0 LINE",
"284.596 65.902 LINE",
"182.902 77.118 LINE",
"221.686 508 LINE",
"239.559 685.098 LINE",
"281.567 510.306 LINE",
"417.8 28.612 LINE",
"549.192 28.612 LINE",
"682.91 524.196 LINE",
"718.045 684.359 LINE",
"735.612 508 LINE",
"774.963 77.118 LINE",
"690.09 65.902 LINE",
"690.09 0 LINE",
"1027.057 0 LINE",
"1027.057 65.902 LINE",
"950.094 77.38 LINE",
"870.355 659.449 LINE",
"980.922 673.404 LINE",
"980.922 743 LINE",
"643.665 743 LINE",
"537.208 324.588 LINE",
"515.767 214.229 LINE",
"492.804 324.588 LINE",
"390.563 743 LINE",
"45.657 743 LINE",
"45.657 673.404 LINE",
"153.792 659.449 LINE",
"78.963 76.38 LINE"
);
}
);
width = 1029.14694;
}
);
leftKerningGroup = M;
rightKerningGroup = M;
unicode = 004D;
},
{
glyphname = N;
lastChange = "2019-02-15 20:53:54 +0000";
layers = (
{
anchors = (
{
name = bottom;
position = "{399, 0}";
},
{
name = mark0;
position = "{408, -83}";
},
{
name = top;
position = "{409, 743}";
}
);
layerId = UUID0;
paths = (
{
closed = 1;
nodes = (
"56 43 LINE",
"56 0 LINE",
"285 0 LINE",
"285 43 LINE",
"194 52 LINE",
"194 648 LINE",
"276 515 LINE",
"634 0 LINE",
"686 0 LINE",
"686 689 LINE",
"768 700 LINE",
"768 743 LINE",
"540 743 LINE",
"540 700 LINE",
"628 689 LINE",
"628 130 LINE",
"571 230 LINE",
"217 743 LINE",
"56 743 LINE",
"56 700 LINE",
"136 689 LINE",
"136 53 LINE"
);
}
);
width = 797;
},
{
anchors = (
{
name = bottom;
position = "{402.694, 0}";
},
{
name = mark0;
position = "{430.163, -83}";
},
{
name = top;
position = "{420.082, 743}";
}
);
layerId = "DEBB1CE4-A72D-4960-969E-E04A036D2FA1";
paths = (
{
closed = 1;
nodes = (
"34.576 65.902 LINE",
"34.576 0 LINE",
"313.073 0 LINE",
"313.073 65.902 LINE",
"207.298 77.118 LINE",
"207.298 588.898 LINE",
"273.045 456.637 LINE",
"566.033 0 LINE",
"713.335 0 LINE",
"713.335 660.188 LINE",
"788.686 673.404 LINE",
"788.686 743 LINE",
"533.351 743 LINE",
"533.351 673.404 LINE",
"618.396 660.188 LINE",
"618.396 197.229 LINE",
"562.135 317.176 LINE",
"285.706 743 LINE",
"34.576 743 LINE",
"34.576 673.404 LINE",
"113.098 660.188 LINE",
"113.098 76.641 LINE"
);
}
);
width = 805.12653;
}
);
leftKerningGroup = H;
rightKerningGroup = H;
unicode = 004E;
},
{
glyphname = Eng;
lastChange = "2019-02-15 20:53:54 +0000";
layers = (
{
layerId = UUID0;
paths = (
{
closed = 1;
nodes = (
"57 42 LINE",
"57 0 LINE",
"286 0 LINE",
"286 42 LINE",
"195 52 LINE",
"195 655 LINE",
"272 515 LINE",
"601 13 LINE",
"595 -6 OFFCURVE",
"585 -25 OFFCURVE",
"573 -42 CURVE SMOOTH",
"540 -90 OFFCURVE",
"488 -121 OFFCURVE",
"424 -135 CURVE",
"446 -170 LINE",
"512 -163 OFFCURVE",
"569 -141 OFFCURVE",
"625 -79 CURVE SMOOTH",
"660 -39 OFFCURVE",
"687 14 OFFCURVE",
"687 169 CURVE SMOOTH",
"687 689 LINE",
"768 701 LINE",
"768 743 LINE",
"544 743 LINE",
"544 701 LINE",
"629 689 LINE",
"629 95 LINE",
"553 230 LINE",
"221 743 LINE",
"57 743 LINE",
"57 701 LINE",
"137 689 LINE",
"137 52 LINE"
);
}
);
width = 784;
},
{
layerId = "DEBB1CE4-A72D-4960-969E-E04A036D2FA1";
paths = (
{
closed = 1;
nodes = (
"31.143 64.902 LINE",
"31.143 0 LINE",
"308.163 0 LINE",
"308.163 64.902 LINE",
"212.731 76.38 LINE",
"212.731 578.167 LINE",
"265.351 470.673 LINE",
"561.106 -0.298 LINE",
"555.106 -16.343 OFFCURVE",
"547.322 -31.649 OFFCURVE",
"539.016 -43.478 CURVE SMOOTH",
"508.971 -91.478 OFFCURVE",
"465.098 -129.865 OFFCURVE",
"403.314 -157.163 CURVE",
"436.396 -209.894 LINE",
"497.224 -201.416 OFFCURVE",
"563.09 -173.506 OFFCURVE",
"619.09 -111.506 CURVE SMOOTH",
"655.567 -67.812 OFFCURVE",
"714.335 2.918 OFFCURVE",
"714.335 199.29 CURVE SMOOTH",
"714.335 660.188 LINE",
"797.551 674.404 LINE",
"797.551 743 LINE",
"531.441 743 LINE",
"531.441 674.404 LINE",
"620.135 660.188 LINE",
"620.135 185.131 LINE",
"553.739 316.437 LINE",
"283.796 743 LINE",
"31.143 743 LINE",
"31.143 683.269 LINE",
"117.792 666.837 LINE",
"117.792 76.38 LINE"
);
}
);
width = 798.03673;
}
);
leftKerningGroup = H;
rightKerningGroup = H;
unicode = 014A;
},
{
glyphname = O;
lastChange = "2019-04-03 17:02:45 +0000";
layers = (
{
anchors = (
{
name = bottom;
position = "{360, 0}";
},
{
name = center;
position = "{370, 372}";
},
{
name = mark0;
position = "{355, -83}";
},
{
name = ogonek;
position = "{401, 10}";
},
{
name = top;
position = "{360, 743}";
},
{
name = topleft;
position = "{20, 743}";
},
{
name = topright;
position = "{536, 743}";
}
);
layerId = UUID0;
paths = (
{
closed = 1;
nodes = (
"537 -8 OFFCURVE",
"683 143 OFFCURVE",
"683 378 CURVE SMOOTH",
"683 603 OFFCURVE",
"572 751 OFFCURVE",
"370 751 CURVE SMOOTH",
"184 751 OFFCURVE",
"37 602 OFFCURVE",
"37 366 CURVE SMOOTH",
"37 141 OFFCURVE",
"150 -15 OFFCURVE",
"353 -11 CURVE SMOOTH"
);
},
{
closed = 1;
nodes = (
"508 704 OFFCURVE",
"590 570 OFFCURVE",
"590 378 CURVE SMOOTH",
"590 151 OFFCURVE",
"496 36 OFFCURVE",
"358 36 CURVE SMOOTH",
"211 36 OFFCURVE",
"128 175 OFFCURVE",
"128 366 CURVE SMOOTH",
"128 593 OFFCURVE",
"223 704 OFFCURVE",
"361 704 CURVE SMOOTH"
);
}
);
width = 720;
},
{
anchors = (
{
name = bottom;
position = "{365.91, 0}";
},
{
name = center;
position = "{368.522, 372}";
},
{
name = mark0;
position = "{362.388, -83}";
},
{
name = ogonek;
position = "{406.171, 10}";
},
{
name = top;
position = "{371.082, 743}";
},
{
name = topleft;
position = "{20, 743}";
},
{
name = topright;
position = "{569.984, 743}";
}
);
layerId = "DEBB1CE4-A72D-4960-969E-E04A036D2FA1";
paths = (
{
closed = 1;
nodes = (
"568.767 -9.478 OFFCURVE",
"704.424 150.388 OFFCURVE",
"704.424 383.91 CURVE SMOOTH",
"704.424 608.91 OFFCURVE",
"606.722 751.739 OFFCURVE",
"371.478 752.478 CURVE SMOOTH",
"162.576 753.216 OFFCURVE",
"26.657 603.478 OFFCURVE",
"26.657 370.433 CURVE SMOOTH",
"26.657 142.478 OFFCURVE",
"125.62 -12.784 OFFCURVE",
"361.127 -11 CURVE SMOOTH"
);
},
{
closed = 1;
nodes = (
"459.98 686.269 OFFCURVE",
"515.384 602.506 OFFCURVE",
"515.384 383.171 CURVE SMOOTH",
"515.384 168.731 OFFCURVE",
"458.322 55.947 OFFCURVE",
"364.649 55.947 CURVE SMOOTH",
"270.841 55.947 OFFCURVE",
"215.176 152.098 OFFCURVE",
"215.176 371.171 CURVE SMOOTH",
"215.176 584.873 OFFCURVE",
"271.759 686.269 OFFCURVE",
"366.171 686.269 CURVE SMOOTH"
);
}
);
width = 731.08163;
}
);
leftKerningGroup = O;
rightKerningGroup = O;
unicode = 004F;
},
{
glyphname = Ohorn;
lastChange = "2019-02-15 20:53:54 +0000";
layers = (
{
anchors = (
{
name = _topright;
position = "{536, 743}";
},
{
name = bottom;
position = "{360, 0}";
},
{
name = center;
position = "{360, 372}";
},
{
name = mark0;
position = "{355, -83}";
},
{
name = ogonek;
position = "{647, 10}";
},
{
name = top;
position = "{371, 743}";
},
{
name = topleft;
position = "{20, 743}";
},
{
name = topright;
position = "{536, 743}";
}
);
layerId = UUID0;
paths = (
{
closed = 1;
nodes = (
"537 -8 OFFCURVE",
"683 143 OFFCURVE",
"683 378 CURVE SMOOTH",
"683 603 OFFCURVE",
"572 751 OFFCURVE",
"370 751 CURVE SMOOTH",
"184 751 OFFCURVE",
"37 602 OFFCURVE",
"37 366 CURVE SMOOTH",
"37 141 OFFCURVE",
"150 -15 OFFCURVE",
"353 -11 CURVE SMOOTH"
);
},
{
closed = 1;
nodes = (
"508 704 OFFCURVE",
"590 570 OFFCURVE",
"590 378 CURVE SMOOTH",
"590 151 OFFCURVE",
"496 36 OFFCURVE",
"358 36 CURVE SMOOTH",
"211 36 OFFCURVE",
"128 175 OFFCURVE",
"128 366 CURVE SMOOTH",
"128 593 OFFCURVE",
"223 704 OFFCURVE",
"361 704 CURVE SMOOTH"
);
},
{
closed = 1;
nodes = (
"665 651 OFFCURVE",
"727 739 OFFCURVE",
"727 843 CURVE SMOOTH",
"727 850 OFFCURVE",
"726 857 OFFCURVE",
"725 865 CURVE",
"650 865 LINE",
"651 861 OFFCURVE",
"651 855 OFFCURVE",
"651 848 CURVE SMOOTH",
"651 798 OFFCURVE",
"622 704 OFFCURVE",
"526 704 CURVE",
"543 651 LINE"
);
}
);
width = 719;
},
{
anchors = (
{
name = _topright;
position = "{569.984, 743}";
},
{
name = bottom;
position = "{365.91, 0}";
},
{
name = center;
position = "{365.91, 372}";
},
{
name = mark0;
position = "{362.388, -83}";
},
{
name = ogonek;
position = "{657.343, 10}";
},
{
name = top;
position = "{373.955, 743}";
},
{
name = topleft;
position = "{20, 743}";
},
{
name = topright;
position = "{569.984, 743}";
}
);
layerId = "DEBB1CE4-A72D-4960-969E-E04A036D2FA1";
paths = (
{
closed = 1;
nodes = (
"568.767 -9.478 OFFCURVE",
"704.424 150.388 OFFCURVE",
"704.424 383.91 CURVE SMOOTH",
"704.424 608.91 OFFCURVE",
"606.722 751.739 OFFCURVE",
"371.478 752.478 CURVE SMOOTH",
"162.576 753.216 OFFCURVE",
"26.657 603.478 OFFCURVE",
"26.657 370.433 CURVE SMOOTH",
"26.657 142.478 OFFCURVE",
"125.62 -12.784 OFFCURVE",
"361.127 -11 CURVE SMOOTH"
);
},
{
closed = 1;
nodes = (
"459.98 686.269 OFFCURVE",
"515.384 602.506 OFFCURVE",
"515.384 383.171 CURVE SMOOTH",
"515.384 168.731 OFFCURVE",
"458.322 55.947 OFFCURVE",
"364.649 55.947 CURVE SMOOTH",
"270.841 55.947 OFFCURVE",
"215.176 152.098 OFFCURVE",
"215.176 371.171 CURVE SMOOTH",
"215.176 584.873 OFFCURVE",
"271.759 686.269 OFFCURVE",
"366.171 686.269 CURVE SMOOTH"
);
},
{
closed = 1;
nodes = (
"673.127 649.522 OFFCURVE",
"742.514 710.188 OFFCURVE",
"742.514 843.739 CURVE SMOOTH",
"742.514 850.739 OFFCURVE",
"741.514 858.478 OFFCURVE",
"739.776 865 CURVE",
"635.224 865 LINE",
"636.963 858.784 OFFCURVE",
"638.441 851.306 OFFCURVE",
"638.441 839.135 CURVE SMOOTH",
"638.441 796.522 OFFCURVE",
"625.694 711.388 OFFCURVE",
"530.433 711.388 CURVE",
"562.947 649.522 LINE"
);
}
);
width = 730.82041;
}
);
leftKerningGroup = O;
rightKerningGroup = O;
unicode = 01A0;
},
{
glyphname = Oslash;
lastChange = "2019-02-15 20:53:54 +0000";
layers = (
{
anchors = (
{
name = top;
position = "{371, 743}";
}
);
layerId = UUID0;
paths = (
{
closed = 1;
nodes = (
"159 -86 LINE",
"197 -99 LINE",
"241 5 LINE",
"275 -6 OFFCURVE",
"312 -12 OFFCURVE",
"353 -11 CURVE SMOOTH",
"538 -8 OFFCURVE",
"683 143 OFFCURVE",
"683 378 CURVE SMOOTH",
"683 541 OFFCURVE",
"625 664 OFFCURVE",
"515 719 CURVE",
"556 819 LINE",
"518 833 LINE",
"479 734 LINE",
"446 745 OFFCURVE",
"410 751 OFFCURVE",
"370 751 CURVE SMOOTH",
"185 751 OFFCURVE",
"37 602 OFFCURVE",
"37 366 CURVE SMOOTH",
"37 204 OFFCURVE",
"96 78 OFFCURVE",
"205 21 CURVE"
);
},
{
closed = 1;
nodes = (
"397 704 OFFCURVE",
"429 696 OFFCURVE",
"456 682 CURVE",
"231 82 LINE",
"164 137 OFFCURVE",
"128 240 OFFCURVE",
"128 366 CURVE SMOOTH",
"128 593 OFFCURVE",
"223 704 OFFCURVE",
"362 704 CURVE SMOOTH"
);
},
{
closed = 1;
nodes = (
"591 151 OFFCURVE",
"496 36 OFFCURVE",
"359 36 CURVE SMOOTH",
"323 36 OFFCURVE",
"292 44 OFFCURVE",
"264 59 CURVE",
"490 659 LINE",
"555 604 OFFCURVE",
"591 503 OFFCURVE",
"591 378 CURVE SMOOTH"
);
}
);
width = 720;
},
{
anchors = (
{
name = top;
position = "{369.522, 743}";
}
);
layerId = "DEBB1CE4-A72D-4960-969E-E04A036D2FA1";
paths = (
{
closed = 1;
nodes = (
"133.882 -94.865 LINE",
"210.298 -115.992 LINE",
"259.469 -0.171 LINE",
"289.776 -7.478 OFFCURVE",
"323.82 -11.261 OFFCURVE",
"361.127 -11 CURVE SMOOTH",
"569.029 -9.478 OFFCURVE",
"704.424 150.388 OFFCURVE",
"704.424 383.91 CURVE SMOOTH",
"704.424 542.478 OFFCURVE",
"656.029 661.045 OFFCURVE",
"543.812 716.784 CURVE",
"588.506 831.559 LINE",
"517.261 852.947 LINE",
"473.829 741.388 LINE",
"442.306 748.694 OFFCURVE",
"408.522 752.478 OFFCURVE",
"371.478 752.478 CURVE SMOOTH",
"162.837 753.216 OFFCURVE",
"26.657 603.478 OFFCURVE",
"26.657 370.433 CURVE SMOOTH",
"26.657 209.91 OFFCURVE",
"75.314 86.127 OFFCURVE",
"185.792 26.91 CURVE"
);
},
{
closed = 1;
nodes = (
"397 686.269 OFFCURVE",
"423.829 676.053 OFFCURVE",
"444.918 653.927 CURVE",
"253.902 155.878 LINE",
"228.273 204.967 OFFCURVE",
"215.176 278.416 OFFCURVE",
"215.176 371.171 CURVE SMOOTH",
"215.176 584.873 OFFCURVE",
"271.759 686.269 OFFCURVE",
"366.433 686.269 CURVE SMOOTH"
);
},
{
closed = 1;
nodes = (
"515.645 168.731 OFFCURVE",
"458.322 55.947 OFFCURVE",
"364.91 55.947 CURVE SMOOTH",
"332.604 55.947 OFFCURVE",
"306.037 67.641 OFFCURVE",
"283.947 93.722 CURVE",
"477.441 592.51 LINE",
"501.808 544.898 OFFCURVE",
"515.645 474.927 OFFCURVE",
"515.645 383.171 CURVE SMOOTH"
);
}
);
width = 731.08163;
}
);
leftKerningGroup = O;
rightKerningGroup = O;
unicode = 00D8;
},
{
glyphname = OE;
lastChange = "2019-02-15 20:53:54 +0000";
layers = (
{
anchors = (
{
name = mark0;
position = "{498, -83}";
}
);
layerId = UUID0;
paths = (
{
closed = 1;
nodes = (
"505 0 LINE",
"963 0 LINE",
"1001 171 LINE",
"954 184 LINE",
"896 59 LINE",
"586 49 LINE",
"586 360 LINE",
"772 357 LINE",
"784 271 LINE",
"835 271 LINE",
"835 492 LINE",
"784 492 LINE",
"772 410 LINE",
"586 407 LINE",
"586 695 LINE",
"855 690 LINE",
"882 593 LINE",
"929 593 LINE",
"915 743 LINE",
"505 743 LINE",
"505 728 LINE",
"466 747 OFFCURVE",
"421 756 OFFCURVE",
"371 755 CURVE SMOOTH",
"186 751 OFFCURVE",
"37 603 OFFCURVE",
"37 367 CURVE SMOOTH",
"37 143 OFFCURVE",
"154 -12 OFFCURVE",
"356 -8 CURVE",
"410 -6 OFFCURVE",
"460 7 OFFCURVE",
"505 32 CURVE"
);
},
{
closed = 1;
nodes = (
"211 39 OFFCURVE",
"126 187 OFFCURVE",
"126 367 CURVE SMOOTH",
"126 587 OFFCURVE",
"221 709 OFFCURVE",
"364 709 CURVE SMOOTH",
"430 709 OFFCURVE",
"474 689 OFFCURVE",
"505 659 CURVE",
"505 96 LINE",
"470 59 OFFCURVE",
"422 39 OFFCURVE",
"362 39 CURVE SMOOTH"
);
}
);
width = 1027;
},
{
anchors = (
{
name = mark0;
position = "{501.694, -83}";
}
);
layerId = "DEBB1CE4-A72D-4960-969E-E04A036D2FA1";
paths = (
{
closed = 1;
nodes = (
"479.143 0 LINE",
"996.984 0 LINE",
"1030.551 185.776 LINE",
"949.567 209.118 LINE",
"879.747 82.641 LINE",
"653.967 68.947 LINE",
"653.967 340.792 LINE",
"777.171 337.792 LINE",
"793.604 251.053 LINE",
"866.767 251.053 LINE",
"866.767 501.604 LINE",
"793.604 501.604 LINE",
"777.171 421.082 LINE",
"653.967 417.343 LINE",
"653.967 677.269 LINE",
"853.522 666.359 LINE",
"887.171 565.665 LINE",
"966.678 565.665 LINE",
"952.678 743 LINE",
"479.143 743 LINE",
"479.143 735.388 LINE",
"446.792 748.478 OFFCURVE",
"411.396 754.522 OFFCURVE",
"373.216 754.261 CURVE SMOOTH",
"157.927 752.478 OFFCURVE",
"26.657 603.739 OFFCURVE",
"26.657 370.694 CURVE SMOOTH",
"26.657 146.694 OFFCURVE",
"131.837 -9.045 OFFCURVE",
"362.649 -8 CURVE",
"404.829 -7.478 OFFCURVE",
"443.747 1.829 OFFCURVE",
"479.143 21.657 CURVE"
);
},
{
closed = 1;
nodes = (
"271.58 56.731 OFFCURVE",
"213.914 158.927 OFFCURVE",
"213.914 371.433 CURVE SMOOTH",
"213.914 581.829 OFFCURVE",
"269.02 688.314 OFFCURVE",
"365.478 688.314 CURVE SMOOTH",
"419.657 688.314 OFFCURVE",
"457.008 666.837 OFFCURVE",
"479.143 596.204 CURVE",
"479.143 170.616 LINE",
"456.702 100.371 OFFCURVE",
"419.784 56.731 OFFCURVE",
"367.171 56.731 CURVE SMOOTH"
);
}
);
width = 1039.55918;
}
);
leftKerningGroup = O;
rightKerningGroup = E;
unicode = 0152;
},
{
glyphname = P;
lastChange = "2019-02-15 20:53:54 +0000";
layers = (
{
anchors = (
{
name = bottom;
position = "{321, 0}";
},
{
name = mark0;
position = "{330, -83}";
},
{
name = top;
position = "{351, 743}";
}
);
layerId = UUID0;
paths = (
{
closed = 1;
nodes = (
"53 43 LINE",
"53 0 LINE",
"360 0 LINE",
"360 43 LINE",
"221 53 LINE",
"221 288 LINE",
"230 286 OFFCURVE",
"288 284 OFFCURVE",
"327 284 CURVE SMOOTH",
"486 284 OFFCURVE",
"613 378 OFFCURVE",
"613 540 CURVE SMOOTH",
"613 672 OFFCURVE",
"551 750 OFFCURVE",
"355 750 CURVE SMOOTH",
"268 750 OFFCURVE",
"246 743 OFFCURVE",
"180 743 CURVE SMOOTH",
"59 743 LINE",
"59 700 LINE",
"139 689 LINE",
"139 52 LINE"
);
},
{
closed = 1;
nodes = (
"221 696 LINE",
"249 696 OFFCURVE",
"282 702 OFFCURVE",
"330 702 CURVE SMOOTH",
"462 702 OFFCURVE",
"525 659 OFFCURVE",
"525 540 CURVE SMOOTH",
"525 381 OFFCURVE",
"430 333 OFFCURVE",
"329 333 CURVE SMOOTH",
"279 333 OFFCURVE",
"240 334 OFFCURVE",
"221 337 CURVE"
);
}
);
width = 641;
},
{
anchors = (
{
name = bottom;
position = "{248.6, 0}";
},
{
name = mark0;
position = "{334.433, -83}";
},
{
name = top;
position = "{371.686, 743}";
}
);
layerId = "DEBB1CE4-A72D-4960-969E-E04A036D2FA1";
paths = (
{
closed = 1;
nodes = (
"35.269 65.902 LINE",
"35.269 0 LINE",
"414.669 0 LINE",
"414.669 65.902 LINE",
"283.057 76.641 LINE",
"283.057 259.188 LINE",
"291.318 257.927 OFFCURVE",
"323.461 255.927 OFFCURVE",
"352.118 255.927 CURVE SMOOTH",
"545.102 255.927 OFFCURVE",
"652.155 356.576 OFFCURVE",
"652.155 525.963 CURVE SMOOTH",
"652.155 668.306 OFFCURVE",
"587.939 747.784 OFFCURVE",
"368.298 748.522 CURVE SMOOTH",
"291.641 749.261 OFFCURVE",
"246 743 OFFCURVE",
"200.686 743 CURVE SMOOTH",
"38.314 743 LINE",
"38.314 673.404 LINE",
"111.665 659.449 LINE",
"111.665 76.38 LINE"
);
},
{
closed = 1;
nodes = (
"282.318 676.053 LINE",
"297.759 678.269 OFFCURVE",
"310.812 682.053 OFFCURVE",
"347.731 682.053 CURVE SMOOTH",
"433.188 682.053 OFFCURVE",
"477.718 634.62 OFFCURVE",
"477.718 522.269 CURVE SMOOTH",
"477.718 369.918 OFFCURVE",
"420.396 323.396 OFFCURVE",
"348.208 323.396 CURVE SMOOTH",
"315.2 323.396 OFFCURVE",
"293.931 325.135 OFFCURVE",
"282.318 328.135 CURVE"
);
}
);
width = 668.33469;
}
);
leftKerningGroup = H;
rightKerningGroup = P;
unicode = 0050;
},
{
glyphname = Thorn;
lastChange = "2019-02-15 20:53:54 +0000";
layers = (
{
layerId = UUID0;
paths = (
{
closed = 1;
nodes = (
"50 42 LINE",
"50 0 LINE",
"325 0 LINE",
"325 42 LINE",
"216 52 LINE",
"216 175 LINE",
"248 172 OFFCURVE",
"285 171 OFFCURVE",
"342 171 CURVE SMOOTH",
"503 171 OFFCURVE",
"604 240 OFFCURVE",
"604 390 CURVE SMOOTH",
"604 521 OFFCURVE",
"518 586 OFFCURVE",
"375 586 CURVE SMOOTH",
"320 586 OFFCURVE",
"266 580 OFFCURVE",
"216 576 CURVE",
"216 690 LINE",
"306 701 LINE",
"306 744 LINE",
"52 744 LINE",
"52 701 LINE",
"135 690 LINE",
"135 52 LINE"
);
},
{
closed = 1;
nodes = (
"302 216 OFFCURVE",
"259 215 OFFCURVE",
"216 220 CURVE",
"216 528 LINE",
"246 532 OFFCURVE",
"288 537 OFFCURVE",
"333 538 CURVE SMOOTH",
"460 541 OFFCURVE",
"513 484 OFFCURVE",
"513 385 CURVE SMOOTH",
"513 259 OFFCURVE",
"438 216 OFFCURVE",
"339 216 CURVE SMOOTH"
);
}
);
width = 635;
},
{
layerId = "DEBB1CE4-A72D-4960-969E-E04A036D2FA1";
paths = (
{
closed = 1;
nodes = (
"32.269 64.902 LINE",
"32.269 0 LINE",
"384.102 0 LINE",
"384.102 64.902 LINE",
"281.751 76.38 LINE",
"281.751 166.135 LINE",
"304.886 163.873 OFFCURVE",
"344.102 159.918 OFFCURVE",
"390.759 159.918 CURVE SMOOTH",
"546.588 159.918 OFFCURVE",
"651.282 232.612 OFFCURVE",
"651.282 389.261 CURVE SMOOTH",
"651.282 523.955 OFFCURVE",
"565.282 588.216 OFFCURVE",
"419.327 588.216 CURVE SMOOTH",
"360.633 588.216 OFFCURVE",
"331.012 582.216 OFFCURVE",
"281.751 578.216 CURVE",
"281.751 659.71 LINE",
"365.102 674.404 LINE",
"364.363 743.261 LINE",
"32.053 743.261 LINE",
"32.053 674.404 LINE",
"110.62 659.71 LINE",
"110.62 76.38 LINE"
);
},
{
closed = 1;
nodes = (
"341.155 226.343 OFFCURVE",
"311.453 225.343 OFFCURVE",
"281.751 230.343 CURVE",
"281.751 510.269 LINE",
"298.453 514.269 OFFCURVE",
"327.155 517.792 OFFCURVE",
"352.947 518.053 CURVE SMOOTH",
"437.837 518.837 OFFCURVE",
"470.89 455.927 OFFCURVE",
"470.89 382.784 CURVE SMOOTH",
"470.89 283.38 OFFCURVE",
"424.702 226.343 OFFCURVE",
"364.857 226.343 CURVE SMOOTH"
);
}
);
width = 669.72245;
}
);
leftKerningGroup = H;
rightKerningGroup = D;
unicode = 00DE;
},
{
glyphname = Q;
lastChange = "2019-02-15 20:53:54 +0000";
layers = (
{
anchors = (
{
name = mark0;
position = "{358, -83}";
}
);
layerId = UUID0;
paths = (
{
closed = 1;
nodes = (
"760 -182 OFFCURVE",
"794 -172 OFFCURVE",
"816 -152 CURVE",
"806 -111 LINE",
"799 -111 OFFCURVE",
"794 -112 OFFCURVE",
"783 -112 CURVE",
"663 -112 OFFCURVE",
"626 6 OFFCURVE",
"480 16 CURVE",
"602 70 OFFCURVE",
"686 199 OFFCURVE",
"686 378 CURVE SMOOTH",
"686 603 OFFCURVE",
"575 751 OFFCURVE",
"373 751 CURVE SMOOTH",
"187 751 OFFCURVE",
"40 602 OFFCURVE",
"40 366 CURVE SMOOTH",
"40 141 OFFCURVE",
"153 -15 OFFCURVE",
"355 -11 CURVE SMOOTH",
"377 -11 OFFCURVE",
"399 -8 OFFCURVE",
"420 -3 CURVE",
"549 -25 OFFCURVE",
"592 -182 OFFCURVE",
"734 -182 CURVE SMOOTH"
);
},
{
closed = 1;
nodes = (
"214 36 OFFCURVE",
"131 175 OFFCURVE",
"131 366 CURVE SMOOTH",
"131 593 OFFCURVE",
"226 704 OFFCURVE",
"364 704 CURVE SMOOTH",
"511 704 OFFCURVE",
"593 570 OFFCURVE",
"593 378 CURVE SMOOTH",
"593 151 OFFCURVE",
"499 36 OFFCURVE",
"361 36 CURVE SMOOTH"
);
}
);
width = 725;
},
{
anchors = (
{
name = mark0;
position = "{363.171, -83}";
}
);
layerId = "DEBB1CE4-A72D-4960-969E-E04A036D2FA1";
paths = (
{
closed = 1;
nodes = (
"789.551 -184.955 OFFCURVE",
"824.29 -168.306 OFFCURVE",
"858.11 -125.404 CURVE",
"842.939 -75.539 LINE",
"833.722 -78.494 OFFCURVE",
"819.857 -80.971 OFFCURVE",
"790.388 -80.971 CURVE",
"677.037 -80.971 OFFCURVE",
"626.739 3.784 OFFCURVE",
"514.722 23.388 CURVE",
"633.767 85.514 OFFCURVE",
"705.208 219.686 OFFCURVE",
"705.208 383.91 CURVE SMOOTH",
"705.208 608.91 OFFCURVE",
"607.506 751.739 OFFCURVE",
"372.261 752.478 CURVE SMOOTH",
"163.359 753.216 OFFCURVE",
"27.441 603.478 OFFCURVE",
"27.441 370.433 CURVE SMOOTH",
"27.441 142.478 OFFCURVE",
"126.404 -12.784 OFFCURVE",
"361.649 -11 CURVE SMOOTH",
"385.865 -11 OFFCURVE",
"409.343 -8 OFFCURVE",
"431.82 -3.739 CURVE",
"545.306 -43.469 OFFCURVE",
"600.865 -184.955 OFFCURVE",
"731.045 -184.955 CURVE SMOOTH"
);
},
{
closed = 1;
nodes = (
"271.624 55.947 OFFCURVE",
"215.959 152.098 OFFCURVE",
"215.959 371.171 CURVE SMOOTH",
"215.959 584.873 OFFCURVE",
"272.543 686.269 OFFCURVE",
"366.955 686.269 CURVE SMOOTH",
"460.763 686.269 OFFCURVE",
"516.167 602.506 OFFCURVE",
"516.167 383.171 CURVE SMOOTH",
"516.167 168.731 OFFCURVE",
"459.106 55.947 OFFCURVE",
"365.433 55.947 CURVE SMOOTH"
);
}
);
width = 732.38776;
}
);
leftKerningGroup = O;
rightKerningGroup = Q;
unicode = 0051;
},
{
glyphname = R;
lastChange = "2019-02-15 20:53:54 +0000";
layers = (
{
anchors = (
{
name = bottom;
position = "{377, 0}";
},
{
name = mark0;
position = "{371, -83}";
},
{
name = top;
position = "{347, 743}";
}
);
layerId = UUID0;
paths = (
{
closed = 1;
nodes = (
"321 0 LINE",
"321 43 LINE",
"218 52 LINE",
"218 331 LINE",
"237 330 OFFCURVE",
"328 330 OFFCURVE",
"359 330 CURVE",
"435 293 OFFCURVE",
"525 0 OFFCURVE",
"575 0 CURVE SMOOTH",
"689 0 LINE",
"689 42 LINE",
"647 53 LINE",
"598 64 OFFCURVE",
"517 297 OFFCURVE",
"441 344 CURVE",
"536 372 OFFCURVE",
"591 461 OFFCURVE",
"591 555 CURVE SMOOTH",
"591 679 OFFCURVE",
"526 751 OFFCURVE",
"338 751 CURVE SMOOTH",
"302 751 OFFCURVE",
"250 743 OFFCURVE",
"178 743 CURVE SMOOTH",
"56 743 LINE",
"56 702 LINE",
"136 690 LINE",
"136 52 LINE",
"50 43 LINE",
"50 0 LINE"
);
},
{
closed = 1;
nodes = (
"329 379 OFFCURVE",
"253 378 OFFCURVE",
"218 380 CURVE",
"218 696 LINE",
"253 698 OFFCURVE",
"290 702 OFFCURVE",
"318 702 CURVE SMOOTH",
"463 702 OFFCURVE",
"504 637 OFFCURVE",
"504 548 CURVE SMOOTH",
"504 434 OFFCURVE",
"442 379 OFFCURVE",
"353 379 CURVE SMOOTH"
);
}
);
width = 693;
},
{
anchors = (
{
name = bottom;
position = "{408.029, 0}";
},
{
name = mark0;
position = "{378.388, -83}";
},
{
name = top;
position = "{366.208, 743}";
}
);
layerId = "DEBB1CE4-A72D-4960-969E-E04A036D2FA1";
paths = (
{
closed = 1;
nodes = (
"371.237 0 LINE",
"371.237 65.902 LINE",
"282.273 76.38 LINE",
"282.273 316.224 LINE",
"304.967 315.963 OFFCURVE",
"345.731 315.963 OFFCURVE",
"371.559 315.963 CURVE",
"446.82 288.567 OFFCURVE",
"497.665 0 OFFCURVE",
"546.927 0 CURVE SMOOTH",
"736.282 0 LINE",
"736.282 65.641 LINE",
"707.58 75.163 LINE",
"660.057 86.902 OFFCURVE",
"623.384 301.433 OFFCURVE",
"508.229 343.261 CURVE",
"607.661 374.216 OFFCURVE",
"650.102 469.127 OFFCURVE",
"650.102 550.567 CURVE SMOOTH",
"650.102 689.343 OFFCURVE",
"574.02 749.522 OFFCURVE",
"363.118 749.522 CURVE SMOOTH",
"296.829 749.522 OFFCURVE",
"255.171 743 OFFCURVE",
"192.037 743 CURVE SMOOTH",
"37.531 743 LINE",
"37.531 673.927 LINE",
"110.882 659.71 LINE",
"110.882 76.38 LINE",
"34.486 65.902 LINE",
"34.486 0 LINE"
);
},
{
closed = 1;
nodes = (
"343.776 381.216 OFFCURVE",
"297.327 380.216 OFFCURVE",
"282.273 383.694 CURVE",
"282.273 678.269 LINE",
"296.588 680.269 OFFCURVE",
"317.335 682.792 OFFCURVE",
"345.335 682.792 CURVE SMOOTH",
"436.404 682.792 OFFCURVE",
"470.016 638.478 OFFCURVE",
"470.016 544.306 CURVE SMOOTH",
"470.016 431.784 OFFCURVE",
"427.224 381.216 OFFCURVE",
"358.91 381.216 CURVE SMOOTH"
);
}
);
width = 731.41633;
}
);
leftKerningGroup = H;
rightKerningGroup = R;
unicode = 0052;
},
{
glyphname = S;
lastChange = "2019-02-15 20:53:54 +0000";
layers = (
{
anchors = (
{
name = bottom;
position = "{294, 0}";
},
{
name = mark0;
position = "{293, -83}";
},
{
name = top;
position = "{324, 743}";
}
);
layerId = UUID0;
paths = (
{
closed = 1;
nodes = (
"451 -11 OFFCURVE",
"545 96 OFFCURVE",
"545 199 CURVE SMOOTH",
"545 319 OFFCURVE",
"429 370 OFFCURVE",
"331 417 CURVE SMOOTH",
"226 466 OFFCURVE",
"154 497 OFFCURVE",
"154 583 CURVE SMOOTH",
"154 664 OFFCURVE",
"208 704 OFFCURVE",
"306 704 CURVE SMOOTH",
"363 704 OFFCURVE",
"412 687 OFFCURVE",
"426 675 CURVE",
"444 551 LINE",
"494 551 LINE",
"500 715 LINE",
"471 720 OFFCURVE",
"400 751 OFFCURVE",
"311 751 CURVE SMOOTH",
"172 751 OFFCURVE",
"75 675 OFFCURVE",
"75 563 CURVE SMOOTH",
"75 434 OFFCURVE",
"196 380 OFFCURVE",
"279 344 CURVE SMOOTH",
"380 301 OFFCURVE",
"458 265 OFFCURVE",
"458 177 CURVE SMOOTH",
"458 92 OFFCURVE",
"401 38 OFFCURVE",
"291 38 CURVE SMOOTH",
"222 38 OFFCURVE",
"163 60 OFFCURVE",
"140 82 CURVE",
"125 213 LINE",
"73 213 LINE",
"65 35 LINE",
"96 32 OFFCURVE",
"173 -11 OFFCURVE",
"286 -11 CURVE SMOOTH"
);
}
);
width = 588;
},
{
anchors = (
{
name = bottom;
position = "{304.343, 0}";
},
{
name = mark0;
position = "{301.865, -83}";
},
{
name = top;
position = "{334.343, 743}";
}
);
layerId = "DEBB1CE4-A72D-4960-969E-E04A036D2FA1";
paths = (
{
closed = 1;
nodes = (
"524.139 -11 OFFCURVE",
"585.633 115.947 OFFCURVE",
"585.633 213.776 CURVE SMOOTH",
"585.633 335.992 OFFCURVE",
"477.759 394.38 OFFCURVE",
"398.229 432.514 CURVE SMOOTH",
"303.571 479.298 OFFCURVE",
"219.751 516.208 OFFCURVE",
"219.751 592.604 CURVE SMOOTH",
"219.751 643.314 OFFCURVE",
"251.588 685.531 OFFCURVE",
"329.641 685.531 CURVE SMOOTH",
"374.082 685.531 OFFCURVE",
"408.306 672.224 OFFCURVE",
"416.396 661.702 CURVE",
"438.829 539.18 LINE",
"530.2 539.18 LINE",
"536.2 717.216 LINE",
"507.2 719.261 OFFCURVE",
"437.678 752.478 OFFCURVE",
"322.082 752.478 CURVE SMOOTH",
"138.755 752.478 OFFCURVE",
"58.008 655.053 OFFCURVE",
"58.008 548.224 CURVE SMOOTH",
"58.008 409.62 OFFCURVE",
"170.143 345.278 OFFCURVE",
"246.494 310.016 CURVE SMOOTH",
"348.971 262.584 OFFCURVE",
"414.412 228.061 OFFCURVE",
"414.412 160.008 CURVE SMOOTH",
"414.412 98.649 OFFCURVE",
"375.882 58.686 OFFCURVE",
"292.478 58.686 CURVE SMOOTH",
"233.82 58.686 OFFCURVE",
"194.029 76.253 OFFCURVE",
"180.633 92.343 CURVE",
"156.029 219.649 LINE",
"62.657 219.649 LINE",
"53.918 32.784 LINE",
"87.135 30.522 OFFCURVE",
"178.171 -11 OFFCURVE",
"300.776 -11 CURVE SMOOTH"
);
}
);
width = 608.68571;
}
);
leftKerningGroup = S;
rightKerningGroup = S;
unicode = 0053;
},
{
glyphname = Scedilla;
lastChange = "2019-02-15 20:53:54 +0000";
layers = (
{
anchors = (
{
name = _bottom;
position = "{294, 0}";
},
{
name = bottom;
position = "{294, -235}";
},
{
name = mark0;
position = "{293, -83}";
}
);
layerId = UUID0;
paths = (
{
closed = 1;
nodes = (
"95.426 32.056 OFFCURVE",
"170.166 -9.422 OFFCURVE",
"279.764 -10.956 CURVE",
"290.777 -30.387 OFFCURVE",
"307 -66.167 OFFCURVE",
"307 -100 CURVE SMOOTH",
"307 -161 OFFCURVE",
"280 -171 OFFCURVE",
"231 -171 CURVE SMOOTH",
"221 -171 OFFCURVE",
"199 -168 OFFCURVE",
"185 -163 CURVE",
"184 -222 LINE",
"202 -229 OFFCURVE",
"232 -235 OFFCURVE",
"255 -235 CURVE SMOOTH",
"330 -235 OFFCURVE",
"374 -211 OFFCURVE",
"377 -143 CURVE SMOOTH",
"379.621 -87.961 OFFCURVE",
"345.607 -34.449 OFFCURVE",
"322.966 -9.135 CURVE",
"464.965 5.512 OFFCURVE",
"545 103.959 OFFCURVE",
"545 199 CURVE SMOOTH",
"545 319 OFFCURVE",
"429 370 OFFCURVE",
"331 417 CURVE SMOOTH",
"226 466 OFFCURVE",
"154 497 OFFCURVE",
"154 583 CURVE SMOOTH",
"154 664 OFFCURVE",
"208 704 OFFCURVE",
"306 704 CURVE SMOOTH",
"363 704 OFFCURVE",
"412 687 OFFCURVE",
"426 675 CURVE",
"444 551 LINE",
"494 551 LINE",
"500 715 LINE",
"471 720 OFFCURVE",
"400 751 OFFCURVE",
"311 751 CURVE SMOOTH",
"172 751 OFFCURVE",
"75 675 OFFCURVE",
"75 563 CURVE SMOOTH",
"75 434 OFFCURVE",
"196 380 OFFCURVE",
"279 344 CURVE SMOOTH",
"380 301 OFFCURVE",
"458 265 OFFCURVE",
"458 177 CURVE SMOOTH",
"458 92 OFFCURVE",
"401 38 OFFCURVE",
"291 38 CURVE SMOOTH",
"222 38 OFFCURVE",
"163 60 OFFCURVE",
"140 82 CURVE",
"125 213 LINE",
"73 213 LINE",
"65 35 LINE"
);
}
);
width = 588;
},
{
anchors = (
{
name = _bottom;
position = "{304.343, 0}";
},
{
name = bottom;
position = "{304.343, -256.424}";
},
{
name = mark0;
position = "{301.865, -83}";
}
);
layerId = "DEBB1CE4-A72D-4960-969E-E04A036D2FA1";
paths = (
{
closed = 1;
nodes = (
"85.048 30.651 OFFCURVE",
"166.766 -6.088 OFFCURVE",
"278.02 -10.475 CURVE",
"288.733 -29.187 OFFCURVE",
"301.829 -59.623 OFFCURVE",
"301.829 -87.441 CURVE SMOOTH",
"301.829 -149.18 OFFCURVE",
"277.784 -156.224 OFFCURVE",
"232.478 -156.224 CURVE SMOOTH",
"224.694 -156.224 OFFCURVE",
"204.91 -153.963 OFFCURVE",
"190.91 -149.702 CURVE",
"190.649 -241.947 LINE",
"207.91 -249.686 OFFCURVE",
"238.649 -256.424 OFFCURVE",
"261.649 -256.424 CURVE SMOOTH",
"353.641 -256.424 OFFCURVE",
"406.506 -230.208 OFFCURVE",
"410.984 -144.478 CURVE SMOOTH",
"414.148 -86.712 OFFCURVE",
"377.58 -34.547 OFFCURVE",
"353.09 -8.472 CURVE",
"533.761 9.829 OFFCURVE",
"585.633 124.014 OFFCURVE",
"585.633 213.776 CURVE SMOOTH",
"585.633 335.992 OFFCURVE",
"477.759 394.38 OFFCURVE",
"398.229 432.514 CURVE SMOOTH",
"303.571 479.298 OFFCURVE",
"219.751 516.208 OFFCURVE",
"219.751 592.604 CURVE SMOOTH",
"219.751 643.314 OFFCURVE",
"251.588 685.531 OFFCURVE",
"329.641 685.531 CURVE SMOOTH",
"374.082 685.531 OFFCURVE",
"408.306 672.224 OFFCURVE",
"416.396 661.702 CURVE",
"438.829 539.18 LINE",
"530.2 539.18 LINE",
"536.2 717.216 LINE",
"507.2 719.261 OFFCURVE",
"437.678 752.478 OFFCURVE",
"322.082 752.478 CURVE SMOOTH",
"138.755 752.478 OFFCURVE",
"58.008 655.053 OFFCURVE",
"58.008 548.224 CURVE SMOOTH",
"58.008 409.62 OFFCURVE",
"170.143 345.278 OFFCURVE",
"246.494 310.016 CURVE SMOOTH",
"348.971 262.584 OFFCURVE",
"414.412 228.061 OFFCURVE",
"414.412 160.008 CURVE SMOOTH",
"414.412 98.649 OFFCURVE",
"375.882 58.686 OFFCURVE",
"292.478 58.686 CURVE SMOOTH",
"233.82 58.686 OFFCURVE",
"194.029 76.253 OFFCURVE",
"180.633 92.343 CURVE",
"156.029 219.649 LINE",
"62.657 219.649 LINE",
"53.918 32.784 LINE"
);
}
);
width = 608.68571;
}
);
leftKerningGroup = S;
rightKerningGroup = S;
unicode = 015E;
},
{
glyphname = Germandbls;
lastChange = "2019-02-15 20:53:54 +0000";
layers = (
{
layerId = UUID0;
paths = (
{
closed = 1;
nodes = (
"20 0 LINE",
"166 0 LINE",
"166 463 LINE SMOOTH",
"166 615 OFFCURVE",
"260 705 OFFCURVE",
"371 705 CURVE SMOOTH",
"461 705 OFFCURVE",
"504 672 OFFCURVE",
"523 652 CURVE",
"389 426 LINE",
"389 406 LINE",
"453 376 OFFCURVE",
"612 308 OFFCURVE",
"612 189 CURVE SMOOTH",
"612 77 OFFCURVE",
"555 36 OFFCURVE",
"487 36 CURVE SMOOTH",
"439 36 OFFCURVE",
"390 52 OFFCURVE",
"374 74 CURVE",
"357 200 LINE",
"306 200 LINE",
"300 30 LINE",
"327 27 OFFCURVE",
"392 -11 OFFCURVE",
"482 -11 CURVE SMOOTH",
"611 -11 OFFCURVE",
"693 85 OFFCURVE",
"693 207 CURVE SMOOTH",
"693 354 OFFCURVE",
"559 409 OFFCURVE",
"473 457 CURVE",
"601 661 LINE",
"601 696 LINE",
"548 728 OFFCURVE",
"487 751 OFFCURVE",
"396 751 CURVE SMOOTH",
"220 751 OFFCURVE",
"82 616 OFFCURVE",
"82 445 CURVE SMOOTH",
"82 52 LINE",
"20 42 LINE"
);
}
);
width = 717;
},
{
layerId = "DEBB1CE4-A72D-4960-969E-E04A036D2FA1";
paths = (
{
closed = 1;
nodes = (
"9.657 0 LINE",
"230.273 0 LINE",
"230.273 457.829 LINE SMOOTH",
"230.273 600.963 OFFCURVE",
"291.767 686.531 OFFCURVE",
"401.29 686.531 CURVE SMOOTH",
"454.351 686.531 OFFCURVE",
"485.531 671.261 OFFCURVE",
"507.486 654.216 CURVE",
"373.486 478.453 LINE",
"373.486 398.612 LINE",
"461.127 370.829 OFFCURVE",
"569.89 290.269 OFFCURVE",
"569.89 200.082 CURVE SMOOTH",
"569.89 91.776 OFFCURVE",
"532.837 55.947 OFFCURVE",
"489.216 55.947 CURVE SMOOTH",
"461.902 55.947 OFFCURVE",
"434.327 65.298 OFFCURVE",
"423.498 81.388 CURVE",
"399.11 206.649 LINE",
"317.082 206.649 LINE",
"312.559 28.522 LINE",
"346.947 27 OFFCURVE",
"395.694 -11.739 OFFCURVE",
"496.776 -11.739 CURVE SMOOTH",
"656.065 -11.739 OFFCURVE",
"743.237 84.261 OFFCURVE",
"743.237 223.253 CURVE SMOOTH",
"743.237 378.38 OFFCURVE",
"593.722 437.812 OFFCURVE",
"508.461 469.559 CURVE",
"650.498 639.576 LINE",
"651.237 706.343 LINE",
"602.669 721.351 OFFCURVE",
"543.147 752.478 OFFCURVE",
"420.38 752.478 CURVE SMOOTH",
"201.531 752.478 OFFCURVE",
"63.531 635.208 OFFCURVE",
"63.531 443.522 CURVE SMOOTH",
"63.531 76.38 LINE",
"9.657 65.641 LINE"
);
}
);
width = 746.55102;
}
);
leftKerningGroup = S;
rightKerningGroup = S;
unicode = 1E9E;
},
{
glyphname = Schwa;
lastChange = "2019-02-15 20:53:54 +0000";
layers = (
{
layerId = UUID0;
paths = (
{
closed = 1;
nodes = (
"482 -11 OFFCURVE",
"620 146 OFFCURVE",
"620 376 CURVE SMOOTH",
"620 599 OFFCURVE",
"505 751 OFFCURVE",
"324 751 CURVE SMOOTH",
"185 751 OFFCURVE",
"127 715 OFFCURVE",
"71 712 CURVE",
"65 569 LINE",
"118 569 LINE",
"136 649 LINE",
"165 673 OFFCURVE",
"213 702 OFFCURVE",
"308 702 CURVE SMOOTH",
"437 702 OFFCURVE",
"528 582 OFFCURVE",
"536 381 CURVE",
"53 381 LINE",
"48 358 OFFCURVE",
"48 325 OFFCURVE",
"48 284 CURVE",
"52 96 OFFCURVE",
"149 -11 OFFCURVE",
"299 -11 CURVE SMOOTH"
);
},
{
closed = 1;
nodes = (
"190 43 OFFCURVE",
"133 167 OFFCURVE",
"133 277 CURVE SMOOTH",
"133 296 OFFCURVE",
"134 314 OFFCURVE",
"137 332 CURVE",
"536 332 LINE",
"531 126 OFFCURVE",
"438 43 OFFCURVE",
"320 43 CURVE SMOOTH"
);
}
);
width = 655;
},
{
layerId = "DEBB1CE4-A72D-4960-969E-E04A036D2FA1";
paths = (
{
closed = 1;
nodes = (
"518.939 -11 OFFCURVE",
"665.065 130.486 OFFCURVE",
"665.065 378.216 CURVE SMOOTH",
"665.065 618.208 OFFCURVE",
"529.38 751 OFFCURVE",
"337.298 751 CURVE SMOOTH",
"197.559 751 OFFCURVE",
"122.567 715 OFFCURVE",
"66.567 712 CURVE",
"65.739 549.053 LINE",
"182.273 544.62 LINE",
"200.273 613.539 LINE",
"221.147 648.62 OFFCURVE",
"239.596 682.792 OFFCURVE",
"321.298 682.792 CURVE SMOOTH",
"423.702 682.792 OFFCURVE",
"480.718 570.918 OFFCURVE",
"488.718 404.641 CURVE",
"44.135 405.38 LINE",
"38.396 380.163 OFFCURVE",
"34.702 323.522 OFFCURVE",
"34.702 279.567 CURVE",
"40.18 76.792 OFFCURVE",
"169.686 -11 OFFCURVE",
"319.686 -11 CURVE SMOOTH"
);
},
{
closed = 1;
nodes = (
"236.543 70.335 OFFCURVE",
"206.139 183.992 OFFCURVE",
"206.139 272.567 CURVE SMOOTH",
"206.139 293.045 OFFCURVE",
"206.4 307.351 OFFCURVE",
"207.922 325.351 CURVE",
"490.196 324.612 LINE",
"488.89 151.118 OFFCURVE",
"436.522 70.335 OFFCURVE",
"342.163 70.335 CURVE SMOOTH"
);
}
);
width = 689.72245;
}
);
leftKerningGroup = O;
rightKerningGroup = O;
unicode = 018F;
},
{
glyphname = T;
lastChange = "2019-04-04 04:16:47 +0000";
layers = (
{
anchors = (
{
name = bottom;
position = "{344, 0}";
},
{
name = center;
position = "{344, 372}";
},
{
name = mark0;
position = "{352, -83}";
},
{
name = top;
position = "{344, 743}";
}
);
background = {
paths = (
{
closed = 1;
nodes = (
"382 698 LINE",
"572 692 LINE",
"604 489 LINE",
"659 489 LINE",
"642 743 LINE",
"33 743 LINE",
"22 489 LINE",
"75 489 LINE",
"103 692 LINE",
"296 698 LINE",
"296 52 LINE",
"153 43 LINE",
"153 0 LINE",
"513 0 LINE",
"513 43 LINE",
"382 52 LINE"
);
}
);
};
layerId = UUID0;
paths = (
{
closed = 1;
nodes = (
"162 43 LINE",
"162 0 LINE",
"522 0 LINE",
"522 43 LINE",
"384 52 LINE",
"384 698 LINE",
"572 692 LINE",
"604 489 LINE",
"659 489 LINE",
"642 743 LINE",
"39 743 LINE",
"22 489 LINE",
"77 489 LINE",
"109 692 LINE",
"298 698 LINE",
"298 52 LINE"
);
}
);
width = 681;
},
{
anchors = (
{
name = bottom;
position = "{367, 0}";
},
{
name = center;
position = "{367, 372}";
},
{
name = mark0;
position = "{370, -83}";
},
{
name = top;
position = "{367, 743}";
}
);
background = {
paths = (
{
closed = 1;
nodes = (
"451 669 LINE",
"574 664 LINE",
"619 441 LINE",
"708 441 LINE",
"692 743 LINE",
"36 743 LINE",
"20 441 LINE",
"109 441 LINE",
"153 664 LINE",
"278 669 LINE",
"278 77 LINE",
"144 66 LINE",
"144 0 LINE",
"584 0 LINE",
"584 66 LINE",
"451 77 LINE"
);
}
);
};
layerId = "DEBB1CE4-A72D-4960-969E-E04A036D2FA1";
paths = (
{
closed = 1;
nodes = (
"144 66 LINE",
"144 0 LINE",
"584 0 LINE",
"584 66 LINE",
"450 77 LINE",
"450 669 LINE",
"575 664 LINE",
"619 441 LINE",
"708 441 LINE",
"692 743 LINE",
"36 743 LINE",
"20 441 LINE",
"109 441 LINE",
"154 664 LINE",
"277 669 LINE",
"277 77 LINE"
);
}
);
width = 728;
}
);
leftKerningGroup = T;
rightKerningGroup = T;
unicode = 0054;
},
{
glyphname = Tbar;
lastChange = "2019-02-15 20:53:54 +0000";
layers = (
{
layerId = UUID0;
paths = (
{
closed = 1;
nodes = (
"180 373 LINE",
"180 319 LINE",
"305 319 LINE",
"305 52 LINE",
"174 43 LINE",
"174 0 LINE",
"534 0 LINE",
"534 43 LINE",
"391 52 LINE",
"391 319 LINE",
"517 319 LINE",
"517 373 LINE",
"391 373 LINE",
"391 698 LINE",
"583 692 LINE",
"611 489 LINE",
"665 489 LINE",
"654 743 LINE",
"44 743 LINE",
"28 489 LINE",
"83 489 LINE",
"115 692 LINE",
"305 698 LINE",
"305 373 LINE"
);
}
);
width = 697;
},
{
layerId = "DEBB1CE4-A72D-4960-969E-E04A036D2FA1";
paths = (
{
closed = 1;
nodes = (
"174.09 357.486 LINE",
"174.09 281.322 LINE",
"281.359 281.322 LINE",
"281.359 77.118 LINE",
"154.792 65.902 LINE",
"154.792 0 LINE",
"593.841 0 LINE",
"593.841 65.902 LINE",
"454.535 77.118 LINE",
"454.535 281.322 LINE",
"559.849 281.322 LINE",
"559.849 357.486 LINE",
"454.535 357.486 LINE",
"454.535 669.188 LINE",
"575.612 663.927 LINE",
"619.127 440.98 LINE",
"708.588 440.98 LINE",
"695.371 743 LINE",
"36.612 743 LINE",
"20.612 440.98 LINE",
"114.767 440.98 LINE",
"157.11 663.927 LINE",
"281.359 669.188 LINE",
"281.359 357.486 LINE"
);
}
);
width = 733.93878;
}
);
leftKerningGroup = T;
rightKerningGroup = T;
unicode = 0166;
},
{
glyphname = Tcedilla;
lastChange = "2019-02-15 20:53:54 +0000";
layers = (
{
anchors = (
{
name = _bottom;
position = "{340, 0}";
},
{
name = bottom;
position = "{340, 0}";
},
{
name = center;
position = "{340, 372}";
},
{
name = mark0;
position = "{348, -83}";
},
{
name = top;
position = "{340, 743}";
}
);
layerId = UUID0;
paths = (
{
closed = 1;
nodes = (
"73 489 LINE",
"105 692 LINE",
"295 698 LINE",
"295 52 LINE",
"164 43 LINE",
"164 0 LINE",
"319 0 LINE",
"328 -13 OFFCURVE",
"353 -58 OFFCURVE",
"353 -100 CURVE SMOOTH",
"353 -161 OFFCURVE",
"326 -171 OFFCURVE",
"277 -171 CURVE SMOOTH",
"267 -171 OFFCURVE",
"245 -168 OFFCURVE",
"231 -163 CURVE",
"230 -222 LINE",
"248 -229 OFFCURVE",
"278 -235 OFFCURVE",
"301 -235 CURVE SMOOTH",
"376 -235 OFFCURVE",
"420 -211 OFFCURVE",
"423 -143 CURVE SMOOTH",
"426 -80 OFFCURVE",
"381 -19 OFFCURVE",
"360 0 CURVE",
"524 0 LINE",
"524 43 LINE",
"381 52 LINE",
"381 698 LINE",
"574 692 LINE",
"602 489 LINE",
"655 489 LINE",
"644 743 LINE",
"35 743 LINE",
"18 489 LINE"
);
}
);
width = 679;
},
{
anchors = (
{
name = _bottom;
position = "{362.902, 0}";
},
{
name = bottom;
position = "{362.902, 0}";
},
{
name = center;
position = "{362.902, 372}";
},
{
name = mark0;
position = "{365.731, -83}";
},
{
name = top;
position = "{362.902, 743}";
}
);
layerId = "DEBB1CE4-A72D-4960-969E-E04A036D2FA1";
paths = (
{
closed = 1;
nodes = (
"109.939 440.98 LINE",
"152.282 663.927 LINE",
"277.269 669.188 LINE",
"277.269 77.118 LINE",
"149.963 65.902 LINE",
"149.963 0 LINE",
"330.036 0 LINE",
"340.819 -15.556 OFFCURVE",
"360.388 -53.442 OFFCURVE",
"360.388 -87.441 CURVE SMOOTH",
"360.388 -149.18 OFFCURVE",
"336.343 -156.224 OFFCURVE",
"291.037 -156.224 CURVE SMOOTH",
"283.253 -156.224 OFFCURVE",
"263.469 -153.963 OFFCURVE",
"249.469 -149.702 CURVE",
"249.208 -241.947 LINE",
"266.469 -249.686 OFFCURVE",
"297.208 -256.424 OFFCURVE",
"320.208 -256.424 CURVE SMOOTH",
"412.2 -256.424 OFFCURVE",
"465.065 -230.208 OFFCURVE",
"469.543 -144.478 CURVE SMOOTH",
"473.098 -79.513 OFFCURVE",
"426.415 -21.57 OFFCURVE",
"403.174 0 CURVE",
"589.012 0 LINE",
"589.012 65.902 LINE",
"449.706 77.118 LINE",
"449.706 669.188 LINE",
"571.045 663.927 LINE",
"614.559 440.98 LINE",
"703.759 440.98 LINE",
"691.282 743 LINE",
"32.045 743 LINE",
"15.784 440.98 LINE"
);
}
);
width = 724.80408;
}
);
leftKerningGroup = T;
rightKerningGroup = T;
unicode = 0162;
},
{
glyphname = U;
lastChange = "2019-04-04 04:16:30 +0000";
layers = (
{
anchors = (
{
name = bottom;
position = "{369, 0}";
},
{
name = mark0;
position = "{385, -83}";
},
{
name = ogonek;
position = "{664, 10}";
},
{
name = top;
position = "{385, 743}";
},
{
name = topright;
position = "{718, 743}";
}
);
layerId = UUID0;
paths = (
{
closed = 1;
nodes = (
"531 -8 OFFCURVE",
"644 88 OFFCURVE",
"644 305 CURVE SMOOTH",
"644 689 LINE",
"720 700 LINE",
"720 743 LINE",
"498 743 LINE",
"498 700 LINE",
"581 688 LINE",
"581 301 LINE SMOOTH",
"581 131 OFFCURVE",
"515 41 OFFCURVE",
"387 41 CURVE SMOOTH",
"270 41 OFFCURVE",
"186 102 OFFCURVE",
"186 309 CURVE SMOOTH",
"186 689 LINE",
"272 700 LINE",
"272 743 LINE",
"27 743 LINE",
"27 700 LINE",
"102 689 LINE",
"102 318 LINE SMOOTH",
"102 97 OFFCURVE",
"186 -8 OFFCURVE",
"379 -8 CURVE SMOOTH"
);
}
);
width = 738;
},
{
anchors = (
{
name = bottom;
position = "{372.694, 0}";
},
{
name = mark0;
position = "{372.441, -83}";
},
{
name = ogonek;
position = "{669.91, 10}";
},
{
name = top;
position = "{406.424, 743}";
},
{
name = topright;
position = "{724.649, 743}";
}
);
layerId = "DEBB1CE4-A72D-4960-969E-E04A036D2FA1";
paths = (
{
closed = 1;
nodes = (
"551.686 -8 OFFCURVE",
"671.335 78.396 OFFCURVE",
"671.335 295.396 CURVE SMOOTH",
"671.335 659.449 LINE",
"736.992 673.404 LINE",
"736.992 743 LINE",
"476.576 743 LINE",
"476.576 673.404 LINE",
"563.269 659.188 LINE",
"563.269 286.224 LINE SMOOTH",
"563.269 153.902 OFFCURVE",
"520.91 61.686 OFFCURVE",
"412.118 61.686 CURVE SMOOTH",
"303.984 61.686 OFFCURVE",
"255.445 141.894 OFFCURVE",
"255.445 288.314 CURVE SMOOTH",
"255.445 657.971 LINE",
"339.229 673.404 LINE",
"339.229 743 LINE",
"15.918 743 LINE",
"15.918 673.404 LINE",
"78.359 659.449 LINE",
"78.359 302.486 LINE SMOOTH",
"78.359 85.18 OFFCURVE",
"183.045 -8 OFFCURVE",
"387.127 -8 CURVE SMOOTH"
);
}
);
width = 744.64898;
}
);
leftKerningGroup = U;
rightKerningGroup = U;
unicode = 0055;
},
{
glyphname = Uhorn;
lastChange = "2019-02-15 20:53:54 +0000";
layers = (
{
anchors = (
{
name = bottom;
position = "{379, 0}";
},
{
name = mark0;
position = "{385, -83}";
},
{
name = ogonek;
position = "{664, 10}";
},
{
name = top;
position = "{388, 743}";
}
);
layerId = UUID0;
paths = (
{
closed = 1;
nodes = (
"102 689 LINE",
"102 318 LINE SMOOTH",
"102 97 OFFCURVE",
"186 -8 OFFCURVE",
"379 -8 CURVE SMOOTH",
"531 -8 OFFCURVE",
"644 88 OFFCURVE",
"644 305 CURVE SMOOTH",
"644 694.867 LINE",
"714.674 709.575 OFFCURVE",
"762.637 757.855 OFFCURVE",
"761 843 CURVE",
"761 850 OFFCURVE",
"760 857 OFFCURVE",
"759 865 CURVE",
"684 865 LINE",
"685 861 OFFCURVE",
"685 855 OFFCURVE",
"685 848 CURVE SMOOTH",
"685 798 OFFCURVE",
"659 743 OFFCURVE",
"577 743 CURVE SMOOTH",
"498 743 LINE",
"498 700 LINE",
"581 688 LINE",
"581 301 LINE SMOOTH",
"581 131 OFFCURVE",
"515 41 OFFCURVE",
"387 41 CURVE SMOOTH",
"270 41 OFFCURVE",
"186 102 OFFCURVE",
"186 309 CURVE SMOOTH",
"186 689 LINE",
"272 700 LINE",
"272 743 LINE",
"27 743 LINE",
"27 700 LINE"
);
}
);
width = 738;
},
{
anchors = (
{
name = bottom;
position = "{387.127, 0}";
},
{
name = mark0;
position = "{372.441, -83}";
},
{
name = ogonek;
position = "{669.91, 10}";
},
{
name = top;
position = "{395.388, 743}";
}
);
layerId = "DEBB1CE4-A72D-4960-969E-E04A036D2FA1";
paths = (
{
closed = 1;
nodes = (
"78.359 659.449 LINE",
"78.359 302.486 LINE SMOOTH",
"78.359 85.18 OFFCURVE",
"183.045 -8 OFFCURVE",
"387.127 -8 CURVE SMOOTH",
"551.686 -8 OFFCURVE",
"671.335 78.396 OFFCURVE",
"671.335 295.396 CURVE SMOOTH",
"671.335 669.132 LINE",
"750.216 684.178 OFFCURVE",
"811.664 734.929 OFFCURVE",
"811.237 843.739 CURVE",
"811.237 850.739 OFFCURVE",
"810.237 858.478 OFFCURVE",
"808.498 865 CURVE",
"703.947 865 LINE",
"705.686 858.784 OFFCURVE",
"707.163 851.306 OFFCURVE",
"707.163 839.135 CURVE SMOOTH",
"707.163 796.522 OFFCURVE",
"691.506 743 OFFCURVE",
"599.902 743 CURVE SMOOTH",
"476.576 743 LINE",
"476.576 673.404 LINE",
"563.269 659.188 LINE",
"563.269 286.224 LINE SMOOTH",
"563.269 153.902 OFFCURVE",
"520.91 61.686 OFFCURVE",
"412.118 61.686 CURVE SMOOTH",
"303.984 61.686 OFFCURVE",
"255.445 141.894 OFFCURVE",
"255.445 288.314 CURVE SMOOTH",
"255.445 657.971 LINE",
"339.229 673.404 LINE",
"339.229 743 LINE",
"15.918 743 LINE",
"15.918 673.404 LINE"
);
}
);
width = 744.64898;
}
);
leftKerningGroup = U;
rightKerningGroup = Uhorn;
unicode = 01AF;
},
{
glyphname = Uogonek;
lastChange = "2019-02-15 20:53:54 +0000";
layers = (
{
layerId = UUID0;
paths = (
{
closed = 1;
nodes = (
"384 -8 OFFCURVE",
"388 -8 OFFCURVE",
"392 -7 CURVE",
"327 -40 OFFCURVE",
"271 -104 OFFCURVE",
"271 -155 CURVE SMOOTH",
"271 -226 OFFCURVE",
"331 -249 OFFCURVE",
"393 -249 CURVE SMOOTH",
"434 -249 OFFCURVE",
"478 -236 OFFCURVE",
"505 -215 CURVE",
"505 -173 LINE",
"482 -185 OFFCURVE",
"454 -193 OFFCURVE",
"427 -193 CURVE SMOOTH",
"386 -193 OFFCURVE",
"350 -176 OFFCURVE",
"350 -128 CURVE SMOOTH",
"350 -87 OFFCURVE",
"402 -31 OFFCURVE",
"466 4 CURVE",
"572 36 OFFCURVE",
"644 132 OFFCURVE",
"644 305 CURVE SMOOTH",
"644 689 LINE",
"720 700 LINE",
"720 743 LINE",
"498 743 LINE",
"498 700 LINE",
"581 688 LINE",
"581 301 LINE SMOOTH",
"581 131 OFFCURVE",
"515 41 OFFCURVE",
"387 41 CURVE SMOOTH",
"270 41 OFFCURVE",
"186 102 OFFCURVE",
"186 309 CURVE SMOOTH",
"186 689 LINE",
"272 700 LINE",
"272 743 LINE",
"27 743 LINE",
"27 700 LINE",
"102 689 LINE",
"102 318 LINE SMOOTH",
"102 97 OFFCURVE",
"186 -8 OFFCURVE",
"379 -8 CURVE SMOOTH"
);
}
);
width = 738;
},
{
layerId = "DEBB1CE4-A72D-4960-969E-E04A036D2FA1";
paths = (
{
closed = 1;
nodes = (
"397.298 -8 OFFCURVE",
"407.208 -7.261 OFFCURVE",
"417.118 -6.261 CURVE",
"359.506 -34.829 OFFCURVE",
"294.641 -92.18 OFFCURVE",
"294.641 -150.567 CURVE SMOOTH",
"294.641 -221.567 OFFCURVE",
"356.857 -250.478 OFFCURVE",
"426.245 -250.478 CURVE SMOOTH",
"467.984 -250.478 OFFCURVE",
"522.327 -238.216 OFFCURVE",
"550.065 -217.216 CURVE",
"550.065 -147.882 LINE",
"527.065 -157.665 OFFCURVE",
"513.841 -161.233 OFFCURVE",
"489.057 -161.233 CURVE SMOOTH",
"450.273 -161.233 OFFCURVE",
"426.094 -135.367 OFFCURVE",
"426.094 -102.143 CURVE SMOOTH",
"426.094 -64.837 OFFCURVE",
"462.58 -23.612 OFFCURVE",
"514.02 14.343 CURVE",
"609.678 51.514 OFFCURVE",
"671.335 140.127 OFFCURVE",
"671.335 295.396 CURVE SMOOTH",
"671.335 659.449 LINE",
"736.992 673.404 LINE",
"736.992 743 LINE",
"476.576 743 LINE",
"476.576 673.404 LINE",
"563.269 659.188 LINE",
"563.269 286.224 LINE SMOOTH",
"563.269 153.902 OFFCURVE",
"520.91 61.686 OFFCURVE",
"412.118 61.686 CURVE SMOOTH",
"303.984 61.686 OFFCURVE",
"255.445 141.894 OFFCURVE",
"255.445 288.314 CURVE SMOOTH",
"255.445 657.971 LINE",
"339.229 673.404 LINE",
"339.229 743 LINE",
"15.918 743 LINE",
"15.918 673.404 LINE",
"78.359 659.449 LINE",
"78.359 302.486 LINE SMOOTH",
"78.359 85.18 OFFCURVE",
"183.045 -8 OFFCURVE",
"387.127 -8 CURVE SMOOTH"
);
}
);
width = 744.64898;
}
);
leftKerningGroup = U;
rightKerningGroup = U;
unicode = 0172;
},
{
glyphname = V;
lastChange = "2019-04-04 04:17:48 +0000";
layers = (
{
anchors = (
{
name = mark0;
position = "{343, -83}";
}
);
layerId = UUID0;
paths = (
{
closed = 1;
nodes = (
"47 689 LINE",
"304 -8 LINE",
"370 -8 LINE",
"613 689 LINE",
"677 700 LINE",
"677 743 LINE",
"466 743 LINE",
"466 700 LINE",
"546 689 LINE",
"388 209 LINE",
"350 71 LINE",
"308 207 LINE",
"136 689 LINE",
"228 700 LINE",
"228 743 LINE",
"-15 743 LINE",
"-15 700 LINE"
);
}
);
width = 660;
},
{
anchors = (
{
name = mark0;
position = "{334.135, -83}";
}
);
layerId = "DEBB1CE4-A72D-4960-969E-E04A036D2FA1";
paths = (
{
closed = 1;
nodes = (
"39.612 659.449 LINE",
"288.486 -7.261 LINE",
"427.624 -7.261 LINE",
"654.371 659.449 LINE",
"719.11 673.404 LINE",
"719.11 743 LINE",
"464.522 743 LINE",
"464.522 673.404 LINE",
"543.045 659.449 LINE",
"409.424 225.992 LINE",
"389.155 137.49 LINE",
"364.886 225.469 LINE",
"226.131 660.188 LINE",
"307.788 673.404 LINE",
"307.788 743 LINE",
"-19.433 743 LINE",
"-19.433 673.404 LINE"
);
}
);
width = 696.93878;
}
);
leftKerningGroup = V;
rightKerningGroup = V;
unicode = 0056;
},
{
glyphname = W;
lastChange = "2019-04-04 04:17:39 +0000";
layers = (
{
anchors = (
{
name = bottom;
position = "{496, 0}";
},
{
name = mark0;
position = "{488, -83}";
},
{
name = top;
position = "{496, 743}";
}
);
layerId = UUID0;
paths = (
{
closed = 1;
nodes = (
"50 688 LINE",
"266 -5 LINE",
"339 -5 LINE",
"498 518 LINE",
"660 -5 LINE",
"737 -5 LINE",
"942 689 LINE",
"1009 700 LINE",
"1009 743 LINE",
"772 743 LINE",
"772 700 LINE",
"877 689 LINE",
"744 214 LINE",
"711 44 LINE",
"672 214 LINE",
"531 689 LINE",
"630 700 LINE",
"630 743 LINE",
"370 743 LINE",
"370 700 LINE",
"444 689 LINE",
"471 605 LINE",
"351 214 LINE",
"312 56 LINE",
"279 214 LINE",
"134 689 LINE",
"232 700 LINE",
"232 743 LINE",
"-20 743 LINE",
"-20 700 LINE"
);
}
);
width = 989;
},
{
anchors = (
{
name = bottom;
position = "{514.469, 0}";
},
{
name = mark0;
position = "{462.143, -83}";
},
{
name = top;
position = "{536.633, 743}";
}
);
layerId = "DEBB1CE4-A72D-4960-969E-E04A036D2FA1";
paths = (
{
closed = 1;
nodes = (
"40.396 659.188 LINE",
"243.098 -5 LINE",
"394.408 -5 LINE",
"515.731 440.429 LINE",
"645.224 -5 LINE",
"798.318 -5 LINE",
"982.633 659.449 LINE",
"1045.2 673.404 LINE",
"1045.2 743 LINE",
"802.29 743 LINE",
"802.29 673.404 LINE",
"887.343 659.449 LINE",
"780.2 218.433 LINE",
"763.453 117.139 LINE",
"741.445 218.433 LINE",
"621.869 659.449 LINE",
"717.176 673.404 LINE",
"717.176 743 LINE",
"383.298 743 LINE",
"383.298 673.404 LINE",
"446.216 659.449 LINE",
"474.694 573.971 LINE",
"373.163 218.433 LINE",
"356.327 125.445 LINE",
"337.363 218.433 LINE",
"218.22 659.449 LINE",
"301.445 673.404 LINE",
"301.445 743 LINE",
"-17.784 743 LINE",
"-17.784 673.404 LINE"
);
}
);
width = 1027.41633;
}
);
leftKerningGroup = W;
rightKerningGroup = W;
unicode = 0057;
},
{
glyphname = X;
lastChange = "2019-04-04 20:31:29 +0000";
layers = (
{
anchors = (
{
name = mark0;
position = "{354, -83}";
}
);
layerId = UUID0;
paths = (
{
closed = 1;
nodes = (
"7 43 LINE",
"7 0 LINE",
"270 0 LINE",
"270 43 LINE",
"167 52 LINE",
"342 342 LINE",
"524 52 LINE",
"426 43 LINE",
"426 0 LINE",
"705 0 LINE",
"705 43 LINE",
"625 52 LINE",
"398 386 LINE",
"607 688 LINE",
"686 700 LINE",
"686 743 LINE",
"447 743 LINE",
"447 700 LINE",
"537 689 LINE",
"371 419 LINE",
"203 688 LINE",
"305 700 LINE",
"305 743 LINE",
"25 743 LINE",
"25 700 LINE",
"102 688 LINE",
"313 376 LINE",
"94 52 LINE"
);
}
);
width = 708;
},
{
anchors = (
{
name = mark0;
position = "{357.694, -83}";
}
);
layerId = "DEBB1CE4-A72D-4960-969E-E04A036D2FA1";
paths = (
{
closed = 1;
nodes = (
"5.522 65.902 LINE",
"5.522 0 LINE",
"281.82 0 LINE",
"281.82 65.902 LINE",
"189.163 76.38 LINE",
"321.314 305.061 LINE",
"458.988 77.118 LINE",
"380.935 65.902 LINE",
"380.935 0 LINE",
"724.208 0 LINE",
"724.208 65.902 LINE",
"658.245 77.118 LINE",
"443.065 398.559 LINE",
"632.118 659.188 LINE",
"713.335 673.404 LINE",
"713.335 743 LINE",
"449.955 743 LINE",
"449.955 673.404 LINE",
"534.045 659.449 LINE",
"402.767 448.551 LINE",
"277.616 658.449 LINE",
"355.976 673.404 LINE",
"355.976 743 LINE",
"11.702 743 LINE",
"11.702 673.404 LINE",
"77.62 659.188 LINE",
"279.016 357.531 LINE",
"88.09 76.38 LINE"
);
}
);
width = 722.77551;
}
);
leftKerningGroup = X;
rightKerningGroup = X;
unicode = 0058;
},
{
glyphname = Y;
lastChange = "2019-04-04 04:17:34 +0000";
layers = (
{
anchors = (
{
name = bottom;
position = "{320, 0}";
},
{
name = mark0;
position = "{305, -83}";
},
{
name = top;
position = "{330, 743}";
},
{
name = topleft;
position = "{20, 743}";
}
);
layerId = UUID0;
paths = (
{
closed = 1;
nodes = (
"173 43 LINE",
"173 0 LINE",
"482 0 LINE",
"482 43 LINE",
"368 53 LINE",
"368 287 LINE",
"584 689 LINE",
"650 700 LINE",
"650 743 LINE",
"433 743 LINE",
"433 700 LINE",
"517 689 LINE",
"372 406 LINE",
"333 326 LINE",
"297 406 LINE",
"146 689 LINE",
"230 700 LINE",
"230 743 LINE",
"-9 743 LINE",
"-9 700 LINE",
"53 688 LINE",
"284 286 LINE",
"284 52 LINE"
);
}
);
width = 640;
},
{
anchors = (
{
name = bottom;
position = "{328.127, 0}";
},
{
name = mark0;
position = "{275.449, -83}";
},
{
name = top;
position = "{361.767, 743}";
},
{
name = topleft;
position = "{20, 743}";
}
);
layerId = "DEBB1CE4-A72D-4960-969E-E04A036D2FA1";
paths = (
{
closed = 1;
nodes = (
"140.494 65.902 LINE",
"140.494 0 LINE",
"531.498 0 LINE",
"531.498 65.902 LINE",
"424.886 76.641 LINE",
"424.886 298.82 LINE",
"617.245 661.665 LINE",
"678.073 673.404 LINE",
"678.073 743 LINE",
"422.657 743 LINE",
"422.657 673.404 LINE",
"499.269 659.449 LINE",
"395.641 429.641 LINE",
"369.939 365.155 LINE",
"345.02 429.641 LINE",
"230.959 659.449 LINE",
"296.49 673.404 LINE",
"296.49 743 LINE",
"-19.343 743 LINE",
"-19.343 673.404 LINE",
"36.008 659.927 LINE",
"243.367 297.82 LINE",
"243.367 77.118 LINE"
);
}
);
width = 655.51429;
}
);
leftKerningGroup = Y;
rightKerningGroup = Y;
unicode = 0059;
},
{
glyphname = Z;
lastChange = "2019-02-15 20:53:54 +0000";
layers = (
{
anchors = (
{
name = bottom;
position = "{327, 0}";
},
{
name = mark0;
position = "{333, -83}";
},
{
name = top;
position = "{345, 743}";
}
);
layerId = UUID0;
paths = (
{
closed = 1;
nodes = (
"42 39 LINE",
"66 0 LINE",
"586 0 LINE",
"610 211 LINE",
"562 222 LINE",
"512 64 LINE",
"138 47 LINE",
"203 127 LINE",
"599 709 LINE",
"577 746 LINE",
"106 746 LINE",
"85 565 LINE",
"131 560 LINE",
"180 690 LINE",
"500 700 LINE",
"443 625 LINE"
);
}
);
width = 653;
},
{
anchors = (
{
name = bottom;
position = "{327.739, 0}";
},
{
name = mark0;
position = "{337.433, -83}";
},
{
name = top;
position = "{339.09, 743}";
}
);
layerId = "DEBB1CE4-A72D-4960-969E-E04A036D2FA1";
paths = (
{
closed = 1;
nodes = (
"14.665 58.208 LINE",
"48.269 0 LINE",
"609.641 0 LINE",
"632.163 224.298 LINE",
"545.747 241.947 LINE",
"487.62 87.641 LINE",
"201.535 66.947 LINE",
"265.796 132.91 LINE",
"624.118 686.098 LINE",
"599.163 745.261 LINE",
"78.665 745.261 LINE",
"53.971 542.098 LINE",
"139.865 529.71 LINE",
"195.514 667.098 LINE",
"439.42 681.531 LINE",
"378.727 613.18 LINE"
);
}
);
width = 655.21633;
}
);
leftKerningGroup = Z;
rightKerningGroup = Z;
unicode = 005A;
},
{
glyphname = I.uc;
lastChange = "2019-02-15 20:53:54 +0000";
layers = (
{
layerId = UUID0;
paths = (
{
closed = 1;
nodes = (
"236 836 OFFCURVE",
"256 866 OFFCURVE",
"256 901 CURVE SMOOTH",
"256 930 OFFCURVE",
"237 959 OFFCURVE",
"203 959 CURVE SMOOTH",
"163 959 OFFCURVE",
"144 927 OFFCURVE",
"144 893 CURVE SMOOTH",
"144 861 OFFCURVE",
"163 836 OFFCURVE",
"195 836 CURVE SMOOTH"
);
},
{
closed = 1;
nodes = (
"337 0 LINE",
"337 42 LINE",
"240 52 LINE",
"240 689 LINE",
"337 700 LINE",
"337 743 LINE",
"60 743 LINE",
"60 700 LINE",
"157 689 LINE",
"157 52 LINE",
"60 43 LINE",
"60 0 LINE"
);
}
);
width = 397;
},
{
layerId = "DEBB1CE4-A72D-4960-969E-E04A036D2FA1";
paths = (
{
closed = 1;
nodes = (
"266.29 809.404 OFFCURVE",
"297.371 844.576 OFFCURVE",
"297.371 897.306 CURVE SMOOTH",
"297.371 939.604 OFFCURVE",
"265.073 972.298 OFFCURVE",
"208.91 972.298 CURVE SMOOTH",
"149.702 972.298 OFFCURVE",
"117.404 937.343 OFFCURVE",
"117.404 884.873 CURVE SMOOTH",
"117.404 841.792 OFFCURVE",
"151.18 809.404 OFFCURVE",
"199.433 809.404 CURVE SMOOTH"
);
},
{
closed = 1;
nodes = (
"378.371 0 LINE",
"378.371 64.902 LINE",
"294.669 76.38 LINE",
"294.669 659.449 LINE",
"378.371 673.404 LINE",
"378.371 743 LINE",
"41.531 743 LINE",
"41.531 673.404 LINE",
"123.016 659.449 LINE",
"123.016 77.118 LINE",
"42.269 65.902 LINE",
"42.269 0 LINE"
);
}
);
width = 417.68571;
}
);
leftKerningGroup = I;
rightKerningGroup = I;
},
{
glyphname = a;
lastChange = "2019-03-14 17:19:06 +0000";
layers = (
{
anchors = (
{
name = bottom;
position = "{266, 0}";
},
{
name = mark0;
position = "{244, -83}";
},
{
name = ogonek;
position = "{458, 10}";
},
{
name = top;
position = "{257, 555}";
}
);
layerId = UUID0;
paths = (
{
closed = 1;
nodes = (
"38 37 OFFCURVE",
"116 -11 OFFCURVE",
"205 -11 CURVE SMOOTH",
"289 -11 OFFCURVE",
"355 48 OFFCURVE",
"380 70 CURVE",
"380 33 LINE SMOOTH",
"380 -6 OFFCURVE",
"393 -9 OFFCURVE",
"422 -9 CURVE SMOOTH",
"452 -9 OFFCURVE",
"493 0 OFFCURVE",
"515 6 CURVE",
"515 43 LINE",
"453 43 LINE",
"453 373 LINE SMOOTH",
"453 513 OFFCURVE",
"406 566 OFFCURVE",
"273 566 CURVE SMOOTH",
"177 566 OFFCURVE",
"78 510 OFFCURVE",
"60 493 CURVE",
"82 449 LINE",
"114 467 OFFCURVE",
"175 502 OFFCURVE",
"253 502 CURVE SMOOTH",
"347 502 OFFCURVE",
"373 464 OFFCURVE",
"373 365 CURVE SMOOTH",
"373 333 LINE",
"208 330 OFFCURVE",
"38 286 OFFCURVE",
"38 146 CURVE SMOOTH"
);
},
{
closed = 1;
nodes = (
"174 48 OFFCURVE",
"127 76 OFFCURVE",
"127 156 CURVE SMOOTH",
"127 232 OFFCURVE",
"207 285 OFFCURVE",
"373 286 CURVE",
"373 109 LINE",
"333 78 OFFCURVE",
"275 48 OFFCURVE",
"235 48 CURVE SMOOTH"
);
}
);
width = 550;
},
{
anchors = (
{
name = bottom;
position = "{279.298, 0}";
},
{
name = mark0;
position = "{263.208, -83}";
},
{
name = ogonek;
position = "{481.641, 10}";
},
{
name = top;
position = "{272.514, 555.739}";
}
);
layerId = "DEBB1CE4-A72D-4960-969E-E04A036D2FA1";
paths = (
{
closed = 1;
nodes = (
"19.531 51.037 OFFCURVE",
"96.792 -11 OFFCURVE",
"188.747 -11 CURVE SMOOTH",
"270.531 -11 OFFCURVE",
"326.927 33.963 OFFCURVE",
"352.665 66.306 CURVE",
"352.665 43.343 LINE SMOOTH",
"352.665 -0.09 OFFCURVE",
"364.188 -11.955 OFFCURVE",
"415.351 -11.955 CURVE SMOOTH",
"458.649 -11.955 OFFCURVE",
"525.506 -2.216 OFFCURVE",
"548.984 3.045 CURVE",
"548.984 65.902 LINE",
"497.327 65.902 LINE",
"497.327 363.396 LINE SMOOTH",
"497.327 510.045 OFFCURVE",
"447.371 568.955 OFFCURVE",
"287.776 568.955 CURVE SMOOTH",
"166.657 568.955 OFFCURVE",
"69.135 512.955 OFFCURVE",
"43.747 492.261 CURVE",
"78.306 420.188 LINE",
"110.306 434.494 OFFCURVE",
"169.09 462.106 OFFCURVE",
"245.612 462.106 CURVE SMOOTH",
"328.531 462.106 OFFCURVE",
"344.188 431.494 OFFCURVE",
"344.188 362.784 CURVE SMOOTH",
"344.188 343.343 LINE",
"157.024 341.82 OFFCURVE",
"19.531 281.567 OFFCURVE",
"19.531 160.037 CURVE SMOOTH"
);
},
{
closed = 1;
nodes = (
"220.543 80.506 OFFCURVE",
"191.273 115.894 OFFCURVE",
"191.273 175.947 CURVE SMOOTH",
"191.273 229.045 OFFCURVE",
"233.596 276.135 OFFCURVE",
"344.188 276.396 CURVE",
"344.188 117.127 LINE",
"323.396 97.208 OFFCURVE",
"290.514 80.506 OFFCURVE",
"266.029 80.506 CURVE SMOOTH"
);
}
);
width = 570.68571;
}
);
leftKerningGroup = a;
rightKerningGroup = a;
unicode = 0061;
category = Letter;
subCategory = Lowercase;
},
{
glyphname = aogonek;
lastChange = "2019-02-15 20:53:54 +0000";
layers = (
{
anchors = (
{
name = _ogonek;
position = "{471, 10}";
},
{
name = bottom;
position = "{279, 0}";
},
{
name = mark0;
position = "{257, -83}";
},
{
name = ogonek;
position = "{471, 10}";
},
{
name = top;
position = "{270, 555}";
}
);
layerId = UUID0;
paths = (
{
closed = 1;
nodes = (
"302 -11 OFFCURVE",
"368 48 OFFCURVE",
"393 70 CURVE",
"393 33 LINE SMOOTH",
"393 2.887 OFFCURVE",
"400.751 -5.764 OFFCURVE",
"417.633 -8.142 CURVE",
"356.933 -42.574 OFFCURVE",
"300 -101.531 OFFCURVE",
"300 -150 CURVE SMOOTH",
"300 -218 OFFCURVE",
"351 -243 OFFCURVE",
"412 -243 CURVE SMOOTH",
"493 -243 OFFCURVE",
"539 -209 OFFCURVE",
"564 -190 CURVE",
"555 -152 LINE",
"538 -162 OFFCURVE",
"494 -191 OFFCURVE",
"448 -191 CURVE SMOOTH",
"401 -191 OFFCURVE",
"375 -175 OFFCURVE",
"375 -127 CURVE SMOOTH",
"375 -87.241 OFFCURVE",
"438.688 -28.703 OFFCURVE",
"495.972 -1.555 CURVE",
"508 2 OFFCURVE",
"519.557 3.697 OFFCURVE",
"528 6 CURVE",
"528 43 LINE",
"466 43 LINE",
"466 373 LINE SMOOTH",
"466 513 OFFCURVE",
"419 566 OFFCURVE",
"284 566 CURVE SMOOTH",
"192 566 OFFCURVE",
"86 509 OFFCURVE",
"68 492 CURVE",
"90 448 LINE",
"122 466 OFFCURVE",
"188 501 OFFCURVE",
"266 501 CURVE SMOOTH",
"360 501 OFFCURVE",
"386 463 OFFCURVE",
"386 364 CURVE SMOOTH",
"386 333 LINE",
"221 330 OFFCURVE",
"51 286 OFFCURVE",
"51 146 CURVE SMOOTH",
"51 37 OFFCURVE",
"129 -11 OFFCURVE",
"218 -11 CURVE SMOOTH"
);
},
{
closed = 1;
nodes = (
"140 232 OFFCURVE",
"220 285 OFFCURVE",
"386 286 CURVE",
"386 109 LINE",
"346 78 OFFCURVE",
"288 48 OFFCURVE",
"248 48 CURVE SMOOTH",
"187 48 OFFCURVE",
"140 76 OFFCURVE",
"140 156 CURVE SMOOTH"
);
}
);
width = 557;
},
{
anchors = (
{
name = _ogonek;
position = "{490.208, 10}";
},
{
name = bottom;
position = "{287.865, 0}";
},
{
name = mark0;
position = "{271.776, -83}";
},
{
name = ogonek;
position = "{490.208, 10}";
},
{
name = top;
position = "{281.082, 555.739}";
}
);
layerId = "DEBB1CE4-A72D-4960-969E-E04A036D2FA1";
paths = (
{
closed = 1;
nodes = (
"279.098 -11 OFFCURVE",
"335.494 33.963 OFFCURVE",
"361.233 66.306 CURVE",
"361.233 43.343 LINE SMOOTH",
"361.233 3.346 OFFCURVE",
"370.848 -10.342 OFFCURVE",
"415.118 -11.693 CURVE",
"353.396 -46.557 OFFCURVE",
"318.469 -97.734 OFFCURVE",
"318.469 -141.873 CURVE SMOOTH",
"318.469 -212.829 OFFCURVE",
"387.2 -241.522 OFFCURVE",
"449.678 -241.522 CURVE SMOOTH",
"500.388 -241.522 OFFCURVE",
"554.514 -223.037 OFFCURVE",
"581.731 -202.559 CURVE",
"580.118 -134.269 LINE",
"558.686 -142.792 OFFCURVE",
"542.02 -153.322 OFFCURVE",
"513.012 -153.322 CURVE SMOOTH",
"471.184 -153.322 OFFCURVE",
"448.878 -133.629 OFFCURVE",
"448.878 -100.404 CURVE SMOOTH",
"448.878 -70.071 OFFCURVE",
"477.335 -28.922 OFFCURVE",
"529.238 -2.623 CURVE",
"539.029 -0.216 OFFCURVE",
"550.174 1.705 OFFCURVE",
"557.551 3.045 CURVE",
"557.551 65.902 LINE",
"505.894 65.902 LINE",
"505.894 363.396 LINE SMOOTH",
"505.894 510.045 OFFCURVE",
"455.939 568.955 OFFCURVE",
"295.82 568.955 CURVE SMOOTH",
"175.747 568.955 OFFCURVE",
"74.18 512.694 OFFCURVE",
"48.792 492 CURVE",
"83.351 419.927 LINE",
"115.351 434.233 OFFCURVE",
"175.441 461.845 OFFCURVE",
"254.18 461.845 CURVE SMOOTH",
"337.098 461.845 OFFCURVE",
"352.755 431.233 OFFCURVE",
"352.755 362.522 CURVE SMOOTH",
"352.755 343.343 LINE",
"163.376 341.82 OFFCURVE",
"28.098 281.567 OFFCURVE",
"28.098 160.037 CURVE SMOOTH",
"28.098 51.037 OFFCURVE",
"105.359 -11 OFFCURVE",
"197.314 -11 CURVE SMOOTH"
);
},
{
closed = 1;
nodes = (
"199.841 229.045 OFFCURVE",
"242.163 276.135 OFFCURVE",
"352.755 276.396 CURVE",
"352.755 117.127 LINE",
"331.963 97.208 OFFCURVE",
"299.082 80.506 OFFCURVE",
"274.596 80.506 CURVE SMOOTH",
"229.11 80.506 OFFCURVE",
"199.841 115.894 OFFCURVE",
"199.841 175.947 CURVE SMOOTH"
);
}
);
width = 569.55918;
}
);
leftKerningGroup = a;
rightKerningGroup = a;
unicode = 0105;
category = Letter;
subCategory = Lowercase;
},
{
glyphname = ae;
lastChange = "2019-02-15 20:53:54 +0000";
layers = (
{
anchors = (
{
name = bottom;
position = "{426, 0}";
},
{
name = top;
position = "{446, 555}";
}
);
background = {
paths = (
{
closed = 1;
nodes = (
"464 470 OFFCURVE",
"524 519 OFFCURVE",
"604 519 CURVE SMOOTH",
"693 519 OFFCURVE",
"728 457 OFFCURVE",
"728 375 CURVE SMOOTH",
"728 361 OFFCURVE",
"727 345 OFFCURVE",
"726 331 CURVE",
"455 331 LINE"
);
},
{
closed = 1;
nodes = (
"175 48 OFFCURVE",
"127 76 OFFCURVE",
"127 156 CURVE SMOOTH",
"127 231 OFFCURVE",
"207 289 OFFCURVE",
"368 290 CURVE",
"368 233 OFFCURVE",
"374 185 OFFCURVE",
"391 139 CURVE",
"367 98 OFFCURVE",
"305 48 OFFCURVE",
"235 48 CURVE SMOOTH"
);
}
);
};
layerId = UUID0;
paths = (
{
closed = 1;
nodes = (
"311 -11 OFFCURVE",
"381 56 OFFCURVE",
"412 99 CURVE",
"451 30 OFFCURVE",
"517 -11 OFFCURVE",
"610 -11 CURVE SMOOTH",
"686 -11 OFFCURVE",
"766 21 OFFCURVE",
"804 60 CURVE",
"788 97 LINE",
"758 70 OFFCURVE",
"692 46 OFFCURVE",
"635 46 CURVE SMOOTH",
"516 46 OFFCURVE",
"452 149 OFFCURVE",
"452 284 CURVE",
"810 284 LINE",
"815 306 OFFCURVE",
"816 334 OFFCURVE",
"816 372 CURVE",
"811 501 OFFCURVE",
"742 570 OFFCURVE",
"624 570 CURVE SMOOTH",
"548 570 OFFCURVE",
"472 541 OFFCURVE",
"437 473 CURVE",
"414 530 OFFCURVE",
"363 566 OFFCURVE",
"272 566 CURVE SMOOTH",
"182 566 OFFCURVE",
"74 512 OFFCURVE",
"50 489 CURVE",
"71 447 LINE",
"110 468 OFFCURVE",
"177 504 OFFCURVE",
"253 504 CURVE SMOOTH",
"353 504 OFFCURVE",
"370 474 OFFCURVE",
"370 333 CURVE",
"211 330 OFFCURVE",
"38 285 OFFCURVE",
"38 146 CURVE SMOOTH",
"38 37 OFFCURVE",
"117 -11 OFFCURVE",
"206 -11 CURVE SMOOTH"
);
},
{
closed = 1;
nodes = (
"455 458 OFFCURVE",
"524 519 OFFCURVE",
"604 519 CURVE SMOOTH",
"693 519 OFFCURVE",
"728 457 OFFCURVE",
"728 375 CURVE SMOOTH",
"728 361 OFFCURVE",
"727 345 OFFCURVE",
"726 331 CURVE",
"453 331 LINE"
);
},
{
closed = 1;
nodes = (
"175 48 OFFCURVE",
"127 76 OFFCURVE",
"127 156 CURVE SMOOTH",
"127 231 OFFCURVE",
"209 289 OFFCURVE",
"370 290 CURVE",
"370 233 OFFCURVE",
"376 185 OFFCURVE",
"393 139 CURVE",
"369 98 OFFCURVE",
"305 48 OFFCURVE",
"235 48 CURVE SMOOTH"
);
}
);
width = 863;
},
{
anchors = (
{
name = bottom;
position = "{423.045, 0}";
},
{
name = top;
position = "{443.045, 555.739}";
}
);
layerId = "DEBB1CE4-A72D-4960-969E-E04A036D2FA1";
paths = (
{
closed = 1;
nodes = (
"271.845 -11 OFFCURVE",
"342.584 29.404 OFFCURVE",
"382.449 97.522 CURVE",
"424.404 34.433 OFFCURVE",
"499.269 -11 OFFCURVE",
"604.829 -11 CURVE SMOOTH",
"698.559 -11 OFFCURVE",
"790.38 37.253 OFFCURVE",
"820.253 70.343 CURVE",
"793.91 130.245 LINE",
"763.171 111.371 OFFCURVE",
"700.865 89.588 OFFCURVE",
"646.82 89.588 CURVE SMOOTH",
"560.327 89.588 OFFCURVE",
"512.58 151.216 OFFCURVE",
"505.192 264.053 CURVE",
"819.604 264.053 LINE",
"824.604 289.747 OFFCURVE",
"827.082 321.441 OFFCURVE",
"827.082 366.829 CURVE",
"825.037 494.351 OFFCURVE",
"751.604 570 OFFCURVE",
"609.224 570 CURVE SMOOTH",
"534.702 570 OFFCURVE",
"477.91 542.478 OFFCURVE",
"444.388 500.335 CURVE",
"418.433 549.208 OFFCURVE",
"365.216 568.955 OFFCURVE",
"282.343 568.955 CURVE SMOOTH",
"162.792 568.955 OFFCURVE",
"63.657 514.955 OFFCURVE",
"36.702 491.216 CURVE",
"71 418.927 LINE",
"111.478 435.494 OFFCURVE",
"162.224 461.89 OFFCURVE",
"238.963 461.89 CURVE SMOOTH",
"326.404 461.89 OFFCURVE",
"347.098 435.584 OFFCURVE",
"347.098 343.343 CURVE",
"145.249 341.82 OFFCURVE",
"19.531 277.612 OFFCURVE",
"19.531 152.649 CURVE SMOOTH",
"19.531 43.649 OFFCURVE",
"93.359 -11 OFFCURVE",
"184.576 -11 CURVE SMOOTH"
);
},
{
closed = 1;
nodes = (
"505.237 467.604 OFFCURVE",
"541.731 500.531 OFFCURVE",
"592.918 500.531 CURVE SMOOTH",
"649.412 500.531 OFFCURVE",
"666.682 448.873 OFFCURVE",
"666.682 372.045 CURVE SMOOTH",
"666.682 361.739 OFFCURVE",
"666.42 340.567 OFFCURVE",
"665.42 330.261 CURVE",
"503.976 330.261 LINE"
);
},
{
closed = 1;
nodes = (
"216.371 82.722 OFFCURVE",
"189.057 119.588 OFFCURVE",
"189.057 175.208 CURVE SMOOTH",
"189.057 226.567 OFFCURVE",
"236.335 277.918 OFFCURVE",
"344.143 279.657 CURVE",
"344.143 227.09 OFFCURVE",
"347.927 177.612 OFFCURVE",
"358.278 144.91 CURVE",
"336.494 106.865 OFFCURVE",
"302.784 82.722 OFFCURVE",
"257.902 82.722 CURVE SMOOTH"
);
}
);
width = 858.56735;
}
);
leftKerningGroup = a;
leftMetricsKey = a;
rightKerningGroup = e;
rightMetricsKey = e;
unicode = 00E6;
category = Letter;
subCategory = Lowercase;
},
{
glyphname = b;
lastChange = "2019-03-14 17:48:36 +0000";
layers = (
{
anchors = (
{
name = bottom;
position = "{272, 0}";
},
{
name = mark0;
position = "{297, -83}";
},
{
name = top;
position = "{364, 555}";
}
);
layerId = UUID0;
paths = (
{
closed = 1;
nodes = (
"86 756 LINE",
"86 27 LINE",
"99 14 OFFCURVE",
"181 -11 OFFCURVE",
"272 -11 CURVE SMOOTH",
"447 -11 OFFCURVE",
"557 127 OFFCURVE",
"557 298 CURVE SMOOTH",
"557 490 OFFCURVE",
"450 570 OFFCURVE",
"338 570 CURVE SMOOTH",
"260 570 OFFCURVE",
"202 534 OFFCURVE",
"167 501 CURVE",
"167 805 LINE",
"148 819 LINE",
"146 819 LINE",
"0 802 LINE",
"0 765 LINE"
);
},
{
closed = 1;
nodes = (
"394 509 OFFCURVE",
"471 443 OFFCURVE",
"469 284 CURVE SMOOTH",
"466 118 OFFCURVE",
"387 40 OFFCURVE",
"279 40 CURVE SMOOTH",
"229 40 OFFCURVE",
"177 52 OFFCURVE",
"167 75 CURVE",
"167 445 LINE",
"190 470 OFFCURVE",
"242 509 OFFCURVE",
"305 509 CURVE SMOOTH"
);
}
);
width = 603;
},
{
anchors = (
{
name = bottom;
position = "{291.947, -1.478}";
},
{
name = mark0;
position = "{274.098, -83}";
},
{
name = top;
position = "{417.192, 555.739}";
}
);
layerId = "DEBB1CE4-A72D-4960-969E-E04A036D2FA1";
paths = (
{
closed = 1;
nodes = (
"72.702 724.971 LINE",
"72.702 27 LINE",
"86.441 17.694 OFFCURVE",
"161.053 -11 OFFCURVE",
"292.686 -11 CURVE SMOOTH",
"479.506 -11 OFFCURVE",
"593.2 122.567 OFFCURVE",
"593.2 295.784 CURVE SMOOTH",
"593.2 492.216 OFFCURVE",
"497.282 570 OFFCURVE",
"377.894 570 CURVE SMOOTH",
"315.408 570 OFFCURVE",
"263.318 539.91 OFFCURVE",
"232.751 508.388 CURVE",
"232.751 799.829 LINE",
"200.453 819.739 LINE",
"198.453 819.739 LINE",
"1.478 796.09 LINE",
"1.478 738.404 LINE"
);
},
{
closed = 1;
nodes = (
"377.008 472.061 OFFCURVE",
"420.763 418.62 OFFCURVE",
"419.502 278.829 CURVE SMOOTH",
"417.98 123.91 OFFCURVE",
"368.531 51.082 OFFCURVE",
"297.469 51.082 CURVE SMOOTH",
"265.939 51.082 OFFCURVE",
"239.057 60.127 OFFCURVE",
"232.751 72.784 CURVE",
"232.751 434.657 LINE",
"248.363 452.269 OFFCURVE",
"279.678 472.061 OFFCURVE",
"316.082 472.061 CURVE SMOOTH"
);
}
);
width = 625.90204;
}
);
leftKerningGroup = b;
rightKerningGroup = o;
unicode = 0062;
category = Letter;
subCategory = Lowercase;
},
{
glyphname = c;
lastChange = "2019-03-14 17:48:49 +0000";
layers = (
{
anchors = (
{
name = bottom;
position = "{259, 0}";
},
{
name = mark0;
position = "{281, -83}";
},
{
name = top;
position = "{289, 555}";
}
);
layerId = UUID0;
paths = (
{
closed = 1;
nodes = (
"39 113 OFFCURVE",
"124 -11 OFFCURVE",
"286 -11 CURVE SMOOTH",
"355 -11 OFFCURVE",
"430 23 OFFCURVE",
"467 60 CURVE",
"451 93 LINE",
"421 72 OFFCURVE",
"365 47 OFFCURVE",
"304 47 CURVE SMOOTH",
"202 47 OFFCURVE",
"123 128 OFFCURVE",
"124 302 CURVE SMOOTH",
"125 439 OFFCURVE",
"192 523 OFFCURVE",
"295 523 CURVE SMOOTH",
"336 523 OFFCURVE",
"376 517 OFFCURVE",
"381 493 CURVE SMOOTH",
"402 397 LINE",
"452 397 LINE",
"456 540 LINE",
"430 551 OFFCURVE",
"374 570 OFFCURVE",
"316 570 CURVE SMOOTH",
"128 570 OFFCURVE",
"37 429 OFFCURVE",
"38 271 CURVE SMOOTH"
);
}
);
width = 519;
},
{
anchors = (
{
name = bottom;
position = "{278.947, 0}";
},
{
name = mark0;
position = "{287.649, -83}";
},
{
name = top;
position = "{286.784, 555.739}";
}
);
layerId = "DEBB1CE4-A72D-4960-969E-E04A036D2FA1";
paths = (
{
closed = 1;
nodes = (
"26.441 110.045 OFFCURVE",
"104.053 -11 OFFCURVE",
"287.478 -11 CURVE SMOOTH",
"386.767 -11 OFFCURVE",
"463.245 39.253 OFFCURVE",
"487.686 66.649 CURVE",
"461.343 125.506 LINE",
"429.865 106.722 OFFCURVE",
"386.424 87.633 OFFCURVE",
"324.686 87.633 CURVE SMOOTH",
"249.282 87.633 OFFCURVE",
"200.571 160.506 OFFCURVE",
"200.833 303.478 CURVE SMOOTH",
"201.833 450.82 OFFCURVE",
"242.976 497.882 OFFCURVE",
"300.91 497.882 CURVE SMOOTH",
"322.702 497.882 OFFCURVE",
"345.71 491.882 OFFCURVE",
"349.971 473.792 CURVE SMOOTH",
"376.143 358.584 LINE",
"477.118 358.584 LINE",
"484.073 540 LINE",
"451.424 544.351 OFFCURVE",
"405.767 570 OFFCURVE",
"313.045 570 CURVE SMOOTH",
"141.298 570 OFFCURVE",
"25.918 453.38 OFFCURVE",
"26.18 273.955 CURVE SMOOTH"
);
}
);
width = 524.9102;
}
);
leftKerningGroup = o;
leftMetricsKey = o;
rightKerningGroup = c;
unicode = 0063;
category = Letter;
subCategory = Lowercase;
},
{
glyphname = ccedilla;
lastChange = "2019-02-15 20:53:54 +0000";
layers = (
{
anchors = (
{
name = _bottom;
position = "{255, 0}";
},
{
name = bottom;
position = "{255, 0}";
},
{
name = mark0;
position = "{277, -83}";
},
{
name = top;
position = "{285, 555}";
}
);
layerId = UUID0;
paths = (
{
closed = 1;
nodes = (
"34.907 127.63 OFFCURVE",
"104.979 12.255 OFFCURVE",
"238.986 -7.882 CURVE",
"249.931 -26.419 OFFCURVE",
"268 -64.294 OFFCURVE",
"268 -100 CURVE SMOOTH",
"268 -161 OFFCURVE",
"241 -171 OFFCURVE",
"192 -171 CURVE SMOOTH",
"182 -171 OFFCURVE",
"160 -168 OFFCURVE",
"146 -163 CURVE",
"145 -222 LINE",
"163 -229 OFFCURVE",
"193 -235 OFFCURVE",
"216 -235 CURVE SMOOTH",
"291 -235 OFFCURVE",
"335 -211 OFFCURVE",
"338 -143 CURVE SMOOTH",
"340.559 -89.258 OFFCURVE",
"308.189 -36.971 OFFCURVE",
"285.584 -10.97 CURVE",
"353.582 -9.824 OFFCURVE",
"426.64 23.64 OFFCURVE",
"463 60 CURVE",
"447 93 LINE",
"417 72 OFFCURVE",
"361 47 OFFCURVE",
"300 47 CURVE SMOOTH",
"198 47 OFFCURVE",
"119 128 OFFCURVE",
"120 302 CURVE SMOOTH",
"121 439 OFFCURVE",
"188 523 OFFCURVE",
"291 523 CURVE SMOOTH",
"332 523 OFFCURVE",
"372 517 OFFCURVE",
"377 493 CURVE SMOOTH",
"398 397 LINE",
"448 397 LINE",
"452 540 LINE",
"426 551 OFFCURVE",
"370 570 OFFCURVE",
"312 570 CURVE SMOOTH",
"124 570 OFFCURVE",
"33 429 OFFCURVE",
"34 271 CURVE SMOOTH"
);
}
);
width = 509;
},
{
anchors = (
{
name = _bottom;
position = "{283.812, 0}";
},
{
name = bottom;
position = "{283.812, 0}";
},
{
name = mark0;
position = "{292.514, -83}";
},
{
name = top;
position = "{291.649, 555.739}";
}
);
layerId = "DEBB1CE4-A72D-4960-969E-E04A036D2FA1";
paths = (
{
closed = 1;
nodes = (
"31.282 121.176 OFFCURVE",
"98.586 5.763 OFFCURVE",
"256.783 -9.252 CURVE",
"267.536 -27.715 OFFCURVE",
"281.298 -58.938 OFFCURVE",
"281.298 -87.441 CURVE SMOOTH",
"281.298 -149.18 OFFCURVE",
"257.253 -156.224 OFFCURVE",
"211.947 -156.224 CURVE SMOOTH",
"204.163 -156.224 OFFCURVE",
"184.38 -153.963 OFFCURVE",
"170.38 -149.702 CURVE",
"170.118 -241.947 LINE",
"187.38 -249.686 OFFCURVE",
"218.118 -256.424 OFFCURVE",
"241.118 -256.424 CURVE SMOOTH",
"333.11 -256.424 OFFCURVE",
"385.976 -230.208 OFFCURVE",
"390.453 -144.478 CURVE SMOOTH",
"393.65 -86.201 OFFCURVE",
"356.367 -33.711 OFFCURVE",
"331.9 -7.829 CURVE",
"410.146 2.476 OFFCURVE",
"470.747 42.383 OFFCURVE",
"492.551 66.649 CURVE",
"466.208 125.506 LINE",
"434.731 106.722 OFFCURVE",
"391.29 87.633 OFFCURVE",
"329.551 87.633 CURVE SMOOTH",
"254.147 87.633 OFFCURVE",
"205.437 160.506 OFFCURVE",
"205.698 303.478 CURVE SMOOTH",
"206.698 450.82 OFFCURVE",
"247.841 497.882 OFFCURVE",
"305.776 497.882 CURVE SMOOTH",
"327.567 497.882 OFFCURVE",
"350.576 491.882 OFFCURVE",
"354.837 473.792 CURVE SMOOTH",
"381.008 358.584 LINE",
"481.984 358.584 LINE",
"488.939 540 LINE",
"456.29 544.351 OFFCURVE",
"410.633 570 OFFCURVE",
"317.91 570 CURVE SMOOTH",
"146.163 570 OFFCURVE",
"30.784 453.38 OFFCURVE",
"31.045 273.955 CURVE SMOOTH"
);
}
);
width = 523.03673;
}
);
leftKerningGroup = o;
rightKerningGroup = c;
unicode = 00E7;
category = Letter;
subCategory = Lowercase;
},
{
glyphname = d;
lastChange = "2019-04-04 20:31:54 +0000";
layers = (
{
anchors = (
{
name = bottom;
position = "{299, 0}";
},
{
name = center;
position = "{299, 278}";
},
{
name = mark0;
position = "{277, -83}";
},
{
name = top;
position = "{169, 544}";
},
{
name = topright;
position = "{584, 555}";
}
);
layerId = UUID0;
paths = (
{
closed = 1;
nodes = (
"336 -11 OFFCURVE",
"396 30 OFFCURVE",
"431 69 CURVE",
"431 34 LINE SMOOTH",
"431 -5 OFFCURVE",
"446 -9 OFFCURVE",
"473 -9 CURVE SMOOTH",
"511 -9 OFFCURVE",
"543 0 OFFCURVE",
"569 6 CURVE",
"569 45 LINE",
"508 45 LINE",
"508 805 LINE",
"489 819 LINE",
"487 819 LINE",
"323 802 LINE",
"323 766 LINE",
"427 756 LINE",
"427 558 LINE",
"397 565 OFFCURVE",
"360 570 OFFCURVE",
"321 570 CURVE SMOOTH",
"145 570 OFFCURVE",
"36 435 OFFCURVE",
"36 264 CURVE SMOOTH",
"36 76 OFFCURVE",
"141 -11 OFFCURVE",
"255 -11 CURVE SMOOTH"
);
},
{
closed = 1;
nodes = (
"199 52 OFFCURVE",
"122 116 OFFCURVE",
"124 278 CURVE SMOOTH",
"126 448 OFFCURVE",
"207 520 OFFCURVE",
"314 520 CURVE SMOOTH",
"365 520 OFFCURVE",
"416 504 OFFCURVE",
"427 486 CURVE",
"427 118 LINE",
"405 89 OFFCURVE",
"351 52 OFFCURVE",
"288 52 CURVE SMOOTH"
);
}
);
width = 608;
},
{
anchors = (
{
name = bottom;
position = "{312.298, 0}";
},
{
name = center;
position = "{312.298, 278}";
},
{
name = mark0;
position = "{277, -83}";
},
{
name = top;
position = "{123.196, 523.314}";
},
{
name = topright;
position = "{624.633, 555.739}";
}
);
layerId = "DEBB1CE4-A72D-4960-969E-E04A036D2FA1";
paths = (
{
closed = 1;
nodes = (
"310.882 -11 OFFCURVE",
"376.792 21.873 OFFCURVE",
"408.837 69 CURVE",
"408.837 43.604 LINE SMOOTH",
"408.837 -2.784 OFFCURVE",
"430.486 -11.955 OFFCURVE",
"474.478 -11.955 CURVE SMOOTH",
"516.91 -11.955 OFFCURVE",
"571.812 -2.955 OFFCURVE",
"602.245 3.045 CURVE",
"602.245 67.163 LINE",
"550.849 67.163 LINE",
"550.849 796.135 LINE",
"520.029 819.739 LINE",
"515.812 819.739 LINE",
"294.188 799.784 LINE",
"294.188 736.449 LINE",
"390.061 722.016 LINE",
"390.061 563.171 LINE",
"372.62 567.216 OFFCURVE",
"351.873 570 OFFCURVE",
"330.604 570 CURVE SMOOTH",
"130.963 570 OFFCURVE",
"30.09 426.135 OFFCURVE",
"30.09 264.739 CURVE SMOOTH",
"30.09 70.829 OFFCURVE",
"126.963 -11 OFFCURVE",
"246.873 -11 CURVE SMOOTH"
);
},
{
closed = 1;
nodes = (
"246.282 79.335 OFFCURVE",
"201.788 138.163 OFFCURVE",
"203.049 281.694 CURVE SMOOTH",
"204.31 446.522 OFFCURVE",
"258.714 500.792 OFFCURVE",
"325.82 500.792 CURVE SMOOTH",
"354.657 500.792 OFFCURVE",
"381.278 491.441 OFFCURVE",
"390.061 480.09 CURVE",
"390.061 118 LINE",
"375.449 99.343 OFFCURVE",
"347.306 79.335 OFFCURVE",
"306.469 79.335 CURVE SMOOTH"
);
}
);
width = 626.46939;
}
);
leftKerningGroup = d;
rightKerningGroup = d;
unicode = 0064;
category = Letter;
subCategory = Lowercase;
},
{
glyphname = eth;
lastChange = "2019-04-04 20:31:58 +0000";
layers = (
{
layerId = UUID0;
paths = (
{
closed = 1;
nodes = (
"465 -11 OFFCURVE",
"531 185 OFFCURVE",
"531 323 CURVE SMOOTH",
"531 542 OFFCURVE",
"435 704 OFFCURVE",
"265 811 CURVE",
"273 773 LINE",
"363 860 LINE",
"323 892 LINE",
"230 799 LINE",
"266 811 LINE",
"212 841 OFFCURVE",
"160 858 OFFCURVE",
"97 878 CURVE",
"80 834 LINE",
"116 824 OFFCURVE",
"195 794 OFFCURVE",
"226 768 CURVE",
"236 811 LINE",
"135 714 LINE",
"179 684 LINE",
"278 783 LINE",
"225 767 LINE",
"319 716 OFFCURVE",
"372 627 OFFCURVE",
"406 548 CURVE",
"382 560 OFFCURVE",
"340 570 OFFCURVE",
"298 570 CURVE SMOOTH",
"165 570 OFFCURVE",
"42 466 OFFCURVE",
"42 259 CURVE SMOOTH",
"42 124 OFFCURVE",
"117 -11 OFFCURVE",
"289 -11 CURVE SMOOTH"
);
},
{
closed = 1;
nodes = (
"172 37 OFFCURVE",
"131 166 OFFCURVE",
"131 265 CURVE SMOOTH",
"131 428 OFFCURVE",
"198 526 OFFCURVE",
"296 526 CURVE SMOOTH",
"364 526 OFFCURVE",
"406 501 OFFCURVE",
"420 486 CURVE",
"428 461 OFFCURVE",
"442 395 OFFCURVE",
"442 317 CURVE SMOOTH",
"442 172 OFFCURVE",
"397 37 OFFCURVE",
"291 37 CURVE SMOOTH"
);
}
);
width = 572;
},
{
layerId = "DEBB1CE4-A72D-4960-969E-E04A036D2FA1";
paths = (
{
closed = 1;
nodes = (
"509.327 -11 OFFCURVE",
"574.588 176.135 OFFCURVE",
"574.588 331.127 CURVE SMOOTH",
"574.588 570.812 OFFCURVE",
"435 734.29 OFFCURVE",
"281.992 825.037 CURVE",
"267.09 739.016 LINE",
"393.29 863.694 LINE",
"336.298 914.163 LINE",
"203.404 781.269 LINE",
"316.237 804.351 LINE",
"231.208 858.731 OFFCURVE",
"165.91 873.514 OFFCURVE",
"114.731 886.127 CURVE",
"86.649 817.747 LINE",
"121.171 809.224 OFFCURVE",
"195 773.314 OFFCURVE",
"246.686 731.061 CURVE",
"252.253 825.776 LINE",
"119.486 694.792 LINE",
"180.478 645.584 LINE",
"309.767 779.306 LINE",
"209.486 752.963 LINE",
"296.098 705.657 OFFCURVE",
"356.486 641.037 OFFCURVE",
"380.882 553.91 CURVE",
"359.837 562.955 OFFCURVE",
"328.18 570 OFFCURVE",
"289.135 570 CURVE SMOOTH",
"161.306 570 OFFCURVE",
"32.396 474.865 OFFCURVE",
"32.396 267.865 CURVE SMOOTH",
"32.396 107.008 OFFCURVE",
"125.127 -11 OFFCURVE",
"298.604 -11 CURVE SMOOTH"
);
},
{
closed = 1;
nodes = (
"234.796 59.902 OFFCURVE",
"210.049 175.604 OFFCURVE",
"210.049 284.947 CURVE SMOOTH",
"210.049 439.82 OFFCURVE",
"246.759 503.098 OFFCURVE",
"307.082 503.098 CURVE SMOOTH",
"349.224 503.098 OFFCURVE",
"380.882 484.747 OFFCURVE",
"389.71 476.396 CURVE",
"396.971 451.396 OFFCURVE",
"403.584 382.441 OFFCURVE",
"403.584 308.135 CURVE SMOOTH",
"403.584 135.061 OFFCURVE",
"368.927 59.902 OFFCURVE",
"306.514 59.902 CURVE SMOOTH"
);
}
);
width = 603.76735;
}
);
leftKerningGroup = eth;
rightKerningGroup = eth;
unicode = 00F0;
category = Letter;
subCategory = Lowercase;
},
{
color = 11;
glyphname = dcaron;
lastChange = "2019-02-15 20:54:32 +0000";
layers = (
{
anchors = (
{
name = mark0;
position = "{287, -83}";
}
);
components = (
{
name = d;
},
{
name = caroncomb.alt;
transform = "{1, 0, 0, 1, 552, -1}";
}
);
layerId = UUID0;
width = 608;
},
{
anchors = (
{
name = mark0;
position = "{287, -83}";
}
);
associatedMasterId = UUID0;
layerId = "CDD73CC2-1634-49EF-9DBD-A2A7EA9972F4";
name = "Oct 13 16, 15:31";
paths = (
{
closed = 1;
nodes = (
"346 -11 OFFCURVE",
"406 30 OFFCURVE",
"441 69 CURVE",
"441 34 LINE SMOOTH",
"441 -5 OFFCURVE",
"456 -9 OFFCURVE",
"483 -9 CURVE SMOOTH",
"521 -9 OFFCURVE",
"553 0 OFFCURVE",
"579 6 CURVE",
"579 45 LINE",
"518 45 LINE",
"518 805 LINE",
"499 819 LINE",
"497 819 LINE",
"333 802 LINE",
"333 766 LINE",
"437 756 LINE",
"437 558 LINE",
"407 565 OFFCURVE",
"370 570 OFFCURVE",
"331 570 CURVE SMOOTH",
"155 570 OFFCURVE",
"46 435 OFFCURVE",
"46 264 CURVE SMOOTH",
"46 76 OFFCURVE",
"151 -11 OFFCURVE",
"265 -11 CURVE SMOOTH"
);
},
{
closed = 1;
nodes = (
"209 52 OFFCURVE",
"132 116 OFFCURVE",
"134 278 CURVE SMOOTH",
"136 448 OFFCURVE",
"217 520 OFFCURVE",
"324 520 CURVE SMOOTH",
"375 520 OFFCURVE",
"426 504 OFFCURVE",
"437 486 CURVE",
"437 118 LINE",
"415 89 OFFCURVE",
"361 52 OFFCURVE",
"298 52 CURVE SMOOTH"
);
},
{
closed = 1;
nodes = (
"693 541 OFFCURVE",
"719 624 OFFCURVE",
"719 702 CURVE SMOOTH",
"719 749 OFFCURVE",
"708 800 OFFCURVE",
"690 819 CURVE",
"626 805 LINE",
"621 788 LINE",
"633 771 OFFCURVE",
"646 715 OFFCURVE",
"646 660 CURVE SMOOTH",
"646 623 OFFCURVE",
"639 575 OFFCURVE",
"626 535 CURVE",
"627 524 LINE",
"662 510 LINE"
);
}
);
width = 702;
},
{
anchors = (
{
name = mark0;
position = "{279.612, -83}";
}
);
components = (
{
name = d;
},
{
name = caroncomb.alt;
transform = "{1, 0, 0, 1, 577, 0}";
}
);
layerId = "DEBB1CE4-A72D-4960-969E-E04A036D2FA1";
width = 626;
}
);
leftKerningGroup = d;
rightKerningGroup = dcaron;
unicode = 010F;
category = Letter;
subCategory = Lowercase;
},
{
color = 11;
glyphname = dcroat;
lastChange = "2019-02-15 20:53:54 +0000";
layers = (
{
layerId = UUID0;
paths = (
{
closed = 1;
nodes = (
"296 688 LINE",
"296 640 LINE",
"427 640 LINE",
"427 558 LINE",
"397 565 OFFCURVE",
"360 570 OFFCURVE",
"321 570 CURVE SMOOTH",
"145 570 OFFCURVE",
"36 435 OFFCURVE",
"36 264 CURVE SMOOTH",
"36 76 OFFCURVE",
"141 -11 OFFCURVE",
"255 -11 CURVE SMOOTH",
"336 -11 OFFCURVE",
"396 30 OFFCURVE",
"431 69 CURVE",
"431 34 LINE SMOOTH",
"431 -5 OFFCURVE",
"446 -9 OFFCURVE",
"473 -9 CURVE SMOOTH",
"512 -9 OFFCURVE",
"543 0 OFFCURVE",
"569 6 CURVE",
"569 45 LINE",
"508 45 LINE",
"508 640 LINE",
"581 640 LINE",
"581 688 LINE",
"508 688 LINE",
"508 805 LINE",
"489 819 LINE",
"487 819 LINE",
"323 802 LINE",
"323 766 LINE",
"427 756 LINE",
"427 688 LINE"
);
},
{
closed = 1;
nodes = (
"199 52 OFFCURVE",
"122 116 OFFCURVE",
"124 278 CURVE SMOOTH",
"126 448 OFFCURVE",
"207 520 OFFCURVE",
"314 520 CURVE SMOOTH",
"365 520 OFFCURVE",
"416 504 OFFCURVE",
"427 486 CURVE",
"427 118 LINE",
"405 89 OFFCURVE",
"351 52 OFFCURVE",
"288 52 CURVE SMOOTH"
);
}
);
width = 609;
},
{
layerId = "DEBB1CE4-A72D-4960-969E-E04A036D2FA1";
paths = (
{
closed = 1;
nodes = (
"257.584 681.351 LINE",
"257.584 617.098 LINE",
"389.322 617.098 LINE",
"389.322 563.171 LINE",
"371.882 567.216 OFFCURVE",
"351.135 570 OFFCURVE",
"330.604 570 CURVE SMOOTH",
"130.963 570 OFFCURVE",
"30.09 426.135 OFFCURVE",
"30.09 264.739 CURVE SMOOTH",
"30.09 70.829 OFFCURVE",
"126.224 -11 OFFCURVE",
"246.873 -11 CURVE SMOOTH",
"310.882 -11 OFFCURVE",
"376.053 21.873 OFFCURVE",
"408.098 69 CURVE",
"408.098 43.604 LINE SMOOTH",
"408.098 -2.784 OFFCURVE",
"429.747 -11.955 OFFCURVE",
"474.478 -11.955 CURVE SMOOTH",
"516.433 -11.955 OFFCURVE",
"571.073 -2.955 OFFCURVE",
"602.245 3.045 CURVE",
"602.245 67.163 LINE",
"550.11 67.163 LINE",
"550.11 617.098 LINE",
"620.894 617.098 LINE",
"620.894 681.351 LINE",
"550.11 681.351 LINE",
"550.11 796.135 LINE",
"519.29 819.739 LINE",
"515.073 819.739 LINE",
"293.449 799.784 LINE",
"293.449 736.449 LINE",
"389.322 722.016 LINE",
"389.322 681.351 LINE"
);
},
{
closed = 1;
nodes = (
"246.282 79.335 OFFCURVE",
"201.788 138.163 OFFCURVE",
"203.049 281.694 CURVE SMOOTH",
"204.31 446.522 OFFCURVE",
"258.714 500.792 OFFCURVE",
"325.082 500.792 CURVE SMOOTH",
"354.657 500.792 OFFCURVE",
"381.278 491.441 OFFCURVE",
"389.322 480.09 CURVE",
"389.322 118 LINE",
"375.449 99.343 OFFCURVE",
"346.567 79.335 OFFCURVE",
"306.469 79.335 CURVE SMOOTH"
);
}
);
width = 626.73061;
}
);
leftKerningGroup = d;
leftMetricsKey = d;
rightKerningGroup = d;
unicode = 0111;
category = Letter;
subCategory = Lowercase;
},
{
glyphname = e;
lastChange = "2019-02-15 20:53:54 +0000";
layers = (
{
anchors = (
{
name = bottom;
position = "{263, 0}";
},
{
name = mark0;
position = "{290, -83}";
},
{
name = ogonek;
position = "{339, 10}";
},
{
name = top;
position = "{284, 555}";
}
);
layerId = UUID0;
paths = (
{
closed = 1;
nodes = (
"358 -11 OFFCURVE",
"439 21 OFFCURVE",
"477 60 CURVE",
"461 97 LINE",
"430 70 OFFCURVE",
"364 46 OFFCURVE",
"307 46 CURVE SMOOTH",
"188 46 OFFCURVE",
"126 149 OFFCURVE",
"126 284 CURVE",
"482 284 LINE",
"487 306 OFFCURVE",
"488 334 OFFCURVE",
"488 372 CURVE",
"483 501 OFFCURVE",
"414 570 OFFCURVE",
"296 570 CURVE SMOOTH",
"149 570 OFFCURVE",
"40 452 OFFCURVE",
"40 280 CURVE SMOOTH",
"40 109 OFFCURVE",
"123 -11 OFFCURVE",
"281 -11 CURVE SMOOTH"
);
},
{
closed = 1;
nodes = (
"136 470 OFFCURVE",
"196 519 OFFCURVE",
"276 519 CURVE SMOOTH",
"365 519 OFFCURVE",
"400 457 OFFCURVE",
"401 375 CURVE SMOOTH",
"401 361 OFFCURVE",
"400 345 OFFCURVE",
"398 331 CURVE",
"127 331 LINE"
);
}
);
width = 535;
},
{
anchors = (
{
name = bottom;
position = "{275.559, 0}";
},
{
name = mark0;
position = "{275.963, -83}";
},
{
name = ogonek;
position = "{347.127, 10}";
},
{
name = top;
position = "{296.559, 555.739}";
}
);
layerId = "DEBB1CE4-A72D-4960-969E-E04A036D2FA1";
paths = (
{
closed = 1;
nodes = (
"392.722 -11 OFFCURVE",
"484.065 37.253 OFFCURVE",
"513.939 70.343 CURVE",
"486.118 130.984 LINE",
"455.857 112.11 OFFCURVE",
"395.767 89.588 OFFCURVE",
"343.2 89.588 CURVE SMOOTH",
"253.751 89.588 OFFCURVE",
"205.788 151.216 OFFCURVE",
"199.139 264.053 CURVE",
"512.29 264.053 LINE",
"518.029 289.747 OFFCURVE",
"521.245 321.441 OFFCURVE",
"521.245 366.829 CURVE",
"518.461 494.351 OFFCURVE",
"445.029 570 OFFCURVE",
"303.388 570 CURVE SMOOTH",
"137.918 570 OFFCURVE",
"29.657 463.082 OFFCURVE",
"29.657 277.784 CURVE SMOOTH",
"29.657 108.261 OFFCURVE",
"106.747 -11 OFFCURVE",
"297.992 -11 CURVE SMOOTH"
);
},
{
closed = 1;
nodes = (
"201.012 470 OFFCURVE",
"237.371 500.531 OFFCURVE",
"288.559 500.531 CURVE SMOOTH",
"345.053 500.531 OFFCURVE",
"363.061 450.351 OFFCURVE",
"363.322 372.045 CURVE SMOOTH",
"363.322 358.045 OFFCURVE",
"362.322 344.261 OFFCURVE",
"361.8 330.261 CURVE",
"197.922 330.261 LINE"
);
}
);
width = 552.73061;
}
);
leftKerningGroup = o;
rightKerningGroup = e;
unicode = 0065;
category = Letter;
subCategory = Lowercase;
},
{
glyphname = ecedilla;
lastChange = "2019-02-15 20:53:54 +0000";
layers = (
{
anchors = (
{
name = _bottom;
position = "{263, 0}";
},
{
name = bottom;
position = "{263, 0}";
},
{
name = mark0;
position = "{290, -83}";
},
{
name = ogonek;
position = "{339, 10}";
},
{
name = top;
position = "{291, 555}";
}
);
layerId = UUID0;
paths = (
{
closed = 1;
nodes = (
"40 121 OFFCURVE",
"111 7 OFFCURVE",
"248 -9 CURVE",
"259 -28 OFFCURVE",
"276 -65 OFFCURVE",
"276 -100 CURVE SMOOTH",
"276 -161 OFFCURVE",
"249 -171 OFFCURVE",
"200 -171 CURVE SMOOTH",
"190 -171 OFFCURVE",
"166 -168 OFFCURVE",
"152 -163 CURVE",
"153 -222 LINE",
"171 -229 OFFCURVE",
"201 -235 OFFCURVE",
"224 -235 CURVE SMOOTH",
"299 -235 OFFCURVE",
"343 -211 OFFCURVE",
"346 -143 CURVE SMOOTH",
"349 -89 OFFCURVE",
"316 -37 OFFCURVE",
"293 -11 CURVE",
"367 -8 OFFCURVE",
"441 23 OFFCURVE",
"477 60 CURVE",
"461 97 LINE",
"430 70 OFFCURVE",
"364 46 OFFCURVE",
"307 46 CURVE SMOOTH",
"188 46 OFFCURVE",
"126 149 OFFCURVE",
"126 284 CURVE",
"482 284 LINE",
"487 306 OFFCURVE",
"488 334 OFFCURVE",
"488 372 CURVE",
"483 501 OFFCURVE",
"414 570 OFFCURVE",
"296 570 CURVE SMOOTH",
"149 570 OFFCURVE",
"40 452 OFFCURVE",
"40 280 CURVE SMOOTH"
);
},
{
closed = 1;
nodes = (
"136 470 OFFCURVE",
"196 519 OFFCURVE",
"276 519 CURVE SMOOTH",
"365 519 OFFCURVE",
"400 457 OFFCURVE",
"401 375 CURVE SMOOTH",
"401 361 OFFCURVE",
"400 345 OFFCURVE",
"398 331 CURVE",
"127 331 LINE"
);
}
);
width = 535;
},
{
anchors = (
{
name = _bottom;
position = "{275.559, 0}";
},
{
name = bottom;
position = "{275.559, 0}";
},
{
name = mark0;
position = "{275.963, -83}";
},
{
name = ogonek;
position = "{347.127, 10}";
},
{
name = top;
position = "{288.045, 555.739}";
}
);
layerId = "DEBB1CE4-A72D-4960-969E-E04A036D2FA1";
paths = (
{
closed = 1;
nodes = (
"29.657 123.661 OFFCURVE",
"93.261 11.331 OFFCURVE",
"247.874 -7.98 CURVE",
"258.84 -26.454 OFFCURVE",
"273.045 -58.371 OFFCURVE",
"273.045 -87.441 CURVE SMOOTH",
"273.045 -149.18 OFFCURVE",
"249 -156.224 OFFCURVE",
"203.694 -156.224 CURVE SMOOTH",
"195.91 -156.224 OFFCURVE",
"175.604 -153.963 OFFCURVE",
"161.604 -149.702 CURVE",
"161.865 -241.947 LINE",
"179.127 -249.686 OFFCURVE",
"209.865 -256.424 OFFCURVE",
"232.865 -256.424 CURVE SMOOTH",
"324.857 -256.424 OFFCURVE",
"377.722 -230.208 OFFCURVE",
"382.2 -144.478 CURVE SMOOTH",
"385.433 -87.498 OFFCURVE",
"349.813 -36.119 OFFCURVE",
"325.24 -9.659 CURVE",
"409.736 -1.746 OFFCURVE",
"486.756 40.264 OFFCURVE",
"513.939 70.343 CURVE",
"486.118 130.984 LINE",
"455.857 112.11 OFFCURVE",
"395.767 89.588 OFFCURVE",
"343.2 89.588 CURVE SMOOTH",
"253.751 89.588 OFFCURVE",
"205.788 151.216 OFFCURVE",
"199.139 264.053 CURVE",
"512.29 264.053 LINE",
"518.029 289.747 OFFCURVE",
"521.245 321.441 OFFCURVE",
"521.245 366.829 CURVE",
"518.461 494.351 OFFCURVE",
"445.029 570 OFFCURVE",
"303.388 570 CURVE SMOOTH",
"137.918 570 OFFCURVE",
"29.657 463.082 OFFCURVE",
"29.657 277.784 CURVE SMOOTH"
);
},
{
closed = 1;
nodes = (
"201.012 470 OFFCURVE",
"237.371 500.531 OFFCURVE",
"288.559 500.531 CURVE SMOOTH",
"345.053 500.531 OFFCURVE",
"363.061 450.351 OFFCURVE",
"363.322 372.045 CURVE SMOOTH",
"363.322 358.045 OFFCURVE",
"362.322 344.261 OFFCURVE",
"361.8 330.261 CURVE",
"197.922 330.261 LINE"
);
}
);
width = 552.73061;
}
);
leftKerningGroup = o;
leftMetricsKey = e;
rightKerningGroup = e;
rightMetricsKey = e;
unicode = 0229;
category = Letter;
subCategory = Lowercase;
},
{
glyphname = eogonek;
lastChange = "2019-02-15 20:53:54 +0000";
layers = (
{
anchors = (
{
name = _ogonek;
position = "{339, 10}";
},
{
name = bottom;
position = "{263, 0}";
},
{
name = mark0;
position = "{290, -83}";
},
{
name = ogonek;
position = "{339, 10}";
},
{
name = top;
position = "{295, 555}";
}
);
layerId = UUID0;
paths = (
{
closed = 1;
nodes = (
"361 -243 OFFCURVE",
"399 -214 OFFCURVE",
"424 -197 CURVE",
"423 -152 LINE",
"406 -162 OFFCURVE",
"362 -191 OFFCURVE",
"316 -191 CURVE SMOOTH",
"269 -191 OFFCURVE",
"243 -175 OFFCURVE",
"243 -127 CURVE SMOOTH",
"243 -84 OFFCURVE",
"318 -19 OFFCURVE",
"378 5 CURVE",
"419 18 OFFCURVE",
"455 38 OFFCURVE",
"477 60 CURVE",
"461 97 LINE",
"430 70 OFFCURVE",
"364 46 OFFCURVE",
"307 46 CURVE SMOOTH",
"188 46 OFFCURVE",
"126 149 OFFCURVE",
"126 284 CURVE",
"482 284 LINE",
"487 306 OFFCURVE",
"488 334 OFFCURVE",
"488 372 CURVE",
"483 501 OFFCURVE",
"414 570 OFFCURVE",
"296 570 CURVE SMOOTH",
"149 570 OFFCURVE",
"40 452 OFFCURVE",
"40 280 CURVE SMOOTH",
"40 109 OFFCURVE",
"123 -11 OFFCURVE",
"281 -11 CURVE",
"222 -46 OFFCURVE",
"168 -91 OFFCURVE",
"168 -150 CURVE SMOOTH",
"168 -214 OFFCURVE",
"224 -243 OFFCURVE",
"280 -243 CURVE SMOOTH"
);
},
{
closed = 1;
nodes = (
"136 470 OFFCURVE",
"196 519 OFFCURVE",
"276 519 CURVE SMOOTH",
"365 519 OFFCURVE",
"400 457 OFFCURVE",
"401 375 CURVE SMOOTH",
"401 361 OFFCURVE",
"400 345 OFFCURVE",
"398 331 CURVE",
"127 331 LINE"
);
}
);
width = 535;
},
{
anchors = (
{
name = _ogonek;
position = "{347.127, 10}";
},
{
name = bottom;
position = "{275.559, 0}";
},
{
name = mark0;
position = "{275.963, -83}";
},
{
name = ogonek;
position = "{347.127, 10}";
},
{
name = top;
position = "{289.09, 555.739}";
}
);
layerId = "DEBB1CE4-A72D-4960-969E-E04A036D2FA1";
paths = (
{
closed = 1;
nodes = (
"357.306 -241.522 OFFCURVE",
"409.343 -222.865 OFFCURVE",
"446.163 -195.522 CURVE",
"445.163 -134.269 LINE",
"423.731 -142.792 OFFCURVE",
"398.939 -153.322 OFFCURVE",
"369.931 -153.322 CURVE SMOOTH",
"328.102 -153.322 OFFCURVE",
"305.796 -133.629 OFFCURVE",
"305.796 -100.404 CURVE SMOOTH",
"305.796 -58.882 OFFCURVE",
"352.722 -13.09 OFFCURVE",
"408.22 8.834 CURVE",
"456.98 25.914 OFFCURVE",
"496.371 52.776 OFFCURVE",
"513.939 70.343 CURVE",
"486.118 130.984 LINE",
"455.857 112.11 OFFCURVE",
"395.767 89.588 OFFCURVE",
"343.2 89.588 CURVE SMOOTH",
"253.751 89.588 OFFCURVE",
"205.788 151.216 OFFCURVE",
"199.139 264.053 CURVE",
"512.29 264.053 LINE",
"518.029 289.747 OFFCURVE",
"521.245 321.441 OFFCURVE",
"521.245 366.829 CURVE",
"518.461 494.351 OFFCURVE",
"445.029 570 OFFCURVE",
"303.388 570 CURVE SMOOTH",
"137.918 570 OFFCURVE",
"29.657 463.082 OFFCURVE",
"29.657 277.784 CURVE SMOOTH",
"29.657 114.919 OFFCURVE",
"100.996 -1.519 OFFCURVE",
"274.801 -10.258 CURVE",
"210.704 -45.415 OFFCURVE",
"175.388 -94.088 OFFCURVE",
"175.388 -141.873 CURVE SMOOTH",
"175.388 -211.784 OFFCURVE",
"245.424 -241.522 OFFCURVE",
"306.596 -241.522 CURVE SMOOTH"
);
},
{
closed = 1;
nodes = (
"201.012 470 OFFCURVE",
"237.371 500.531 OFFCURVE",
"288.559 500.531 CURVE SMOOTH",
"345.053 500.531 OFFCURVE",
"363.061 450.351 OFFCURVE",
"363.322 372.045 CURVE SMOOTH",
"363.322 358.045 OFFCURVE",
"362.322 344.261 OFFCURVE",
"361.8 330.261 CURVE",
"197.922 330.261 LINE"
);
}
);
width = 552.73061;
}
);
leftKerningGroup = o;
leftMetricsKey = e;
rightKerningGroup = e;
rightMetricsKey = e;
unicode = 0119;
category = Letter;
subCategory = Lowercase;
},
{
color = 11;
glyphname = ezh;
lastChange = "2019-02-15 20:53:54 +0000";
layers = (
{
anchors = (
{
name = top;
position = "{284, 555}";
}
);
layerId = UUID0;
paths = (
{
closed = 1;
nodes = (
"511 514 LINE",
"495 554 LINE",
"63 554 LINE",
"61 382 LINE",
"119 382 LINE",
"142 505 LINE",
"409 505 LINE",
"183 183 LINE",
"204 151 LINE",
"362 164 OFFCURVE",
"415 65 OFFCURVE",
"415 -5 CURVE SMOOTH",
"415 -133 OFFCURVE",
"338 -200 OFFCURVE",
"211 -200 CURVE SMOOTH",
"181 -200 OFFCURVE",
"153 -192 OFFCURVE",
"129 -181 CURVE",
"101 -48 LINE",
"57 -48 LINE",
"60 -212 LINE",
"80 -221 OFFCURVE",
"134 -249 OFFCURVE",
"229 -249 CURVE SMOOTH",
"380 -249 OFFCURVE",
"507 -162 OFFCURVE",
"507 -3 CURVE SMOOTH",
"507 104 OFFCURVE",
"429 203 OFFCURVE",
"273 197 CURVE"
);
}
);
width = 576;
},
{
anchors = (
{
name = top;
position = "{288.433, 555}";
}
);
layerId = "DEBB1CE4-A72D-4960-969E-E04A036D2FA1";
paths = (
{
closed = 1;
nodes = (
"540.551 492.576 LINE",
"518.641 555.478 LINE",
"38.62 555.478 LINE",
"41.053 365.008 LINE",
"138.947 365.008 LINE",
"164.163 471.016 LINE",
"368.367 476.188 LINE",
"185.955 193.343 LINE",
"211.388 148.045 LINE",
"348.702 152.18 OFFCURVE",
"374.367 58.351 OFFCURVE",
"374.367 -3.522 CURVE SMOOTH",
"374.367 -133 OFFCURVE",
"305.494 -182.269 OFFCURVE",
"215.433 -182.269 CURVE SMOOTH",
"195.776 -182.269 OFFCURVE",
"177.38 -177.224 OFFCURVE",
"161.506 -169.918 CURVE",
"115.037 -20.665 LINE",
"35.576 -20.665 LINE",
"45.224 -212 LINE",
"73.351 -229.127 OFFCURVE",
"148.037 -258.604 OFFCURVE",
"254.857 -258.604 CURVE SMOOTH",
"440.58 -258.604 OFFCURVE",
"553.543 -156.829 OFFCURVE",
"553.543 -2.261 CURVE SMOOTH",
"553.543 134.29 OFFCURVE",
"469.633 219.992 OFFCURVE",
"328.408 220.641 CURVE"
);
}
);
width = 590.77551;
}
);
leftKerningGroup = ezh;
rightKerningGroup = ezh;
unicode = 0292;
category = Letter;
subCategory = Lowercase;
},
{
glyphname = f;
lastChange = "2019-04-04 02:32:56 +0000";
layers = (
{
anchors = (
{
name = top;
position = "{113, 677}";
}
);
layerId = UUID0;
paths = (
{
closed = 1;
nodes = (
"44 43 LINE",
"44 0 LINE",
"327 0 LINE",
"327 43 LINE",
"213 50 LINE",
"213 495 LINE",
"358 495 LINE",
"358 555 LINE",
"213 555 LINE",
"213 631 LINE SMOOTH",
"213 723 OFFCURVE",
"245 754 OFFCURVE",
"314 754 CURVE SMOOTH",
"361 754 OFFCURVE",
"394 743 OFFCURVE",
"403 736 CURVE",
"403 818 LINE",
"391 822 OFFCURVE",
"377 826 OFFCURVE",
"347 826 CURVE SMOOTH",
"239 826 OFFCURVE",
"132 728 OFFCURVE",
"132 605 CURVE SMOOTH",
"132 554 LINE",
"31 535 LINE",
"31 495 LINE",
"132 495 LINE",
"132 51 LINE"
);
}
);
width = 395;
},
{
anchors = (
{
name = top;
position = "{98.963, 699.163}";
}
);
layerId = "DEBB1CE4-A72D-4960-969E-E04A036D2FA1";
paths = (
{
closed = 1;
nodes = (
"32.918 65.902 LINE",
"32.918 0 LINE",
"373.543 0 LINE",
"373.543 65.902 LINE",
"272.102 75.118 LINE",
"272.102 472.098 LINE",
"392.722 472.098 LINE",
"392.722 555.739 LINE",
"272.102 555.739 LINE",
"272.102 643.559 LINE SMOOTH",
"272.102 696.404 OFFCURVE",
"290.804 717.061 OFFCURVE",
"342.812 717.061 CURVE SMOOTH",
"380.208 717.061 OFFCURVE",
"418.38 709.016 OFFCURVE",
"438.461 693.151 CURVE",
"439.2 829.082 LINE",
"430.894 831.604 OFFCURVE",
"410.245 837.82 OFFCURVE",
"372.118 837.82 CURVE SMOOTH",
"230.135 837.82 OFFCURVE",
"109.098 733.171 OFFCURVE",
"109.098 596.873 CURVE SMOOTH",
"109.098 554 LINE",
"31 533.522 LINE",
"31 472.098 LINE",
"109.098 472.098 LINE",
"109.098 75.38 LINE"
);
}
);
width = 414.20816;
}
);
leftKerningGroup = f;
rightKerningGroup = f;
unicode = 0066;
category = Letter;
subCategory = Lowercase;
},
{
glyphname = g;
lastChange = "2019-04-04 02:33:02 +0000";
layers = (
{
anchors = (
{
name = bottom;
position = "{291, 0}";
},
{
name = top;
position = "{300, 555}";
}
);
layerId = UUID0;
paths = (
{
closed = 1;
nodes = (
"438 -270 OFFCURVE",
"567 -176 OFFCURVE",
"567 -67 CURVE SMOOTH",
"567 16 OFFCURVE",
"513 70 OFFCURVE",
"385 70 CURVE SMOOTH",
"267 70 LINE SMOOTH",
"187 70 OFFCURVE",
"157 86 OFFCURVE",
"157 138 CURVE SMOOTH",
"157 163 OFFCURVE",
"172 189 OFFCURVE",
"196 208 CURVE",
"219 202 OFFCURVE",
"244 199 OFFCURVE",
"271 199 CURVE SMOOTH",
"392 199 OFFCURVE",
"493 278 OFFCURVE",
"493 399 CURVE SMOOTH",
"493 438 OFFCURVE",
"482 471 OFFCURVE",
"464 496 CURVE",
"578 496 LINE",
"578 570 LINE",
"545 570 LINE SMOOTH",
"491 570 OFFCURVE",
"445 542 OFFCURVE",
"431 529 CURVE",
"393 557 OFFCURVE",
"340 570 OFFCURVE",
"282 570 CURVE SMOOTH",
"172 570 OFFCURVE",
"59 501 OFFCURVE",
"59 379 CURVE SMOOTH",
"59 305 OFFCURVE",
"98 251 OFFCURVE",
"159 222 CURVE",
"117 200 OFFCURVE",
"84 154 OFFCURVE",
"84 103 CURVE SMOOTH",
"84 63 OFFCURVE",
"101 36 OFFCURVE",
"131 20 CURVE",
"87 -4 OFFCURVE",
"38 -55 OFFCURVE",
"38 -120 CURVE SMOOTH",
"38 -208 OFFCURVE",
"100 -270 OFFCURVE",
"274 -270 CURVE"
);
},
{
closed = 1;
nodes = (
"156 -219 OFFCURVE",
"119 -176 OFFCURVE",
"119 -104 CURVE SMOOTH",
"119 -57 OFFCURVE",
"141 -20 OFFCURVE",
"168 6 CURVE",
"189 1 OFFCURVE",
"214 0 OFFCURVE",
"241 0 CURVE",
"365 0 LINE SMOOTH",
"473 0 OFFCURVE",
"491 -34 OFFCURVE",
"491 -90 CURVE SMOOTH",
"491 -171 OFFCURVE",
"385 -219 OFFCURVE",
"279 -219 CURVE"
);
},
{
closed = 1;
nodes = (
"184 248 OFFCURVE",
"144 311 OFFCURVE",
"144 390 CURVE SMOOTH",
"144 491 OFFCURVE",
"203 521 OFFCURVE",
"276 521 CURVE",
"361 521 OFFCURVE",
"408 481 OFFCURVE",
"408 388 CURVE SMOOTH",
"408 297 OFFCURVE",
"368 248 OFFCURVE",
"281 248 CURVE SMOOTH"
);
}
);
width = 593;
},
{
anchors = (
{
name = bottom;
position = "{311.686, 0}";
},
{
name = top;
position = "{313.298, 555.739}";
}
);
layerId = "DEBB1CE4-A72D-4960-969E-E04A036D2FA1";
paths = (
{
closed = 1;
nodes = (
"447.604 -270 OFFCURVE",
"609.11 -188.559 OFFCURVE",
"609.11 -51.486 CURVE SMOOTH",
"609.11 51.461 OFFCURVE",
"536.641 100.29 OFFCURVE",
"397.559 100.29 CURVE SMOOTH",
"294.335 100.29 LINE SMOOTH",
"213.596 100.29 OFFCURVE",
"183.596 116.29 OFFCURVE",
"183.596 157.208 CURVE SMOOTH",
"183.596 174.82 OFFCURVE",
"188.992 186.784 OFFCURVE",
"201.171 199.873 CURVE",
"224.171 195.351 OFFCURVE",
"251.388 193.09 OFFCURVE",
"281.343 193.09 CURVE SMOOTH",
"444.453 193.09 OFFCURVE",
"532.155 272.829 OFFCURVE",
"531.416 393.09 CURVE SMOOTH",
"531.416 414.359 OFFCURVE",
"527.804 433.322 OFFCURVE",
"521.624 450.196 CURVE",
"620.849 450.196 LINE",
"620.849 572.216 LINE",
"584.894 572.216 LINE SMOOTH",
"538.282 572.216 OFFCURVE",
"494.498 544.216 OFFCURVE",
"478.282 523.829 CURVE",
"440.282 554.045 OFFCURVE",
"381.371 570 OFFCURVE",
"295.298 570 CURVE SMOOTH",
"157.224 570 OFFCURVE",
"41.269 500.261 OFFCURVE",
"41.269 382.694 CURVE SMOOTH",
"41.269 305.739 OFFCURVE",
"71.404 242.873 OFFCURVE",
"153.09 213.135 CURVE",
"103.702 191.135 OFFCURVE",
"72.18 146.612 OFFCURVE",
"72.18 103.739 CURVE SMOOTH",
"72.18 67.433 OFFCURVE",
"85.486 37.478 OFFCURVE",
"118.441 17.784 CURVE",
"64.098 1.171 OFFCURVE",
"23.963 -41.702 OFFCURVE",
"23.963 -105.224 CURVE SMOOTH",
"23.963 -212.433 OFFCURVE",
"121.424 -270 OFFCURVE",
"285.082 -270 CURVE"
);
},
{
closed = 1;
nodes = (
"216.58 -194.62 OFFCURVE",
"176.624 -150.143 OFFCURVE",
"176.624 -81.837 CURVE SMOOTH",
"176.624 -48.135 OFFCURVE",
"188.282 -22.955 OFFCURVE",
"201.245 -5.082 CURVE",
"211.902 -6.388 OFFCURVE",
"224.343 -7.388 OFFCURVE",
"237.306 -7.388 CURVE",
"347.269 -7.388 LINE SMOOTH",
"417.592 -7.388 OFFCURVE",
"441.502 -28.829 OFFCURVE",
"441.502 -84.09 CURVE SMOOTH",
"441.502 -159.18 OFFCURVE",
"370.224 -194.62 OFFCURVE",
"303.38 -194.62 CURVE"
);
},
{
closed = 1;
nodes = (
"230.543 260.559 OFFCURVE",
"206.057 306.567 OFFCURVE",
"206.057 387.045 CURVE SMOOTH",
"206.057 463.665 OFFCURVE",
"234.029 505.486 OFFCURVE",
"290.776 505.486 CURVE",
"346.224 505.486 OFFCURVE",
"371.061 468.441 OFFCURVE",
"371.061 382.829 CURVE SMOOTH",
"371.061 308.82 OFFCURVE",
"350.269 260.559 OFFCURVE",
"291.343 260.559 CURVE SMOOTH"
);
}
);
width = 636.58776;
}
);
leftKerningGroup = g;
rightKerningGroup = g;
unicode = 0067;
category = Letter;
subCategory = Lowercase;
},
{
glyphname = gstroke;
lastChange = "2019-04-04 02:30:19 +0000";
layers = (
{
components = (
{
name = g;
}
);
layerId = UUID0;
paths = (
{
closed = 1;
nodes = (
"-12 -83 LINE",
"-12 -143 LINE",
"616 -143 LINE",
"616 -83 LINE"
);
}
);
width = 593;
},
{
components = (
{
alignment = -1;
name = g;
}
);
layerId = "DEBB1CE4-A72D-4960-969E-E04A036D2FA1";
paths = (
{
closed = 1;
nodes = (
"-19.388 -74.135 LINE",
"-19.388 -134.135 LINE",
"652.2 -134.135 LINE",
"652.2 -74.135 LINE"
);
}
);
width = 636.58776;
}
);
leftKerningGroup = gstroke;
widthMetricsKey = g;
rightKerningGroup = gstroke;
unicode = 01E5;
category = Letter;
subCategory = Lowercase;
},
{
glyphname = h;
lastChange = "2019-04-04 02:33:15 +0000";
layers = (
{
anchors = (
{
name = bottom;
position = "{326, 0}";
},
{
name = center;
position = "{326, 278}";
},
{
name = mark0;
position = "{335, -83}";
},
{
name = top;
position = "{127, 801}";
}
);
layerId = UUID0;
paths = (
{
closed = 1;
nodes = (
"40 43 LINE",
"40 0 LINE",
"257 0 LINE",
"257 43 LINE",
"183 51 LINE",
"183 440 LINE",
"225 472 OFFCURVE",
"293 506 OFFCURVE",
"350 506 CURVE SMOOTH",
"449 506 OFFCURVE",
"465 451 OFFCURVE",
"465 334 CURVE SMOOTH",
"465 51 LINE",
"395 43 LINE",
"395 0 LINE",
"619 0 LINE",
"619 43 LINE",
"546 51 LINE",
"546 333 LINE SMOOTH",
"546 498 OFFCURVE",
"512 568 OFFCURVE",
"385 568 CURVE SMOOTH",
"302 568 OFFCURVE",
"214 515 OFFCURVE",
"181 485 CURVE",
"183 568 LINE",
"183 806 LINE",
"164 819 LINE",
"162 819 LINE",
"14 802 LINE",
"14 765 LINE",
"103 756 LINE",
"103 50 LINE"
);
}
);
width = 647;
},
{
anchors = (
{
name = bottom;
position = "{338.559, 0}";
},
{
name = center;
position = "{338.559, 278}";
},
{
name = mark0;
position = "{329.829, -83}";
},
{
name = top;
position = "{156.551, 798.045}";
}
);
layerId = "DEBB1CE4-A72D-4960-969E-E04A036D2FA1";
paths = (
{
closed = 1;
nodes = (
"34.829 65.902 LINE",
"34.829 0 LINE",
"309.453 0 LINE",
"309.453 65.902 LINE",
"253.922 75.38 LINE",
"253.922 430.396 LINE",
"277.453 451.314 OFFCURVE",
"316.641 472.755 OFFCURVE",
"357.388 472.755 CURVE SMOOTH",
"420.188 472.755 OFFCURVE",
"433.233 436.963 OFFCURVE",
"433.233 348.037 CURVE SMOOTH",
"433.233 75.38 LINE",
"380.224 65.902 LINE",
"380.224 0 LINE",
"658.155 0 LINE",
"658.155 65.902 LINE",
"596.976 75.38 LINE",
"596.976 348.514 LINE SMOOTH",
"596.976 498 OFFCURVE",
"563.714 567.261 OFFCURVE",
"435.976 567.261 CURVE SMOOTH",
"345.588 567.261 OFFCURVE",
"275.318 523.127 OFFCURVE",
"242.318 493.127 CURVE",
"250.229 582.037 LINE",
"249.49 798.612 LINE",
"220.147 819.739 LINE",
"217.408 819.739 LINE",
"16.216 796.09 LINE",
"16.216 735.449 LINE",
"87.486 722.016 LINE",
"87.486 75.118 LINE"
);
}
);
width = 681;
}
);
leftKerningGroup = h;
rightKerningGroup = n;
rightMetricsKey = n;
unicode = 0068;
category = Letter;
subCategory = Lowercase;
},
{
glyphname = hbar;
lastChange = "2019-02-15 20:53:54 +0000";
layers = (
{
layerId = UUID0;
paths = (
{
closed = 1;
nodes = (
"7 680 LINE",
"7 632 LINE",
"100 632 LINE",
"100 50 LINE",
"38 43 LINE",
"38 0 LINE",
"255 0 LINE",
"255 43 LINE",
"181 51 LINE",
"181 440 LINE",
"223 472 OFFCURVE",
"291 506 OFFCURVE",
"348 506 CURVE SMOOTH",
"446 506 OFFCURVE",
"463 451 OFFCURVE",
"463 334 CURVE SMOOTH",
"463 51 LINE",
"393 43 LINE",
"393 0 LINE",
"617 0 LINE",
"617 43 LINE",
"543 51 LINE",
"543 333 LINE SMOOTH",
"543 498 OFFCURVE",
"509 568 OFFCURVE",
"383 568 CURVE SMOOTH",
"299 568 OFFCURVE",
"212 515 OFFCURVE",
"178 485 CURVE",
"181 568 LINE",
"181 632 LINE",
"315 632 LINE",
"315 680 LINE",
"181 680 LINE",
"181 806 LINE",
"162 819 LINE",
"159 819 LINE",
"12 802 LINE",
"12 765 LINE",
"100 756 LINE",
"100 680 LINE"
);
}
);
width = 662;
},
{
layerId = "DEBB1CE4-A72D-4960-969E-E04A036D2FA1";
paths = (
{
closed = 1;
nodes = (
"9.216 675.567 LINE",
"9.216 609.098 LINE",
"88.18 609.098 LINE",
"88.18 75.118 LINE",
"36.522 65.902 LINE",
"36.522 0 LINE",
"311.147 0 LINE",
"311.147 65.902 LINE",
"254.878 75.38 LINE",
"254.878 430.396 LINE",
"278.408 451.314 OFFCURVE",
"318.335 472.755 OFFCURVE",
"359.082 472.755 CURVE SMOOTH",
"421.62 472.755 OFFCURVE",
"434.188 436.963 OFFCURVE",
"434.188 348.037 CURVE SMOOTH",
"434.188 75.38 LINE",
"381.918 65.902 LINE",
"381.918 0 LINE",
"659.11 0 LINE",
"659.11 65.902 LINE",
"598.408 75.38 LINE",
"598.408 348.514 LINE SMOOTH",
"598.408 498 OFFCURVE",
"564.408 567.261 OFFCURVE",
"436.931 567.261 CURVE SMOOTH",
"347.02 567.261 OFFCURVE",
"277.012 523.127 OFFCURVE",
"243.012 493.127 CURVE",
"251.184 582.037 LINE",
"251.184 609.098 LINE",
"382.967 609.098 LINE",
"382.967 675.567 LINE",
"251.184 675.567 LINE",
"251.184 798.612 LINE",
"221.841 819.739 LINE",
"218.841 819.739 LINE",
"17.171 796.09 LINE",
"17.171 735.449 LINE",
"88.18 722.016 LINE",
"88.18 675.567 LINE"
);
}
);
width = 681.20816;
}
);
leftKerningGroup = h;
rightKerningGroup = n;
unicode = 0127;
category = Letter;
subCategory = Lowercase;
},
{
glyphname = i;
lastChange = "2019-03-14 17:36:53 +0000";
layers = (
{
anchors = (
{
name = mark0;
position = "{153, -83}";
}
);
layerId = UUID0;
paths = (
{
closed = 1;
nodes = (
"157 660 LINE",
"198 660 OFFCURVE",
"221 685 OFFCURVE",
"221 726 CURVE SMOOTH",
"221 754 OFFCURVE",
"209 783 OFFCURVE",
"165 783 CURVE SMOOTH",
"125 783 OFFCURVE",
"102 755 OFFCURVE",
"102 717 CURVE SMOOTH",
"102 686 OFFCURVE",
"115 660 OFFCURVE",
"156 660 CURVE"
);
},
{
closed = 1;
nodes = (
"36 43 LINE",
"36 0 LINE",
"292 0 LINE",
"292 43 LINE",
"205 50 LINE",
"205 551 LINE",
"185 567 LINE",
"183 567 LINE",
"46 551 LINE",
"46 506 LINE",
"124 489 LINE",
"124 51 LINE"
);
}
);
width = 322;
},
{
anchors = (
{
name = mark0;
position = "{178.118, -83}";
}
);
layerId = "DEBB1CE4-A72D-4960-969E-E04A036D2FA1";
paths = (
{
closed = 1;
nodes = (
"165.127 641.531 LINE",
"231.984 641.531 OFFCURVE",
"267.543 682.784 OFFCURVE",
"267.543 737.82 CURVE SMOOTH",
"267.543 782.812 OFFCURVE",
"237.073 819.939 OFFCURVE",
"175.343 819.939 CURVE SMOOTH",
"113.918 819.939 OFFCURVE",
"76.882 777.902 OFFCURVE",
"76.882 723.649 CURVE SMOOTH",
"76.882 677.135 OFFCURVE",
"111.306 641.531 OFFCURVE",
"164.127 641.531 CURVE"
);
},
{
closed = 1;
nodes = (
"40.433 65.902 LINE",
"40.433 0 LINE",
"328.939 0 LINE",
"328.939 65.902 LINE",
"268.535 75.118 LINE",
"268.535 548.045 LINE",
"238.192 569.216 LINE",
"236.192 569.216 LINE",
"35.657 545.09 LINE",
"35.657 469.8 LINE",
"103.314 450.584 LINE",
"103.314 75.38 LINE"
);
}
);
width = 353.02857;
}
);
leftKerningGroup = i;
rightKerningGroup = i;
unicode = 0069;
category = Letter;
subCategory = Lowercase;
},
{
glyphname = idotless;
lastChange = "2019-02-15 20:53:54 +0000";
layers = (
{
anchors = (
{
name = bottom;
position = "{156, 0}";
},
{
name = mark0;
position = "{153, -83}";
},
{
name = ogonek;
position = "{196, 10}";
},
{
name = top;
position = "{156, 556}";
}
);
layerId = UUID0;
paths = (
{
closed = 1;
nodes = (
"36 43 LINE",
"36 0 LINE",
"292 0 LINE",
"292 43 LINE",
"205 50 LINE",
"205 551 LINE",
"185 567 LINE",
"183 567 LINE",
"46 551 LINE",
"46 506 LINE",
"124 489 LINE",
"124 51 LINE"
);
}
);
width = 322;
},
{
anchors = (
{
name = bottom;
position = "{181.857, 0}";
},
{
name = mark0;
position = "{179.596, -83}";
},
{
name = ogonek;
position = "{222.596, 10}";
},
{
name = top;
position = "{178.163, 556}";
}
);
layerId = "DEBB1CE4-A72D-4960-969E-E04A036D2FA1";
paths = (
{
closed = 1;
nodes = (
"40.433 65.902 LINE",
"40.433 0 LINE",
"328.939 0 LINE",
"328.939 65.902 LINE",
"268.535 75.118 LINE",
"268.535 548.045 LINE",
"238.192 569.216 LINE",
"236.192 569.216 LINE",
"35.657 545.09 LINE",
"35.657 469.8 LINE",
"103.314 450.584 LINE",
"103.314 75.38 LINE"
);
}
);
width = 353.02857;
}
);
leftKerningGroup = i;
rightKerningGroup = i;
unicode = 0131;
category = Letter;
subCategory = Lowercase;
},
{
glyphname = iogonek;
lastChange = "2019-02-15 20:53:54 +0000";
layers = (
{
anchors = (
{
name = _ogonek;
position = "{202, 10}";
},
{
name = bottom;
position = "{162, 0}";
},
{
name = mark0;
position = "{159, -83}";
},
{
name = ogonek;
position = "{202, 10}";
},
{
name = top;
position = "{162, 555}";
}
);
layerId = UUID0;
paths = (
{
closed = 1;
nodes = (
"161 660 LINE",
"202 660 OFFCURVE",
"225 685 OFFCURVE",
"225 726 CURVE SMOOTH",
"225 754 OFFCURVE",
"213 783 OFFCURVE",
"169 783 CURVE SMOOTH",
"129 783 OFFCURVE",
"106 755 OFFCURVE",
"106 717 CURVE SMOOTH",
"106 686 OFFCURVE",
"119 660 OFFCURVE",
"160 660 CURVE"
);
},
{
closed = 1;
nodes = (
"233 -243 OFFCURVE",
"268 -214 OFFCURVE",
"293 -195 CURVE",
"293 -152 LINE",
"276 -162 OFFCURVE",
"232 -191 OFFCURVE",
"186 -191 CURVE SMOOTH",
"149 -191 OFFCURVE",
"123 -170 OFFCURVE",
"123 -128 CURVE SMOOTH",
"123 -87 OFFCURVE",
"172.201 -26.408 OFFCURVE",
"230.322 0 CURVE",
"298 0 LINE",
"298 43 LINE",
"211 50 LINE",
"211 551 LINE",
"191 567 LINE",
"189 567 LINE",
"52 551 LINE",
"52 506 LINE",
"130 489 LINE",
"130 51 LINE",
"42 43 LINE",
"42 0 LINE",
"163.988 0 LINE",
"97.907 -32.588 OFFCURVE",
"48 -98 OFFCURVE",
"48 -151 CURVE SMOOTH",
"48 -212 OFFCURVE",
"104 -243 OFFCURVE",
"152 -243 CURVE SMOOTH"
);
}
);
width = 324;
},
{
anchors = (
{
name = _ogonek;
position = "{222.686, 10}";
},
{
name = bottom;
position = "{181.947, 0}";
},
{
name = mark0;
position = "{179.686, -83}";
},
{
name = ogonek;
position = "{222.686, 10}";
},
{
name = top;
position = "{178.253, 555.739}";
}
);
layerId = "DEBB1CE4-A72D-4960-969E-E04A036D2FA1";
paths = (
{
closed = 1;
nodes = (
"170.604 641.531 LINE",
"237.461 641.531 OFFCURVE",
"273.02 682.784 OFFCURVE",
"273.02 737.82 CURVE SMOOTH",
"273.02 782.812 OFFCURVE",
"242.551 819.939 OFFCURVE",
"180.82 819.939 CURVE SMOOTH",
"119.396 819.939 OFFCURVE",
"82.359 777.902 OFFCURVE",
"82.359 723.649 CURVE SMOOTH",
"82.359 677.135 OFFCURVE",
"116.784 641.531 OFFCURVE",
"169.604 641.531 CURVE"
);
},
{
closed = 1;
nodes = (
"240.388 -241.522 OFFCURVE",
"291.641 -224.343 OFFCURVE",
"318.857 -203.865 CURVE",
"319.596 -134.269 LINE",
"298.163 -142.792 OFFCURVE",
"281.498 -153.322 OFFCURVE",
"252.49 -153.322 CURVE SMOOTH",
"213.273 -153.322 OFFCURVE",
"190.967 -132.322 OFFCURVE",
"190.967 -100.665 CURVE SMOOTH",
"190.967 -69.066 OFFCURVE",
"216.509 -26.582 OFFCURVE",
"271.34 0 CURVE",
"329.029 0 LINE",
"329.029 65.902 LINE",
"268.624 75.118 LINE",
"268.624 548.045 LINE",
"238.282 569.216 LINE",
"236.282 569.216 LINE",
"35.747 545.09 LINE",
"35.747 469.8 LINE",
"103.404 450.584 LINE",
"103.404 75.38 LINE",
"40.522 65.902 LINE",
"40.522 0 LINE",
"176.012 0 LINE",
"99.21 -34.563 OFFCURVE",
"60.559 -92.715 OFFCURVE",
"60.559 -142.135 CURVE SMOOTH",
"60.559 -211.261 OFFCURVE",
"130.596 -241.522 OFFCURVE",
"189.678 -241.522 CURVE SMOOTH"
);
}
);
width = 355.76735;
}
);
leftKerningGroup = i;
rightKerningGroup = i;
unicode = 012F;
category = Letter;
subCategory = Lowercase;
},
{
glyphname = j;
lastChange = "2019-03-14 17:47:22 +0000";
layers = (
{
layerId = UUID0;
paths = (
{
closed = 1;
nodes = (
"124 485 LINE",
"125 25 LINE SMOOTH",
"125 -83 OFFCURVE",
"108 -169 OFFCURVE",
"47 -188 CURVE SMOOTH",
"23 -196 OFFCURVE",
"0 -199 OFFCURVE",
"-10 -198 CURVE",
"-6 -239 LINE",
"0 -243 OFFCURVE",
"41 -244 OFFCURVE",
"51 -243 CURVE SMOOTH",
"147 -234 OFFCURVE",
"204 -160 OFFCURVE",
"204 6 CURVE SMOOTH",
"204 551 LINE",
"185 567 LINE",
"183 567 LINE",
"44 551 LINE",
"44 503 LINE"
);
},
{
closed = 1;
nodes = (
"161 660 LINE",
"202 660 OFFCURVE",
"225 685 OFFCURVE",
"225 726 CURVE SMOOTH",
"225 754 OFFCURVE",
"213 783 OFFCURVE",
"169 783 CURVE SMOOTH",
"129 783 OFFCURVE",
"106 755 OFFCURVE",
"106 717 CURVE SMOOTH",
"106 686 OFFCURVE",
"119 660 OFFCURVE",
"160 660 CURVE"
);
}
);
width = 308;
},
{
layerId = "DEBB1CE4-A72D-4960-969E-E04A036D2FA1";
paths = (
{
closed = 1;
nodes = (
"106.269 448.8 LINE",
"106.531 41.992 LINE SMOOTH",
"106.531 -71.18 OFFCURVE",
"88.053 -141.665 OFFCURVE",
"38.135 -164.359 CURVE SMOOTH",
"17.829 -173.837 OFFCURVE",
"-2.955 -176.098 OFFCURVE",
"-11.478 -175.837 CURVE",
"-3.784 -239 LINE",
"5.171 -242.261 OFFCURVE",
"42.478 -243.261 OFFCURVE",
"58.388 -243 CURVE SMOOTH",
"141.09 -240.649 OFFCURVE",
"267.535 -156.306 OFFCURVE",
"267.535 9.694 CURVE SMOOTH",
"267.535 548.045 LINE",
"237.453 569.216 LINE",
"235.453 569.216 LINE",
"38.09 545.09 LINE",
"38.09 468.278 LINE"
);
},
{
closed = 1;
nodes = (
"172.082 641.531 LINE",
"238.939 641.531 OFFCURVE",
"273.02 682.784 OFFCURVE",
"273.02 737.82 CURVE SMOOTH",
"273.02 782.812 OFFCURVE",
"244.029 819.939 OFFCURVE",
"182.298 819.939 CURVE SMOOTH",
"120.873 819.939 OFFCURVE",
"84.576 777.902 OFFCURVE",
"84.576 723.649 CURVE SMOOTH",
"84.576 677.135 OFFCURVE",
"118.261 641.531 OFFCURVE",
"171.082 641.531 CURVE"
);
}
);
width = 339.76735;
}
);
leftKerningGroup = j;
rightKerningGroup = i;
unicode = 006A;
category = Letter;
subCategory = Lowercase;
},
{
glyphname = jdotless;
lastChange = "2019-02-15 20:53:54 +0000";
layers = (
{
anchors = (
{
name = top;
position = "{161, 555}";
}
);
layerId = UUID0;
paths = (
{
closed = 1;
nodes = (
"124 485 LINE",
"125 25 LINE SMOOTH",
"125 -83 OFFCURVE",
"108 -169 OFFCURVE",
"47 -188 CURVE SMOOTH",
"23 -196 OFFCURVE",
"0 -199 OFFCURVE",
"-10 -198 CURVE",
"-6 -239 LINE",
"0 -243 OFFCURVE",
"41 -244 OFFCURVE",
"51 -243 CURVE SMOOTH",
"147 -234 OFFCURVE",
"204 -160 OFFCURVE",
"204 6 CURVE SMOOTH",
"204 551 LINE",
"185 567 LINE",
"183 567 LINE",
"44 551 LINE",
"44 503 LINE"
);
}
);
width = 308;
},
{
anchors = (
{
name = top;
position = "{175.776, 555.739}";
}
);
layerId = "DEBB1CE4-A72D-4960-969E-E04A036D2FA1";
paths = (
{
closed = 1;
nodes = (
"104.053 448.8 LINE",
"104.314 41.992 LINE SMOOTH",
"104.314 -71.18 OFFCURVE",
"85.837 -140.927 OFFCURVE",
"35.918 -164.359 CURVE SMOOTH",
"15.612 -174.576 OFFCURVE",
"-5.171 -176.098 OFFCURVE",
"-13.694 -175.837 CURVE",
"-6 -239 LINE",
"2.955 -242.261 OFFCURVE",
"40.261 -243.261 OFFCURVE",
"56.171 -243 CURVE SMOOTH",
"138.873 -240.649 OFFCURVE",
"265.318 -156.306 OFFCURVE",
"265.318 9.694 CURVE SMOOTH",
"265.318 548.045 LINE",
"235.237 569.216 LINE",
"233.237 569.216 LINE",
"35.873 545.09 LINE",
"35.873 468.278 LINE"
);
}
);
width = 339.76735;
}
);
leftKerningGroup = j;
rightKerningGroup = i;
unicode = 0237;
category = Letter;
subCategory = Lowercase;
},
{
glyphname = k;
lastChange = "2019-03-14 15:48:05 +0000";
layers = (
{
anchors = (
{
name = bottom;
position = "{316, 0}";
},
{
name = mark0;
position = "{305, -83}";
},
{
name = top;
position = "{308, 774}";
}
);
layerId = UUID0;
paths = (
{
closed = 1;
nodes = (
"30 43 LINE",
"30 0 LINE",
"254 0 LINE",
"254 43 LINE",
"176 51 LINE",
"176 128 LINE",
"174 170 LINE",
"287 288 LINE",
"444 51 LINE",
"375 43 LINE",
"375 0 LINE",
"604 0 LINE",
"604 43 LINE",
"538 50 LINE",
"339 333 LINE",
"498 501 LINE",
"575 515 LINE",
"575 555 LINE",
"339 555 LINE",
"339 515 LINE",
"417 501 LINE",
"174 238 LINE",
"176 301 LINE",
"176 806 LINE",
"157 819 LINE",
"156 819 LINE",
"14 802 LINE",
"14 765 LINE",
"96 756 LINE",
"96 51 LINE"
);
}
);
width = 613;
},
{
anchors = (
{
name = bottom;
position = "{344.812, 0}";
},
{
name = mark0;
position = "{345.633, -83}";
},
{
name = top;
position = "{354.543, 774}";
}
);
layerId = "DEBB1CE4-A72D-4960-969E-E04A036D2FA1";
paths = (
{
closed = 1;
nodes = (
"30 65.902 LINE",
"30 0 LINE",
"304.237 0 LINE",
"304.237 65.902 LINE",
"246.922 75.38 LINE",
"246.922 136.127 LINE",
"244.184 184.776 LINE",
"322.461 264.359 LINE",
"424.792 75.38 LINE",
"379.433 65.902 LINE",
"379.433 0 LINE",
"657.931 0 LINE",
"657.931 65.902 LINE",
"605.967 75.118 LINE",
"436.518 366.984 LINE",
"547.498 478.837 LINE",
"630.408 492.098 LINE",
"630.408 555 LINE",
"356.731 555 LINE",
"356.731 492.098 LINE",
"431.037 481.053 LINE",
"244.922 280.849 LINE",
"247.661 329.812 LINE",
"247.661 798.612 LINE",
"218.318 819.739 LINE",
"215.841 819.739 LINE",
"16.216 796.09 LINE",
"16.216 735.449 LINE",
"84.918 722.016 LINE",
"84.918 75.38 LINE"
);
}
);
width = 667.66939;
}
);
leftKerningGroup = h;
leftMetricsKey = h;
rightKerningGroup = k;
unicode = 006B;
category = Letter;
subCategory = Lowercase;
},
{
glyphname = kgreenlandic;
lastChange = "2019-02-15 20:53:54 +0000";
layers = (
{
layerId = UUID0;
paths = (
{
closed = 1;
nodes = (
"39 42 LINE",
"39 0 LINE",
"285 0 LINE",
"285 41 LINE",
"202 49 LINE",
"202 135 LINE",
"200 185 LINE",
"313 287 LINE",
"473 49 LINE",
"416 41 LINE",
"416 0 LINE",
"636 0 LINE",
"636 42 LINE",
"568 49 LINE",
"366 334 LINE",
"539 504 LINE",
"608 513 LINE",
"608 554 LINE",
"372 554 LINE",
"372 513 LINE",
"454 500 LINE",
"200 248 LINE",
"202 349 LINE",
"202 551 LINE",
"183 567 LINE",
"181 567 LINE",
"43 551 LINE",
"43 506 LINE",
"122 489 LINE",
"122 49 LINE"
);
}
);
width = 656;
},
{
layerId = "DEBB1CE4-A72D-4960-969E-E04A036D2FA1";
paths = (
{
closed = 1;
nodes = (
"43.433 65.641 LINE",
"43.433 0 LINE",
"330.065 0 LINE",
"330.065 65.38 LINE",
"272.184 74.857 LINE",
"272.184 135.739 LINE",
"268.706 180.567 LINE",
"350.678 264.837 LINE",
"449.359 74.118 LINE",
"408.612 65.38 LINE",
"408.612 0 LINE",
"684.02 0 LINE",
"684.02 65.641 LINE",
"630.796 75.596 LINE",
"462.041 370.939 LINE",
"579.633 481.098 LINE",
"658.976 490.837 LINE",
"658.976 554.739 LINE",
"378.649 554.739 LINE",
"378.649 490.837 LINE",
"460.649 480.053 LINE",
"267.967 267.947 LINE",
"270.706 349 LINE",
"270.706 548.045 LINE",
"233.237 569.216 LINE",
"231.237 569.216 LINE",
"45.216 547.306 LINE",
"45.216 469.061 LINE",
"106.486 450.584 LINE",
"105.747 74.857 LINE"
);
}
);
width = 681.85714;
}
);
leftKerningGroup = h;
rightKerningGroup = k;
unicode = 0138;
category = Letter;
subCategory = Lowercase;
},
{
glyphname = l;
lastChange = "2019-03-15 03:26:14 +0000";
layers = (
{
anchors = (
{
name = bottom;
position = "{146, 0}";
},
{
name = mark0;
position = "{148, -83}";
},
{
name = topright;
position = "{273, 555}";
}
);
layerId = UUID0;
paths = (
{
closed = 1;
nodes = (
"20 43 LINE",
"20 0 LINE",
"283 0 LINE",
"283 43 LINE",
"188 50 LINE",
"188 806 LINE",
"169 819 LINE",
"168 819 LINE",
"23 802 LINE",
"23 765 LINE",
"108 756 LINE",
"108 51 LINE"
);
}
);
width = 303;
},
{
anchors = (
{
name = bottom;
position = "{171.118, 0}";
},
{
name = mark0;
position = "{163.514, -83}";
},
{
name = topright;
position = "{330.624, 555.739}";
}
);
layerId = "DEBB1CE4-A72D-4960-969E-E04A036D2FA1";
paths = (
{
closed = 1;
nodes = (
"25.171 65.902 LINE",
"25.171 0 LINE",
"316.245 0 LINE",
"316.245 65.902 LINE",
"250.796 75.118 LINE",
"250.796 798.612 LINE",
"221.453 819.739 LINE",
"218.976 819.739 LINE",
"18.567 796.09 LINE",
"18.567 735.449 LINE",
"88.792 722.016 LINE",
"88.792 75.38 LINE"
);
}
);
width = 334.02857;
}
);
leftKerningGroup = l;
rightKerningGroup = l;
unicode = 006C;
category = Letter;
subCategory = Lowercase;
},
{
glyphname = lacute;
lastChange = "2019-02-15 20:53:54 +0000";
layers = (
{
layerId = UUID0;
paths = (
{
closed = 1;
nodes = (
"302 0 LINE",
"302 42 LINE",
"208 49 LINE",
"208 735 LINE",
"188 749 LINE",
"42 731 LINE",
"42 695 LINE",
"127 689 LINE",
"127 49 LINE",
"39 42 LINE",
"39 0 LINE"
);
},
{
closed = 1;
nodes = (
"163 823 OFFCURVE",
"277 885 OFFCURVE",
"311 929 CURVE",
"255 980 LINE",
"89 830 LINE",
"117 804 LINE"
);
}
);
width = 329;
},
{
layerId = "DEBB1CE4-A72D-4960-969E-E04A036D2FA1";
paths = (
{
closed = 1;
nodes = (
"322.686 0 LINE",
"322.686 65.641 LINE",
"257.498 74.857 LINE",
"257.498 723.18 LINE",
"225.678 745.306 LINE",
"23.531 720.657 LINE",
"23.531 660.278 LINE",
"93.755 647.629 LINE",
"93.755 74.857 LINE",
"30.135 65.641 LINE",
"30.135 0 LINE"
);
},
{
closed = 1;
nodes = (
"174.082 796.404 OFFCURVE",
"274.784 851.755 OFFCURVE",
"329.469 911.269 CURVE",
"227.665 982.216 LINE",
"77.18 828.522 LINE",
"136.947 784.792 LINE"
);
}
);
width = 345.25306;
}
);
leftKerningGroup = l;
rightKerningGroup = l;
unicode = 013A;
category = Letter;
subCategory = Lowercase;
},
{
glyphname = ldot;
lastChange = "2019-02-15 20:53:54 +0000";
layers = (
{
anchors = (
{
name = mark0;
position = "{150, -83}";
}
);
layerId = UUID0;
paths = (
{
closed = 1;
nodes = (
"20 43 LINE",
"20 0 LINE",
"283 0 LINE",
"283 43 LINE",
"189 50 LINE",
"189 806 LINE",
"170 819 LINE",
"169 819 LINE",
"23 802 LINE",
"23 765 LINE",
"108 756 LINE",
"108 51 LINE"
);
},
{
closed = 1;
nodes = (
"395 320 OFFCURVE",
"426 347 OFFCURVE",
"426 386 CURVE SMOOTH",
"426 415 OFFCURVE",
"410 442 OFFCURVE",
"372 442 CURVE SMOOTH",
"339 442 OFFCURVE",
"307 414 OFFCURVE",
"307 376 CURVE SMOOTH",
"307 342 OFFCURVE",
"332 320 OFFCURVE",
"362 320 CURVE SMOOTH"
);
}
);
width = 441;
},
{
anchors = (
{
name = mark0;
position = "{166.992, -83}";
}
);
layerId = "DEBB1CE4-A72D-4960-969E-E04A036D2FA1";
paths = (
{
closed = 1;
nodes = (
"25.171 65.902 LINE",
"25.171 0 LINE",
"316.245 0 LINE",
"316.245 65.902 LINE",
"251.057 75.118 LINE",
"251.057 798.612 LINE",
"221.714 819.739 LINE",
"219.237 819.739 LINE",
"18.567 796.09 LINE",
"18.567 735.449 LINE",
"88.792 722.016 LINE",
"88.792 75.38 LINE"
);
},
{
closed = 1;
nodes = (
"492.518 299.314 OFFCURVE",
"535.339 332.224 OFFCURVE",
"535.339 389.694 CURVE SMOOTH",
"535.339 432.731 OFFCURVE",
"503.086 473.767 OFFCURVE",
"447.355 473.767 CURVE SMOOTH",
"392.192 473.767 OFFCURVE",
"346.894 436.902 OFFCURVE",
"346.894 382.649 CURVE SMOOTH",
"346.894 333.873 OFFCURVE",
"388.147 299.314 OFFCURVE",
"432.184 299.314 CURVE SMOOTH"
);
}
);
width = 557.72653;
}
);
leftKerningGroup = l;
leftMetricsKey = l;
rightKerningGroup = periodcentered;
unicode = 0140;
category = Letter;
subCategory = Lowercase;
},
{
glyphname = lslash;
lastChange = "2019-02-15 20:53:54 +0000";
layers = (
{
layerId = UUID0;
paths = (
{
closed = 1;
nodes = (
"37 409 LINE",
"37 354 LINE",
"146 405 LINE",
"146 51 LINE",
"58 43 LINE",
"58 0 LINE",
"321 0 LINE",
"321 43 LINE",
"226 50 LINE",
"226 441 LINE",
"346 495 LINE",
"346 555 LINE",
"226 499 LINE",
"226 806 LINE",
"207 819 LINE",
"206 819 LINE",
"61 802 LINE",
"61 765 LINE",
"146 756 LINE",
"146 462 LINE"
);
}
);
width = 373;
},
{
layerId = "DEBB1CE4-A72D-4960-969E-E04A036D2FA1";
paths = (
{
closed = 1;
nodes = (
"32.567 402.351 LINE",
"32.567 325.927 LINE",
"126.053 367.322 LINE",
"126.053 75.38 LINE",
"62.433 65.902 LINE",
"62.433 0 LINE",
"352.767 0 LINE",
"352.767 65.902 LINE",
"288.057 75.118 LINE",
"288.057 431.396 LINE",
"390.327 478.008 LINE",
"390.327 559.433 LINE",
"288.057 510.82 LINE",
"288.057 798.612 LINE",
"258.714 819.739 LINE",
"256.237 819.739 LINE",
"55.829 796.09 LINE",
"55.829 735.449 LINE",
"126.053 722.016 LINE",
"126.053 445.008 LINE"
);
}
);
width = 411.41633;
}
);
leftKerningGroup = lslash;
rightKerningGroup = lslash;
unicode = 0142;
category = Letter;
subCategory = Lowercase;
},
{
glyphname = m;
lastChange = "2019-02-15 20:53:54 +0000";
layers = (
{
anchors = (
{
name = bottom;
position = "{497, 0}";
},
{
name = mark0;
position = "{490, -83}";
},
{
name = top;
position = "{497, 555}";
}
);
layerId = UUID0;
paths = (
{
closed = 1;
nodes = (
"265 0 LINE",
"265 43 LINE",
"194 51 LINE",
"194 440 LINE",
"235 472 OFFCURVE",
"302 506 OFFCURVE",
"358 506 CURVE SMOOTH",
"455 506 OFFCURVE",
"468 450 OFFCURVE",
"468 334 CURVE SMOOTH",
"468 51 LINE",
"396 43 LINE",
"396 0 LINE",
"625 0 LINE",
"625 43 LINE",
"549 51 LINE",
"549 333 LINE SMOOTH",
"549 381 OFFCURVE",
"546 421 OFFCURVE",
"539 453 CURVE",
"573 478 OFFCURVE",
"633 507 OFFCURVE",
"686 507 CURVE SMOOTH",
"788 507 OFFCURVE",
"806 447 OFFCURVE",
"806 332 CURVE SMOOTH",
"806 51 LINE",
"738 43 LINE",
"738 0 LINE",
"962 0 LINE",
"962 43 LINE",
"886 51 LINE",
"886 335 LINE SMOOTH",
"886 497 OFFCURVE",
"853 568 OFFCURVE",
"726 568 CURVE SMOOTH",
"654 568 OFFCURVE",
"562 524 OFFCURVE",
"526 494 CURVE",
"503 545 OFFCURVE",
"462 568 OFFCURVE",
"390 568 CURVE SMOOTH",
"319 568 OFFCURVE",
"228 520 OFFCURVE",
"184 482 CURVE",
"185 507 LINE",
"185 551 LINE",
"163 567 LINE",
"36 551 LINE",
"36 506 LINE",
"113 489 LINE",
"113 51 LINE",
"49 43 LINE",
"49 0 LINE"
);
}
);
width = 990;
},
{
anchors = (
{
name = bottom;
position = "{510.298, 0}";
},
{
name = mark0;
position = "{513.641, -83}";
},
{
name = top;
position = "{510.298, 555.739}";
}
);
layerId = "DEBB1CE4-A72D-4960-969E-E04A036D2FA1";
paths = (
{
closed = 1;
nodes = (
"317.453 0 LINE",
"317.453 65.902 LINE",
"263.445 75.38 LINE",
"263.445 430.396 LINE",
"286.714 449.837 OFFCURVE",
"324.902 472.755 OFFCURVE",
"366.127 472.755 CURVE SMOOTH",
"425.449 472.755 OFFCURVE",
"439.927 440.396 OFFCURVE",
"439.927 348.037 CURVE SMOOTH",
"439.927 75.38 LINE",
"390.829 65.902 LINE",
"390.829 0 LINE",
"663.416 0 LINE",
"663.416 65.902 LINE",
"607.363 75.38 LINE",
"607.363 348.514 LINE SMOOTH",
"607.363 380.261 OFFCURVE",
"605.841 409.18 OFFCURVE",
"601.057 433.792 CURVE",
"623.976 452.143 OFFCURVE",
"660.335 473.016 OFFCURVE",
"697.082 473.016 CURVE SMOOTH",
"756.971 473.016 OFFCURVE",
"774.233 439.612 OFFCURVE",
"774.233 344.559 CURVE SMOOTH",
"774.233 75.38 LINE",
"729.135 65.902 LINE",
"729.135 0 LINE",
"1000.416 0 LINE",
"1000.416 65.902 LINE",
"940.669 75.38 LINE",
"940.669 349.037 LINE SMOOTH",
"940.669 502.91 OFFCURVE",
"893.633 567.261 OFFCURVE",
"775.498 567.261 CURVE SMOOTH",
"702.759 567.261 OFFCURVE",
"628.49 534.343 OFFCURVE",
"585.102 492.522 CURVE",
"562.102 542.784 OFFCURVE",
"519.624 567.261 OFFCURVE",
"446.886 567.261 CURVE SMOOTH",
"391.4 567.261 OFFCURVE",
"292.273 532.559 OFFCURVE",
"247.535 487.171 CURVE",
"247.796 536.551 LINE",
"227.11 565.037 LINE",
"219.147 569.216 LINE",
"37.478 547.306 LINE",
"37.478 469.061 LINE",
"96.747 450.584 LINE",
"96.747 75.38 LINE",
"43.829 65.902 LINE",
"43.829 0 LINE"
);
}
);
width = 1022.50612;
}
);
leftKerningGroup = n;
leftMetricsKey = n;
rightKerningGroup = n;
rightMetricsKey = n;
unicode = 006D;
category = Letter;
subCategory = Lowercase;
},
{
glyphname = n;
lastChange = "2019-02-15 20:53:54 +0000";
layers = (
{
anchors = (
{
name = bottom;
position = "{332, 0}";
},
{
name = mark0;
position = "{342, -83}";
},
{
name = top;
position = "{316, 555}";
}
);
layerId = UUID0;
paths = (
{
closed = 1;
nodes = (
"46 43 LINE",
"46 0 LINE",
"267 0 LINE",
"267 43 LINE",
"194 51 LINE",
"194 439 LINE",
"235 471 OFFCURVE",
"304 506 OFFCURVE",
"361 506 CURVE SMOOTH",
"458 506 OFFCURVE",
"474 450 OFFCURVE",
"474 334 CURVE SMOOTH",
"474 50 LINE",
"407 43 LINE",
"407 0 LINE",
"630 0 LINE",
"630 43 LINE",
"555 50 LINE",
"555 333 LINE SMOOTH",
"555 494 OFFCURVE",
"525 568 OFFCURVE",
"395 568 CURVE SMOOTH",
"320 568 OFFCURVE",
"228 520 OFFCURVE",
"184 482 CURVE",
"185 507 LINE",
"185 551 LINE",
"166 567 LINE",
"163 567 LINE",
"36 551 LINE",
"36 506 LINE",
"113 489 LINE",
"113 51 LINE"
);
}
);
width = 658;
},
{
anchors = (
{
name = bottom;
position = "{350.469, 0}";
},
{
name = mark0;
position = "{346.433, -83}";
},
{
name = top;
position = "{338.163, 555.739}";
}
);
layerId = "DEBB1CE4-A72D-4960-969E-E04A036D2FA1";
paths = (
{
closed = 1;
nodes = (
"41.567 65.902 LINE",
"41.567 0 LINE",
"318.714 0 LINE",
"318.714 65.902 LINE",
"263.445 75.38 LINE",
"263.445 430.135 LINE",
"285.976 447.359 OFFCURVE",
"324.686 472.755 OFFCURVE",
"367.649 472.755 CURVE SMOOTH",
"426.971 472.755 OFFCURVE",
"442.233 440.396 OFFCURVE",
"442.233 348.037 CURVE SMOOTH",
"442.233 75.118 LINE",
"393.702 65.902 LINE",
"393.702 0 LINE",
"665.461 0 LINE",
"665.461 66.641 LINE",
"609.669 75.118 LINE",
"609.669 348.514 LINE SMOOTH",
"609.669 508.037 OFFCURVE",
"567.11 567.261 OFFCURVE",
"448.931 567.261 CURVE SMOOTH",
"365.065 567.261 OFFCURVE",
"289.318 527.388 OFFCURVE",
"247.535 487.91 CURVE",
"248.535 511.433 LINE",
"248.535 548.045 LINE",
"222.147 569.216 LINE",
"219.147 569.216 LINE",
"37.478 547.306 LINE",
"37.478 469.061 LINE",
"96.747 450.584 LINE",
"96.747 75.38 LINE"
);
}
);
width = 687.55102;
}
);
leftKerningGroup = n;
rightKerningGroup = n;
unicode = 006E;
category = Letter;
subCategory = Lowercase;
},
{
glyphname = eng;
lastChange = "2019-02-15 20:53:54 +0000";
layers = (
{
layerId = UUID0;
paths = (
{
closed = 1;
nodes = (
"53 43 LINE",
"53 0 LINE",
"273 0 LINE",
"273 43 LINE",
"201 51 LINE",
"201 440 LINE",
"243 472 OFFCURVE",
"312 506 OFFCURVE",
"368 506 CURVE SMOOTH",
"466 506 OFFCURVE",
"481 452 OFFCURVE",
"481 337 CURVE SMOOTH",
"481 22 LINE SMOOTH",
"481 -89 OFFCURVE",
"463 -173 OFFCURVE",
"400 -191 CURVE",
"386 -196 OFFCURVE",
"357 -201 OFFCURVE",
"347 -199 CURVE",
"351 -241 LINE",
"357 -245 OFFCURVE",
"396 -245 OFFCURVE",
"404 -245 CURVE",
"504 -237 OFFCURVE",
"562 -155 OFFCURVE",
"562 11 CURVE SMOOTH",
"562 337 LINE SMOOTH",
"562 498 OFFCURVE",
"531 569 OFFCURVE",
"402 569 CURVE SMOOTH",
"327 569 OFFCURVE",
"235 521 OFFCURVE",
"191 483 CURVE",
"192 511 LINE",
"192 552 LINE",
"173 568 LINE",
"170 568 LINE",
"42 552 LINE",
"42 507 LINE",
"121 490 LINE",
"121 51 LINE"
);
}
);
width = 666;
},
{
layerId = "DEBB1CE4-A72D-4960-969E-E04A036D2FA1";
paths = (
{
closed = 1;
nodes = (
"47.829 65.902 LINE",
"47.829 0 LINE",
"323.976 0 LINE",
"323.976 65.902 LINE",
"269.706 75.38 LINE",
"269.706 430.396 LINE",
"290.282 446.882 OFFCURVE",
"328.992 472.755 OFFCURVE",
"371.694 472.755 CURVE SMOOTH",
"431.278 472.755 OFFCURVE",
"447.755 439.441 OFFCURVE",
"447.755 351.037 CURVE SMOOTH",
"447.755 22 LINE SMOOTH",
"447.755 -76.441 OFFCURVE",
"443.053 -155.269 OFFCURVE",
"385.963 -179.18 CURVE",
"372.702 -185.657 OFFCURVE",
"342.963 -190.657 OFFCURVE",
"332.963 -189.396 CURVE",
"337.702 -256.514 LINE",
"342.963 -260.514 OFFCURVE",
"383.441 -261.253 OFFCURVE",
"391.441 -260.514 CURVE",
"540.2 -256.947 OFFCURVE",
"615.192 -155 OFFCURVE",
"615.192 11 CURVE SMOOTH",
"615.192 351.037 LINE SMOOTH",
"615.192 506.865 OFFCURVE",
"572.371 568.261 OFFCURVE",
"454.453 568.261 CURVE SMOOTH",
"371.327 568.261 OFFCURVE",
"296.318 528.388 OFFCURVE",
"253.057 488.91 CURVE",
"254.057 515.433 LINE",
"254.057 548.306 LINE",
"227.669 570.216 LINE",
"225.408 570.216 LINE",
"42 548.306 LINE",
"42 470.061 LINE",
"102.531 451.584 LINE",
"102.531 75.38 LINE"
);
}
);
width = 690.37959;
}
);
leftKerningGroup = n;
rightKerningGroup = n;
unicode = 014B;
category = Letter;
subCategory = Lowercase;
},
{
glyphname = o;
lastChange = "2019-04-04 02:33:34 +0000";
layers = (
{
anchors = (
{
name = bottom;
position = "{291, 0}";
},
{
name = center;
position = "{291, 278}";
},
{
name = mark0;
position = "{286, -83}";
},
{
name = ogonek;
position = "{365, 30}";
},
{
name = top;
position = "{291, 555}";
},
{
name = topright;
position = "{568, 555}";
}
);
layerId = UUID0;
paths = (
{
closed = 1;
nodes = (
"38 124 OFFCURVE",
"106 -11 OFFCURVE",
"285 -11 CURVE SMOOTH",
"413 -11 OFFCURVE",
"542 96 OFFCURVE",
"542 278 CURVE SMOOTH",
"542 435 OFFCURVE",
"474 570 OFFCURVE",
"295 570 CURVE SMOOTH",
"167 570 OFFCURVE",
"38 463 OFFCURVE",
"38 281 CURVE SMOOTH"
);
},
{
closed = 1;
nodes = (
"174 41 OFFCURVE",
"129 153 OFFCURVE",
"129 287 CURVE SMOOTH",
"129 440 OFFCURVE",
"189 518 OFFCURVE",
"291 518 CURVE SMOOTH",
"408 518 OFFCURVE",
"451 404 OFFCURVE",
"451 272 CURVE SMOOTH",
"451 120 OFFCURVE",
"391 41 OFFCURVE",
"290 41 CURVE SMOOTH"
);
}
);
width = 580;
},
{
anchors = (
{
name = bottom;
position = "{302.082, 0}";
},
{
name = center;
position = "{302.082, 278}";
},
{
name = mark0;
position = "{274.18, -83}";
},
{
name = ogonek;
position = "{366.478, 22.612}";
},
{
name = top;
position = "{305.776, 555.739}";
},
{
name = topright;
position = "{517.024, 555.739}";
}
);
layerId = "DEBB1CE4-A72D-4960-969E-E04A036D2FA1";
paths = (
{
closed = 1;
nodes = (
"26.18 93.71 OFFCURVE",
"129.641 -11 OFFCURVE",
"294.604 -11 CURVE SMOOTH",
"445.506 -11 OFFCURVE",
"577.461 78.269 OFFCURVE",
"577.461 283.91 CURVE SMOOTH",
"577.461 465.29 OFFCURVE",
"474.739 570 OFFCURVE",
"308.298 570 CURVE SMOOTH",
"158.135 570 OFFCURVE",
"26.18 474.82 OFFCURVE",
"26.18 275.09 CURVE SMOOTH"
);
},
{
closed = 1;
nodes = (
"232.363 58.731 OFFCURVE",
"202.878 135.269 OFFCURVE",
"202.878 287 CURVE SMOOTH",
"202.878 435.567 OFFCURVE",
"237.759 500.269 OFFCURVE",
"301.343 500.269 CURVE SMOOTH",
"373.278 500.269 OFFCURVE",
"399.286 423.208 OFFCURVE",
"399.286 272 CURVE SMOOTH",
"399.286 123.694 OFFCURVE",
"367.359 58.731 OFFCURVE",
"304.037 58.731 CURVE SMOOTH"
);
}
);
width = 603.64082;
}
);
leftKerningGroup = o;
rightKerningGroup = o;
unicode = 006F;
category = Letter;
subCategory = Lowercase;
},
{
glyphname = ohorn;
lastChange = "2019-02-15 20:53:54 +0000";
layers = (
{
anchors = (
{
name = _topright;
position = "{568, 555}";
},
{
name = bottom;
position = "{291, 0}";
},
{
name = center;
position = "{291, 278}";
},
{
name = mark0;
position = "{286, -83}";
},
{
name = ogonek;
position = "{528, 10}";
},
{
name = top;
position = "{295, 555}";
},
{
name = topright;
position = "{568, 555}";
}
);
layerId = UUID0;
paths = (
{
closed = 1;
nodes = (
"38 124 OFFCURVE",
"106 -11 OFFCURVE",
"285 -11 CURVE SMOOTH",
"413 -11 OFFCURVE",
"542 96 OFFCURVE",
"542 278 CURVE SMOOTH",
"542 363 OFFCURVE",
"522 442 OFFCURVE",
"475 496 CURVE",
"551 520 OFFCURVE",
"595 572 OFFCURVE",
"595 644 CURVE SMOOTH",
"595 651 OFFCURVE",
"594 658 OFFCURVE",
"593 666 CURVE",
"517 666 LINE",
"518 662 OFFCURVE",
"518 656 OFFCURVE",
"518 649 CURVE SMOOTH",
"518 611 OFFCURVE",
"516 551 OFFCURVE",
"432 532 CURVE",
"390 555 OFFCURVE",
"344 570 OFFCURVE",
"295 570 CURVE SMOOTH",
"167 570 OFFCURVE",
"38 463 OFFCURVE",
"38 281 CURVE SMOOTH"
);
},
{
closed = 1;
nodes = (
"129 440 OFFCURVE",
"189 518 OFFCURVE",
"291 518 CURVE SMOOTH",
"408 518 OFFCURVE",
"451 404 OFFCURVE",
"451 272 CURVE SMOOTH",
"451 120 OFFCURVE",
"391 41 OFFCURVE",
"290 41 CURVE SMOOTH",
"174 41 OFFCURVE",
"129 153 OFFCURVE",
"129 287 CURVE SMOOTH"
);
}
);
width = 595;
},
{
anchors = (
{
name = _topright;
position = "{517.024, 555.739}";
},
{
name = bottom;
position = "{302.082, 0}";
},
{
name = center;
position = "{302.082, 278}";
},
{
name = mark0;
position = "{292.649, -83}";
},
{
name = ogonek;
position = "{547.208, 10}";
},
{
name = top;
position = "{308.298, 555.739}";
},
{
name = topright;
position = "{517.024, 555.739}";
}
);
layerId = "DEBB1CE4-A72D-4960-969E-E04A036D2FA1";
paths = (
{
closed = 1;
nodes = (
"26.18 93.71 OFFCURVE",
"129.641 -11 OFFCURVE",
"294.604 -11 CURVE SMOOTH",
"445.506 -11 OFFCURVE",
"577.461 78.269 OFFCURVE",
"577.461 283.91 CURVE SMOOTH",
"577.461 373.343 OFFCURVE",
"553.029 444.955 OFFCURVE",
"506.767 493.784 CURVE",
"585.722 508.18 OFFCURVE",
"657.057 564.612 OFFCURVE",
"657.057 679.461 CURVE SMOOTH",
"657.057 686.461 OFFCURVE",
"656.057 694.2 OFFCURVE",
"654.318 700.722 CURVE",
"542.118 700.722 LINE",
"543.857 694.506 OFFCURVE",
"545.335 687.029 OFFCURVE",
"545.335 674.857 CURVE SMOOTH",
"545.335 636.118 OFFCURVE",
"533.731 549.522 OFFCURVE",
"426.829 546.776 CURVE",
"391.478 561.649 OFFCURVE",
"351.388 570 OFFCURVE",
"308.298 570 CURVE SMOOTH",
"158.135 570 OFFCURVE",
"26.18 474.82 OFFCURVE",
"26.18 275.09 CURVE SMOOTH"
);
},
{
closed = 1;
nodes = (
"202.878 435.567 OFFCURVE",
"237.759 500.269 OFFCURVE",
"301.343 500.269 CURVE SMOOTH",
"373.278 500.269 OFFCURVE",
"399.286 423.208 OFFCURVE",
"399.286 272 CURVE SMOOTH",
"399.286 123.694 OFFCURVE",
"367.359 58.731 OFFCURVE",
"304.037 58.731 CURVE SMOOTH",
"232.363 58.731 OFFCURVE",
"202.878 135.269 OFFCURVE",
"202.878 287 CURVE SMOOTH"
);
}
);
width = 612.73061;
}
);
leftKerningGroup = o;
leftMetricsKey = o;
rightKerningGroup = o;
unicode = 01A1;
category = Letter;
subCategory = Lowercase;
},
{
glyphname = oslash;
lastChange = "2019-02-15 20:53:54 +0000";
layers = (
{
anchors = (
{
name = top;
position = "{301, 555}";
}
);
background = {
paths = (
{
closed = 1;
nodes = (
"38 124 OFFCURVE",
"106 -11 OFFCURVE",
"285 -11 CURVE SMOOTH",
"413 -11 OFFCURVE",
"542 96 OFFCURVE",
"542 278 CURVE SMOOTH",
"542 435 OFFCURVE",
"474 570 OFFCURVE",
"295 570 CURVE SMOOTH",
"167 570 OFFCURVE",
"38 463 OFFCURVE",
"38 281 CURVE SMOOTH"
);
},
{
closed = 1;
nodes = (
"174 41 OFFCURVE",
"129 153 OFFCURVE",
"129 287 CURVE SMOOTH",
"129 440 OFFCURVE",
"189 518 OFFCURVE",
"291 518 CURVE SMOOTH",
"408 518 OFFCURVE",
"451 404 OFFCURVE",
"451 272 CURVE SMOOTH",
"451 120 OFFCURVE",
"391 41 OFFCURVE",
"290 41 CURVE SMOOTH"
);
}
);
};
layerId = UUID0;
paths = (
{
closed = 1;
nodes = (
"38 168 OFFCURVE",
"72 65 OFFCURVE",
"164 16 CURVE",
"126 -83 LINE",
"169 -97 LINE",
"206 -1 LINE",
"230 -7 OFFCURVE",
"256 -11 OFFCURVE",
"285 -11 CURVE SMOOTH",
"413 -11 OFFCURVE",
"542 96 OFFCURVE",
"542 278 CURVE SMOOTH",
"542 395 OFFCURVE",
"506 495 OFFCURVE",
"417 541 CURVE",
"453 635 LINE",
"411 650 LINE",
"375 560 LINE",
"351 566 OFFCURVE",
"325 570 OFFCURVE",
"295 570 CURVE SMOOTH",
"167 570 OFFCURVE",
"38 463 OFFCURVE",
"38 281 CURVE SMOOTH"
);
},
{
closed = 1;
nodes = (
"129 440 OFFCURVE",
"189 518 OFFCURVE",
"291 518 CURVE SMOOTH",
"315 518 OFFCURVE",
"336 513 OFFCURVE",
"354 504 CURVE",
"197 75 LINE",
"149 118 OFFCURVE",
"129 197 OFFCURVE",
"129 287 CURVE SMOOTH"
);
},
{
closed = 1;
nodes = (
"266 41 OFFCURVE",
"245 46 OFFCURVE",
"227 55 CURVE",
"385 483 LINE",
"432 439 OFFCURVE",
"451 360 OFFCURVE",
"451 272 CURVE SMOOTH",
"451 120 OFFCURVE",
"391 41 OFFCURVE",
"290 41 CURVE SMOOTH"
);
}
);
width = 580;
},
{
anchors = (
{
name = top;
position = "{293.612, 555.739}";
}
);
layerId = "DEBB1CE4-A72D-4960-969E-E04A036D2FA1";
paths = (
{
closed = 1;
nodes = (
"26.18 146.576 OFFCURVE",
"74.216 58.351 OFFCURVE",
"165.478 16.739 CURVE",
"123.784 -99.253 LINE",
"197.812 -123.596 LINE",
"242.2 -6.91 LINE",
"258.812 -9.216 OFFCURVE",
"275.947 -11 OFFCURVE",
"294.604 -11 CURVE SMOOTH",
"445.506 -11 OFFCURVE",
"577.461 78.269 OFFCURVE",
"577.461 283.91 CURVE SMOOTH",
"577.461 411.992 OFFCURVE",
"527.424 498.694 OFFCURVE",
"443.596 539.522 CURVE",
"486.245 651.992 LINE",
"409.522 675.118 LINE",
"369.09 565.171 LINE",
"351 568.216 OFFCURVE",
"328.694 570 OFFCURVE",
"308.298 570 CURVE SMOOTH",
"158.135 570 OFFCURVE",
"26.18 474.82 OFFCURVE",
"26.18 275.09 CURVE SMOOTH"
);
},
{
closed = 1;
nodes = (
"202.878 435.567 OFFCURVE",
"230.371 500.269 OFFCURVE",
"301.343 500.269 CURVE SMOOTH",
"320.91 500.269 OFFCURVE",
"332.306 496.747 OFFCURVE",
"343.657 489.224 CURVE",
"228.767 120.804 LINE",
"211.057 157.155 OFFCURVE",
"202.878 218.424 OFFCURVE",
"202.878 287 CURVE SMOOTH"
);
},
{
closed = 1;
nodes = (
"284.469 58.731 OFFCURVE",
"276.029 60.037 OFFCURVE",
"263.2 69.037 CURVE",
"376.873 432.024 LINE",
"394.322 395.412 OFFCURVE",
"399.286 337.837 OFFCURVE",
"399.286 272 CURVE SMOOTH",
"399.286 123.694 OFFCURVE",
"373.269 58.731 OFFCURVE",
"304.037 58.731 CURVE SMOOTH"
);
}
);
width = 603.64082;
}
);
leftKerningGroup = o;
leftMetricsKey = o;
rightKerningGroup = o;
rightMetricsKey = o;
unicode = 00F8;
category = Letter;
subCategory = Lowercase;
},
{
glyphname = oe;
lastChange = "2019-02-15 20:53:54 +0000";
layers = (
{
anchors = (
{
name = mark0;
position = "{520, -83}";
}
);
layerId = UUID0;
paths = (
{
closed = 1;
nodes = (
"374 -11 OFFCURVE",
"449 37 OFFCURVE",
"493 110 CURVE",
"532 35 OFFCURVE",
"601 -11 OFFCURVE",
"699 -11 CURVE SMOOTH",
"774 -11 OFFCURVE",
"855 21 OFFCURVE",
"894 60 CURVE",
"878 97 LINE",
"846 70 OFFCURVE",
"781 46 OFFCURVE",
"723 46 CURVE SMOOTH",
"604 46 OFFCURVE",
"543 151 OFFCURVE",
"543 284 CURVE",
"899 284 LINE",
"904 306 OFFCURVE",
"905 334 OFFCURVE",
"905 372 CURVE",
"900 501 OFFCURVE",
"830 570 OFFCURVE",
"713 570 CURVE SMOOTH",
"623 570 OFFCURVE",
"548 526 OFFCURVE",
"502 452 CURVE",
"465 526 OFFCURVE",
"397 570 OFFCURVE",
"297 570 CURVE SMOOTH",
"167 570 OFFCURVE",
"38 462 OFFCURVE",
"38 281 CURVE SMOOTH",
"38 112 OFFCURVE",
"111 -11 OFFCURVE",
"286 -11 CURVE SMOOTH"
);
},
{
closed = 1;
nodes = (
"182 42 OFFCURVE",
"129 136 OFFCURVE",
"129 287 CURVE SMOOTH",
"129 438 OFFCURVE",
"188 518 OFFCURVE",
"291 518 CURVE SMOOTH",
"404 518 OFFCURVE",
"452 411 OFFCURVE",
"452 273 CURVE SMOOTH",
"452 114 OFFCURVE",
"390 42 OFFCURVE",
"290 42 CURVE SMOOTH"
);
},
{
closed = 1;
nodes = (
"553 470 OFFCURVE",
"613 519 OFFCURVE",
"693 519 CURVE SMOOTH",
"782 519 OFFCURVE",
"817 457 OFFCURVE",
"817 375 CURVE SMOOTH",
"817 361 OFFCURVE",
"816 345 OFFCURVE",
"815 331 CURVE",
"544 331 LINE"
);
}
);
width = 952;
},
{
anchors = (
{
name = mark0;
position = "{530.343, -83}";
}
);
layerId = "DEBB1CE4-A72D-4960-969E-E04A036D2FA1";
paths = (
{
closed = 1;
nodes = (
"369.567 -11 OFFCURVE",
"432.747 15.576 OFFCURVE",
"477.486 64.196 CURVE",
"519.441 16.531 OFFCURVE",
"583.269 -11 OFFCURVE",
"672.404 -11 CURVE SMOOTH",
"767.351 -11 OFFCURVE",
"857.955 37.253 OFFCURVE",
"888.829 70.343 CURVE",
"862.486 130.245 LINE",
"831.963 111.371 OFFCURVE",
"770.657 89.588 OFFCURVE",
"717.829 89.588 CURVE SMOOTH",
"628.38 89.588 OFFCURVE",
"580.678 151.739 OFFCURVE",
"573.29 264.053 CURVE",
"887.918 264.053 LINE",
"892.918 289.747 OFFCURVE",
"896.135 321.441 OFFCURVE",
"895.396 366.829 CURVE",
"893.351 494.351 OFFCURVE",
"819.657 570 OFFCURVE",
"677.539 570 CURVE SMOOTH",
"601.576 570 OFFCURVE",
"538.396 545.208 OFFCURVE",
"493.135 500.02 CURVE",
"452.441 547.424 OFFCURVE",
"390.351 570 OFFCURVE",
"309.559 570 CURVE SMOOTH",
"158.135 570 OFFCURVE",
"26.18 473.82 OFFCURVE",
"26.18 274.351 CURVE SMOOTH",
"26.18 89.098 OFFCURVE",
"131.686 -11 OFFCURVE",
"294.865 -11 CURVE SMOOTH"
);
},
{
closed = 1;
nodes = (
"235.931 58.992 OFFCURVE",
"203.616 124.18 OFFCURVE",
"203.616 286.261 CURVE SMOOTH",
"203.616 437.261 OFFCURVE",
"236.759 500.269 OFFCURVE",
"300.604 500.269 CURVE SMOOTH",
"370.755 500.269 OFFCURVE",
"398.069 430.947 OFFCURVE",
"398.069 273 CURVE SMOOTH",
"398.069 120.649 OFFCURVE",
"366.359 58.992 OFFCURVE",
"304.037 58.992 CURVE SMOOTH"
);
},
{
closed = 1;
nodes = (
"575.163 470.739 OFFCURVE",
"612.261 500.531 OFFCURVE",
"663.449 500.531 CURVE SMOOTH",
"719.943 500.531 OFFCURVE",
"737.212 448.873 OFFCURVE",
"737.212 372.045 CURVE SMOOTH",
"737.212 358.045 OFFCURVE",
"736.951 344.261 OFFCURVE",
"736.69 330.261 CURVE",
"572.073 330.261 LINE"
);
}
);
width = 926.88163;
}
);
leftKerningGroup = o;
leftMetricsKey = o;
rightKerningGroup = e;
rightMetricsKey = e;
unicode = 0153;
category = Letter;
subCategory = Lowercase;
},
{
glyphname = p;
lastChange = "2019-04-04 02:33:40 +0000";
layers = (
{
anchors = (
{
name = mark0;
position = "{331, -83}";
},
{
name = top;
position = "{320, 555}";
}
);
layerId = UUID0;
paths = (
{
closed = 1;
nodes = (
"584 490 OFFCURVE",
"476 570 OFFCURVE",
"365 570 CURVE SMOOTH",
"281 570 OFFCURVE",
"219 526 OFFCURVE",
"184 490 CURVE",
"184 551 LINE",
"166 567 LINE",
"164 567 LINE",
"36 551 LINE",
"36 506 LINE",
"114 489 LINE",
"114 -188 LINE",
"37 -198 LINE",
"37 -242 LINE",
"305 -242 LINE",
"305 -198 LINE",
"194 -188 LINE",
"194 -80 LINE",
"192 5 LINE",
"219 -5 OFFCURVE",
"266 -11 OFFCURVE",
"302 -11 CURVE SMOOTH",
"473 -11 OFFCURVE",
"584 126 OFFCURVE",
"584 298 CURVE SMOOTH"
);
},
{
closed = 1;
nodes = (
"421 509 OFFCURVE",
"498 443 OFFCURVE",
"497 284 CURVE",
"494 113 OFFCURVE",
"413 36 OFFCURVE",
"306 36 CURVE SMOOTH",
"251 36 OFFCURVE",
"204 54 OFFCURVE",
"194 70 CURVE",
"194 451 LINE",
"217 476 OFFCURVE",
"269 509 OFFCURVE",
"332 509 CURVE SMOOTH"
);
}
);
width = 622;
},
{
anchors = (
{
name = mark0;
position = "{314, -83}";
},
{
name = top;
position = "{343, 556}";
}
);
layerId = "DEBB1CE4-A72D-4960-969E-E04A036D2FA1";
paths = (
{
closed = 1;
nodes = (
"617 492 OFFCURVE",
"519 570 OFFCURVE",
"400 570 CURVE SMOOTH",
"329 570 OFFCURVE",
"272 530 OFFCURVE",
"245 494 CURVE",
"245 548 LINE",
"218 569 LINE",
"216 569 LINE",
"37 547 LINE",
"37 469 LINE",
"97 451 LINE",
"97 -167 LINE",
"37 -180 LINE",
"37 -242 LINE",
"344 -242 LINE",
"344 -180 LINE",
"258 -167 LINE",
"258 -82 LINE",
"255 -1 LINE",
"268 -6 OFFCURVE",
"295 -11 OFFCURVE",
"318 -11 CURVE SMOOTH",
"516 -11 OFFCURVE",
"617 134 OFFCURVE",
"617 296 CURVE SMOOTH"
);
},
{
closed = 1;
nodes = (
"401 478 OFFCURVE",
"445 420 OFFCURVE",
"444 279 CURVE",
"444 112 OFFCURVE",
"388 55 OFFCURVE",
"321 55 CURVE SMOOTH",
"291 55 OFFCURVE",
"267 65 OFFCURVE",
"258 76 CURVE",
"258 442 LINE",
"272 460 OFFCURVE",
"304 478 OFFCURVE",
"341 478 CURVE SMOOTH"
);
}
);
width = 644;
}
);
leftKerningGroup = n;
leftMetricsKey = n;
rightKerningGroup = b;
rightMetricsKey = o;
unicode = 0070;
category = Letter;
subCategory = Lowercase;
},
{
glyphname = thorn;
lastChange = "2019-04-04 02:32:05 +0000";
layers = (
{
layerId = UUID0;
paths = (
{
closed = 1;
nodes = (
"0 765 LINE",
"86 756 LINE",
"86 -192 LINE",
"8 -203 LINE",
"8 -242 LINE",
"282 -242 LINE",
"282 -203 LINE",
"167 -192 LINE",
"166 -66 LINE",
"164 0 LINE",
"195 -6 OFFCURVE",
"232 -11 OFFCURVE",
"272 -11 CURVE SMOOTH",
"447 -11 OFFCURVE",
"557 127 OFFCURVE",
"557 298 CURVE SMOOTH",
"557 490 OFFCURVE",
"450 570 OFFCURVE",
"338 570 CURVE SMOOTH",
"260 570 OFFCURVE",
"202 534 OFFCURVE",
"167 501 CURVE",
"167 805 LINE",
"148 819 LINE",
"146 819 LINE",
"0 802 LINE"
);
},
{
closed = 1;
nodes = (
"394 509 OFFCURVE",
"471 443 OFFCURVE",
"469 284 CURVE SMOOTH",
"466 118 OFFCURVE",
"387 40 OFFCURVE",
"279 40 CURVE SMOOTH",
"229 40 OFFCURVE",
"177 52 OFFCURVE",
"167 75 CURVE",
"167 445 LINE",
"190 470 OFFCURVE",
"242 509 OFFCURVE",
"305 509 CURVE SMOOTH"
);
}
);
width = 595;
},
{
layerId = "DEBB1CE4-A72D-4960-969E-E04A036D2FA1";
paths = (
{
closed = 1;
nodes = (
"1.478 738.404 LINE",
"72.702 724.971 LINE",
"72.702 -168.359 LINE",
"10.216 -180.837 LINE",
"10.216 -242 LINE",
"326.327 -242 LINE",
"326.327 -180.837 LINE",
"233.49 -168.359 LINE",
"233.229 -67.478 LINE",
"230.49 -7.388 LINE",
"248.931 -9.694 OFFCURVE",
"270.416 -11 OFFCURVE",
"292.686 -11 CURVE SMOOTH",
"479.506 -11 OFFCURVE",
"593.2 122.567 OFFCURVE",
"593.2 295.784 CURVE SMOOTH",
"593.2 492.216 OFFCURVE",
"497.282 570 OFFCURVE",
"377.894 570 CURVE SMOOTH",
"315.408 570 OFFCURVE",
"263.318 539.91 OFFCURVE",
"232.751 508.388 CURVE",
"232.751 799.829 LINE",
"200.453 819.739 LINE",
"198.453 819.739 LINE",
"1.478 796.09 LINE"
);
},
{
closed = 1;
nodes = (
"377.008 472.061 OFFCURVE",
"420.763 418.62 OFFCURVE",
"419.502 278.829 CURVE SMOOTH",
"417.98 123.91 OFFCURVE",
"368.531 51.082 OFFCURVE",
"297.469 51.082 CURVE SMOOTH",
"265.939 51.082 OFFCURVE",
"239.057 60.127 OFFCURVE",
"232.751 72.784 CURVE",
"232.751 434.657 LINE",
"247.624 452.269 OFFCURVE",
"279.678 472.061 OFFCURVE",
"316.082 472.061 CURVE SMOOTH"
);
}
);
width = 620;
}
);
leftKerningGroup = b;
leftMetricsKey = b;
rightKerningGroup = b;
rightMetricsKey = p;
unicode = 00FE;
category = Letter;
subCategory = Lowercase;
},
{
glyphname = q;
lastChange = "2019-03-14 17:14:53 +0000";
layers = (
{
anchors = (
{
name = mark0;
position = "{295, -83}";
}
);
layerId = UUID0;
paths = (
{
closed = 1;
nodes = (
"577 -242 LINE",
"577 -201 LINE",
"507 -191 LINE",
"507 551 LINE",
"490 567 LINE",
"445 553 LINE",
"411 562 OFFCURVE",
"366 570 OFFCURVE",
"321 570 CURVE SMOOTH",
"145 570 OFFCURVE",
"36 438 OFFCURVE",
"36 267 CURVE SMOOTH",
"36 76 OFFCURVE",
"144 -11 OFFCURVE",
"256 -11 CURVE SMOOTH",
"335 -11 OFFCURVE",
"393 28 OFFCURVE",
"429 63 CURVE",
"426 -23 LINE",
"426 -191 LINE",
"314 -201 LINE",
"314 -242 LINE"
);
},
{
closed = 1;
nodes = (
"198 47 OFFCURVE",
"122 122 OFFCURVE",
"124 281 CURVE SMOOTH",
"126 451 OFFCURVE",
"207 526 OFFCURVE",
"313 526 CURVE SMOOTH",
"366 526 OFFCURVE",
"418 507 OFFCURVE",
"426 491 CURVE",
"426 107 LINE",
"404 84 OFFCURVE",
"354 47 OFFCURVE",
"289 47 CURVE SMOOTH"
);
}
);
width = 595;
},
{
anchors = (
{
name = mark0;
position = "{301.649, -83}";
}
);
layerId = "DEBB1CE4-A72D-4960-969E-E04A036D2FA1";
paths = (
{
closed = 1;
nodes = (
"619.849 -242 LINE",
"619.849 -180.314 LINE",
"552.065 -168.098 LINE",
"552.065 548.045 LINE",
"527.678 565.522 LINE",
"447.216 550.045 LINE",
"422.082 557.567 OFFCURVE",
"372.649 570 OFFCURVE",
"331.343 570 CURVE SMOOTH",
"131.702 570 OFFCURVE",
"30.09 426.918 OFFCURVE",
"30.09 266.261 CURVE SMOOTH",
"30.09 70.09 OFFCURVE",
"128.486 -11 OFFCURVE",
"247.135 -11 CURVE SMOOTH",
"305.449 -11 OFFCURVE",
"359.755 14.702 OFFCURVE",
"394.278 49.702 CURVE",
"391.278 -23 LINE",
"391.278 -167.359 LINE",
"283.71 -180.314 LINE",
"283.71 -242 LINE"
);
},
{
closed = 1;
nodes = (
"248.237 78.029 OFFCURVE",
"203.265 139.731 OFFCURVE",
"204.527 282.478 CURVE SMOOTH",
"205.049 448.045 OFFCURVE",
"259.453 502.359 OFFCURVE",
"325.559 502.359 CURVE SMOOTH",
"355.657 502.359 OFFCURVE",
"383.278 492.224 OFFCURVE",
"391.278 481.396 CURVE",
"391.278 115.127 LINE",
"376.665 98.037 OFFCURVE",
"345.135 78.029 OFFCURVE",
"308.947 78.029 CURVE SMOOTH"
);
}
);
width = 618.64082;
}
);
leftKerningGroup = d;
leftMetricsKey = d;
rightKerningGroup = q;
unicode = 0071;
category = Letter;
subCategory = Lowercase;
},
{
glyphname = r;
lastChange = "2019-04-04 02:33:59 +0000";
layers = (
{
anchors = (
{
name = bottom;
position = "{163, 0}";
},
{
name = mark0;
position = "{163, -83}";
},
{
name = top;
position = "{242, 555}";
}
);
layerId = UUID0;
paths = (
{
closed = 1;
nodes = (
"330 0 LINE",
"330 41 LINE",
"197 49 LINE",
"197 415 LINE",
"228 438 OFFCURVE",
"282 478 OFFCURVE",
"368 478 CURVE SMOOTH",
"390 478 OFFCURVE",
"410 472 OFFCURVE",
"414 469 CURVE",
"414 553 LINE",
"407 555 OFFCURVE",
"398 557 OFFCURVE",
"384 557 CURVE SMOOTH",
"274 557 OFFCURVE",
"199 459 OFFCURVE",
"187 446 CURVE",
"185 446 LINE",
"187 535 LINE",
"187 551 LINE",
"168 567 LINE",
"166 567 LINE",
"39 551 LINE",
"39 506 LINE",
"116 489 LINE",
"116 48 LINE",
"36 42 LINE",
"36 0 LINE"
);
}
);
width = 439;
},
{
anchors = (
{
name = bottom;
position = "{184.424, 0}";
},
{
name = mark0;
position = "{185.902, -88.171}";
},
{
name = top;
position = "{256.776, 555.739}";
}
);
layerId = "DEBB1CE4-A72D-4960-969E-E04A036D2FA1";
paths = (
{
closed = 1;
nodes = (
"372.11 0 LINE",
"372.11 65.38 LINE",
"262.012 74.857 LINE",
"262.012 381.016 LINE",
"280.453 393.673 OFFCURVE",
"319.678 412.249 OFFCURVE",
"373.171 412.249 CURVE SMOOTH",
"416.596 412.249 OFFCURVE",
"439.551 405.51 OFFCURVE",
"455.371 393.645 CURVE",
"455.371 559.649 LINE",
"447.633 563.127 OFFCURVE",
"433.461 566.604 OFFCURVE",
"415.029 566.604 CURVE SMOOTH",
"318.327 566.604 OFFCURVE",
"248.498 478.208 OFFCURVE",
"236.498 437.135 CURVE",
"233.02 437.135 LINE",
"236.498 523.918 LINE",
"236.498 548.045 LINE",
"207.894 569.216 LINE",
"205.155 569.216 LINE",
"39 547.306 LINE",
"39 469.061 LINE",
"98.269 450.584 LINE",
"98.269 74.596 LINE",
"37.478 65.641 LINE",
"37.478 0 LINE"
);
}
);
width = 475.93878;
}
);
leftKerningGroup = n;
leftMetricsKey = n;
rightKerningGroup = r;
unicode = 0072;
category = Letter;
subCategory = Lowercase;
},
